y<svg xmlns="http://www.w3.org/2000/svg" viewBox="0 0 20 20">
  <defs/>
  <path d="M17 9a2 2 0 012 1.85V17a2 2 0 01-1.85 2H10a2 2 0 01-2-1.85V11a2 2 0 011.85-2H17zm0 2h-7v6h7v-6zM5.55 9.2l.1.08a1 1 0 01.1 1.32l-.09.1-1.6 1.64a1.5 1.5 0 01-2 .13l-.14-.12L.3 10.7a1 1 0 011.33-1.49l.09.09 1.27 1.28L4.23 9.3a1 1 0 011.32-.1zM2.68 1.13l.1.08L4.4 2.8c.56.54.6 1.4.13 2l-.12.14-1.64 1.63a1 1 0 01-1.5-1.33l.1-.1 1.28-1.27-1.28-1.24a1 1 0 01-.1-1.32l.08-.1a1 1 0 011.32-.1zM18 3a1 1 0 010 2H9a1 1 0 110-2h9z"/>
</svg>
