<svg xmlns="http://www.w3.org/2000/svg" viewBox="0 0 44 18">
  <path fill="#6d6d6d" d="M313,1263 C314.597681,1263 315.903661,1264.24892 315.994907,1265.82373 L316,1266 L316,1276 C316,1277.59768 314.75108,1278.90366 313.176273,1278.99491 L313,1279 L299,1279 C297.402319,1279 296.096339,1277.75108 296.005093,1276.17627 L296,1276 L296,1266 C296,1264.40232 297.24892,1263.09634 298.823727,1263.00509 L299,1263 L313,1263 Z M313,1265 L299,1265 C298.487164,1265 298.064493,1265.38604 298.006728,1265.88338 L298,1266 L298,1276 C298,1276.51284 298.38604,1276.93551 298.883379,1276.99327 L299,1277 L313,1277 C313.512836,1277 313.935507,1276.61396 313.993272,1276.11662 L314,1276 L314,1266 C314,1265.48716 313.61396,1265.06449 313.116621,1265.00673 L313,1265 Z M303.867069,1268.61658 C304.054113,1268.69793 304.211805,1268.83454 304.318993,1269.00808 L306.603874,1272.7073 C306.875343,1273.1468 307.436898,1273.3072 307.899548,1273.07738 L309.448458,1272.30796 C309.931187,1272.06816 310.51711,1272.2541 310.773233,1272.72837 L311.203349,1273.52482 C311.465781,1274.01078 311.284583,1274.61746 310.798633,1274.87989 C310.652656,1274.95872 310.48936,1275 310.323457,1275 L301.525467,1275 C300.973183,1275 300.525467,1274.55228 300.525467,1274 C300.525467,1273.86276 300.553717,1273.72699 300.608458,1273.60113 L302.551193,1269.13472 C302.771482,1268.62827 303.360619,1268.39629 303.867069,1268.61658 Z M309.25,1267.5 C309.94,1267.5 310.5,1268.06 310.5,1268.75 C310.5,1269.44 309.94,1270 309.25,1270 C308.56,1270 308,1269.44 308,1268.75 C308,1268.06 308.56,1267.5 309.25,1267.5 Z M291,1262.5 C291.552285,1262.5 292,1262.94772 292,1263.5 C292,1264.01284 291.61396,1264.43551 291.116621,1264.49327 L291,1264.5 L290.5,1264.5 C289.720304,1264.5 289.079551,1265.09489 289.006867,1265.85554 L289,1266 L289,1267.56325 C289,1268.3851 288.663032,1269.16776 288.073224,1269.73161 L287.920553,1269.86791 L286.562,1271 L287.920553,1272.13209 C288.551917,1272.65822 288.937451,1273.41813 288.993029,1274.23221 L289,1274.43675 L289,1276 C289,1276.7797 289.594888,1277.42045 290.35554,1277.49313 L290.5,1277.5 L291,1277.5 C291.552285,1277.5 292,1277.94772 292,1278.5 C292,1279.01284 291.61396,1279.43551 291.116621,1279.49327 L291,1279.5 L290.5,1279.5 C288.631437,1279.5 287.104874,1278.03572 287.005179,1276.19204 L287,1276 L287,1274.43675 C287,1274.18237 286.90315,1273.93925 286.731904,1273.75533 L286.640184,1273.66853 L284.359816,1271.76822 C283.912045,1271.39508 283.882194,1270.72832 284.270261,1270.31603 L284.359816,1270.23178 L286.640184,1268.33147 C286.835607,1268.16862 286.960374,1267.93858 286.992033,1267.68928 L287,1267.56325 L287,1266 C287,1264.13144 288.464278,1262.60487 290.307965,1262.50518 L290.5,1262.5 L291,1262.5 Z M321,1262.5 C320.447715,1262.5 320,1262.94772 320,1263.5 C320,1264.01284 320.38604,1264.43551 320.883379,1264.49327 L321,1264.5 L321.5,1264.5 C322.279696,1264.5 322.920449,1265.09489 322.993133,1265.85554 L323,1266 L323,1267.56325 C323,1268.3851 323.336968,1269.16776 323.926776,1269.73161 L324.079447,1269.86791 L325.438,1271 L324.079447,1272.13209 C323.448083,1272.65822 323.062549,1273.41813 323.006971,1274.23221 L323,1274.43675 L323,1276 C323,1276.7797 322.405112,1277.42045 321.64446,1277.49313 L321.5,1277.5 L321,1277.5 C320.447715,1277.5 320,1277.94772 320,1278.5 C320,1279.01284 320.38604,1279.43551 320.883379,1279.49327 L321,1279.5 L321.5,1279.5 C323.368563,1279.5 324.895126,1278.03572 324.994821,1276.19204 L325,1276 L325,1274.43675 C325,1274.18237 325.09685,1273.93925 325.268096,1273.75533 L325.359816,1273.66853 L327.640184,1271.76822 C328.087955,1271.39508 328.117806,1270.72832 327.729739,1270.31603 L327.640184,1270.23178 L325.359816,1268.33147 C325.164393,1268.16862 325.039626,1267.93858 325.007967,1267.68928 L325,1267.56325 L325,1266 C325,1264.13144 323.535722,1262.60487 321.692035,1262.50518 L321.5,1262.5 L321,1262.5 Z" transform="translate(-284 -1262)"/>
</svg>
