<svg xmlns="http://www.w3.org/2000/svg" viewBox="0 0 20 20">
  <path d="m2.95 12.95.1.05 5.98 3.32a2 2 0 0 0 1.79.07l.15-.07L16.94 13a1 1 0 0 1 1.07 1.69l-.1.06-5.97 3.31a4 4 0 0 1-3.67.12l-.21-.12-5.97-3.31a1 1 0 0 1 .86-1.8Zm0-4 .1.05 5.98 3.32a2 2 0 0 0 1.79.07l.15-.07L16.94 9a1 1 0 0 1 1.07 1.69l-.1.06-5.97 3.31a4 4 0 0 1-3.67.12l-.21-.12-5.97-3.31a1 1 0 0 1 .86-1.8Zm8.32-7.23.19.09 5.97 3.32a1 1 0 0 1 .1 1.68l-.1.06-5.97 3.32a3 3 0 0 1-2.73.1l-.19-.1-5.97-3.32a1 1 0 0 1-.1-1.68l.1-.06L8.54 1.8a3 3 0 0 1 2.73-.1ZM9.63 3.5l-.12.06L5.11 6l4.4 2.44a1 1 0 0 0 .86.06l.12-.06L14.89 6l-4.4-2.44a1 1 0 0 0-.86-.06Z"/>
</svg>
