<svg xmlns="http://www.w3.org/2000/svg" viewBox="0 0 20 20">
  <defs/>
  <path d="M7.32 3.09l.14.13 11.32 11.32a3 3 0 01-4.1 4.37l-.14-.13L3.22 7.46a3 3 0 014.1-4.37zM2.5 9c.12 0 .22.09.25.2v.05l.17.83.83.17h.04a.25.25 0 010 .5h-.04l-.83.17-.17.83v.04a.25.25 0 01-.5 0v-.04l-.17-.83-.83-.17h-.04a.25.25 0 010-.5h.04l.83-.17.17-.83v-.04c.03-.12.13-.21.25-.21zm2.14-4.36a1 1 0 00-.09 1.32l.09.09 3.15 3.16a1 1 0 011.32-1.5l.1.08-3.16-3.15a1 1 0 00-1.41 0zM14 1a.5.5 0 01.5.41v.09l.33 1.67 1.67.33h.09a.5.5 0 010 1h-.09l-1.67.33-.33 1.67v.09a.5.5 0 01-1 0V6.5l-.33-1.67-1.67-.33h-.09a.5.5 0 010-1h.09l1.67-.33.33-1.67v-.09A.5.5 0 0114 1zM9.5 0c.12 0 .22.09.25.2v.05l.17.83.83.17h.04a.25.25 0 010 .5h-.04l-.83.17-.17.83v.04a.25.25 0 01-.5 0v-.04l-.17-.83-.83-.17h-.04a.25.25 0 010-.5h.04l.83-.17.17-.83V.21C9.28.09 9.38 0 9.5 0z"/>
</svg>
