<svg xmlns="http://www.w3.org/2000/svg" viewBox="0 0 20 20">
  <path d="M3 12a1 1 0 0 1 .993.883L4 13v1a2 2 0 0 0 1.85 1.995L6 16h1a1 1 0 0 1 .117 1.993L7 18H6a4 4 0 0 1-3.995-3.8L2 14v-1a1 1 0 0 1 1-1zm14 0a1 1 0 0 1 .993.883L18 13v1a4 4 0 0 1-3.8 3.995L14 18h-1a1 1 0 0 1-.117-1.993L13 16h1a2 2 0 0 0 1.995-1.85L16 14v-1a1 1 0 0 1 1-1zm-7-5a3 3 0 1 1 0 6 3 3 0 0 1 0-6zM7 2a1 1 0 0 1 .117 1.993L7 4H6a2 2 0 0 0-1.995 1.85L4 6v1.003a1 1 0 0 1-1.993.116L2 7.003V6a4 4 0 0 1 3.8-3.995L6 2h1zm7 0a4 4 0 0 1 3.995 3.8L18 6v1a1 1 0 0 1-1.993.117L16 7V6a2 2 0 0 0-1.85-1.995L14 4h-1a1 1 0 0 1-.117-1.993L13 2h1z" />
</svg>
