<svg xmlns="http://www.w3.org/2000/svg" viewBox="0 0 20 20">
  <path d="M5,3 L14,3 C14.5522847,3 15,3.44771525 15,4 C15,4.55228475 14.5522847,5 14,5 L5,5 C4.44771525,5 4,4.55228475 4,4 C4,3.44771525 4.44771525,3 5,3 Z M8,7 L12,7 C12.5522847,7 13,7.44771525 13,8 C13,8.55228475 12.5522847,9 12,9 L8,9 C7.44771525,9 7,8.55228475 7,8 C7,7.44771525 7.44771525,7 8,7 Z M9,11 L19,11 C19.5522847,11 20,11.4477153 20,12 C20,12.5522847 19.5522847,13 19,13 L9,13 C8.44771525,13 8,12.5522847 8,12 C8,11.4477153 8.44771525,11 9,11 Z M5,15 L12,15 C12.5522847,15 13,15.4477153 13,16 C13,16.5522847 12.5522847,17 12,17 L5,17 C4.44771525,17 4,16.5522847 4,16 C4,15.4477153 4.44771525,15 5,15 Z M1,1 C1.55228475,1 2,1.44771525 2,2 L2,18 C2,18.5522847 1.55228475,19 1,19 C0.44771525,19 0,18.5522847 0,18 L0,2 C0,1.44771525 0.44771525,1 1,1 Z"/>
</svg>
