<svg xmlns="http://www.w3.org/2000/svg" viewBox="0 0 20 20">
  <path d="M10 1a1 1 0 0 1 .993.883L11 2l.001 1.071A7.005 7.005 0 0 1 16.929 9H18a1 1 0 0 1 .117 1.993L18 11l-1.071.001a7.005 7.005 0 0 1-5.928 5.928L11 18a1 1 0 0 1-1.993.117L9 18v-1.07A7.005 7.005 0 0 1 3.071 11L2 11a1 1 0 0 1-.117-1.993L2 9h1.07A7.005 7.005 0 0 1 9 3.07V2a1 1 0 0 1 1-1zm1.001 4.1L11 7a1 1 0 0 1-1.993.117L9 7V5.1A5.006 5.006 0 0 0 5.1 9H7a1 1 0 0 1 .117 1.993L7 11l-1.9.001A5.006 5.006 0 0 0 9 14.9V13a1 1 0 0 1 1.993-.117L11 13l.001 1.9A5.006 5.006 0 0 0 14.9 11L13 11a1 1 0 0 1-.117-1.993L13 9h1.9a5.007 5.007 0 0 0-3.675-3.849l-.224-.05z" />
</svg>
