<svg xmlns="http://www.w3.org/2000/svg" width="80" height="80" viewBox="0 0 80 80"><path fill="#FFF" fill-rule="evenodd" d="M315,111 C337.09139,111 355,128.90861 355,151 C355,173.09139 337.09139,191 315,191 C292.90861,191 275,173.09139 275,151 C275,128.90861 292.90861,111 315,111 Z M308,137.52074 C306.895431,137.52074 306,138.416171 306,139.52074 L306,163.47926 C306,163.839824 306.097474,164.193683 306.282106,164.503389 C306.847717,165.452156 308.075362,165.762765 309.024129,165.197154 L329.118371,153.217894 C329.403642,153.047829 329.642071,152.8094 329.812136,152.524129 C330.377747,151.575362 330.067138,150.347717 329.118371,149.782106 L309.024129,137.802846 C308.714423,137.618214 308.360565,137.52074 308,137.52074 Z" transform="translate(-275 -111)"/></svg>