<svg xmlns="http://www.w3.org/2000/svg" width="100" height="71" viewBox="0 0 100 71"><defs><linearGradient id="a" x1="50%" x2="50%" y1="0%" y2="100%"><stop offset="0%" stop-color="#E52D27"/><stop offset="100%" stop-color="#BF171D"/></linearGradient></defs><g fill="none" fill-rule="evenodd"><polygon fill="#FFF" points="37.817 52.726 37.817 18.274 67.864 35.501"/><polygon fill="#E8E0E0" points="39.85 20.634 65.298 39.22 72.024 33.586"/><path fill="url(#a)" d="M50.4410772,0.000612538758 C52.5370222,0.00590965294 61.7698303,0.0498000275 70.8776132,0.413463131 L71.9481023,0.45773929 C79.0750114,0.762975161 85.9498295,1.27170161 89.0689205,2.11957903 C93.3717614,3.28592581 96.7603977,6.72255484 97.9103977,11.0867645 C98.5278306,13.4237004 98.9628401,16.5108236 99.2693241,19.7008427 L99.3377941,20.4385329 C99.3488337,20.5616874 99.3596894,20.6849206 99.370364,20.8081954 L99.4322656,21.5480507 C99.940391,27.8360684 99.9938779,34.0410413 99.9995081,35.277678 L100.000167,35.4935289 C100.00017,35.4998855 100.00017,35.5020165 100.000167,35.5062418 L99.9995081,35.7220855 C99.9945403,36.8131997 99.9523138,41.7722766 99.5933886,47.2435804 L99.5436306,47.9758284 C99.5350167,48.0982774 99.5262402,48.2209057 99.5172981,48.3436766 L99.461634,49.0817165 C99.4520173,49.2049099 99.4422288,49.3281721 99.4322656,49.4514663 L99.370364,50.1913211 C99.0607982,53.7662936 98.5990728,57.3062355 97.9103977,59.9130065 C96.7603977,64.2772161 93.3717614,67.7138452 89.0689205,68.8807645 C85.9498295,69.7284129 79.0750114,70.2370019 71.9481023,70.5421554 L70.8776132,70.5864196 C61.7698303,70.9499844 52.5370222,70.9938629 50.4410772,70.9991586 L50.009497,70.9998834 C50.0001705,70.9998855 49.9970434,70.9998855 49.9908439,70.9998834 L49.5592635,70.9991586 C47.7098991,70.994486 40.3041452,70.9597748 32.330526,70.7019201 L31.2644496,70.6662002 C23.0721132,70.3819498 14.5180682,69.8555602 10.9308523,68.8807645 C6.62801136,67.7138452 3.239375,64.2772161 2.089375,59.9130065 C1.40088714,57.3062355 0.939287322,53.7662936 0.629805627,50.1913211 L0.567920938,49.4514663 C0.557960403,49.3281721 0.548174615,49.2049099 0.538560506,49.0817165 L0.482911498,48.3436766 C0.473971849,48.2209057 0.465197749,48.0982774 0.456586133,47.9758284 L0.406841708,47.2435804 C0.0480141314,41.7722766 0.00579912241,36.8131997 0.000832650764,35.7220855 L0.000832650764,35.277678 C0.00646131863,34.0410413 0.0599336633,27.8360684 0.567920938,21.5480507 L0.629805627,20.8081954 C0.939287322,17.2332244 1.40088714,13.6933468 2.089375,11.0867645 C3.239375,6.72255484 6.62801136,3.28592581 10.9308523,2.11957903 C18.183267,0.148264032 45.7372436,0.0102719823 49.5592635,0.000612538758 Z M39.7727273,20.5160798 L39.7727273,50.4838056 L65.9090909,35.5005153 L39.7727273,20.5160798 Z"/></g></svg>