<svg xmlns="http://www.w3.org/2000/svg" viewBox="0 0 20 20">
  <defs/>
  <path d="M15 17v2h-2v-2h2zm-4 0v2H9v-2h2zm-5-4a1 1 0 011 .88V18a1 1 0 01-.88 1H2a1 1 0 01-1-.88V14a1 1 0 01.88-1H6zm13 4v1a1 1 0 01-1 1h-1v-2h2zm0-4v2h-2v-2h2zm-4.3-7.7a1 1 0 01.09 1.31l-.08.1L11.4 10H13a1 1 0 01.12 2H10a2 2 0 01-2-1.85V7a1 1 0 012-.12V8.58l3.3-3.29a1 1 0 011.4 0zM3 9v2H1V9h2zm16 0v2h-2V9h2zM3 5v2H1V5h2zm16 0v2h-2V5h2zM7 1v2H5V1h2zm8 0v2h-2V1h2zm-4 0v2H9V1h2zM3 1v2H1V2a1 1 0 011-1h1zm15 0a1 1 0 011 .88V3h-2V1h1z"/>
</svg>
