<svg xmlns="http://www.w3.org/2000/svg" viewBox="0 0 20 20">
  <path d="M17,4 C18.5976809,4 19.9036609,5.24891996 19.9949073,6.82372721 L20,7 L20,15 C20,16.5976809 18.75108,17.9036609 17.1762728,17.9949073 L17,18 L3,18 C1.40231912,18 0.0963391206,16.75108 0.00509269341,15.1762728 L0,15 L0,7 C0,5.40231912 1.24891996,4.09633912 2.82372721,4.00509269 L3,4 C3.55228475,4 4,4.44771525 4,5 C4,5.51283584 3.61395981,5.93550716 3.11662113,5.99327227 L3,6 C2.48716416,6 2.06449284,6.38604019 2.00672773,6.88337887 L2,7 L2,9 C2,9.51283584 2.38604019,9.93550716 2.88337887,9.99327227 L3,10 L17,10 C17.5128358,10 17.9355072,9.61395981 17.9932723,9.11662113 L18,9 L18,7 C18,6.48716416 17.6139598,6.06449284 17.1166211,6.00672773 L17,6 C16.4477153,6 16,5.55228475 16,5 C16,4.48716416 16.3860402,4.06449284 16.8833789,4.00672773 L17,4 Z M8,12 L3,12 C2.48716416,12 2.06449284,12.3860402 2.00672773,12.8833789 L2,13 L2,15 C2,15.5128358 2.38604019,15.9355072 2.88337887,15.9932723 L3,16 L17,16 C17.5128358,16 17.9355072,15.6139598 17.9932723,15.1166211 L18,15 L18,13 C18,12.4871642 17.6139598,12.0644928 17.1166211,12.0067277 L8,12 Z M10,0 C10.5128358,0 10.9355072,0.38604019 10.9932723,0.883378875 L11,1 L11,3 L13,3 C13.5522847,3 14,3.44771525 14,4 C14,4.51283584 13.6139598,4.93550716 13.1166211,4.99327227 L13,5 L11,5 L11,7 C11,7.55228475 10.5522847,8 10,8 C9.48716416,8 9.06449284,7.61395981 9.00672773,7.11662113 L9,7 L9,4.999 L7,5 C6.44771525,5 6,4.55228475 6,4 C6,3.48716416 6.38604019,3.06449284 6.88337887,3.00672773 L7,3 L9,2.999 L9,1 C9,0.44771525 9.44771525,0 10,0 Z"/>
</svg>
