<svg xmlns="http://www.w3.org/2000/svg" viewBox="0 0 20 20">
  <path d="M16,2 C18.209139,2 20,3.790861 20,6 L20,12 L19.9951047,12.1996403 C19.8910789,14.3160315 18.1421954,16 16,16 L13.666,16 L10.2,18.6 L10.0748182,18.6870892 C8.76576945,19.5293659 7,18.5965878 7,17 L7,16 L4,16 C1.790861,16 0,14.209139 0,12 L0,6 C0,3.790861 1.790861,2 4,2 L16,2 Z M10,5 C10.5128358,5 10.9355072,5.38604019 10.9932723,5.88337887 L11,6 L11,8 L13,8 C13.5522847,8 14,8.44771525 14,9 C14,9.51283584 13.6139598,9.93550716 13.1166211,9.99327227 L13,10 L11,10 L11,12 C11,12.5522847 10.5522847,13 10,13 C9.48716416,13 9.06449284,12.6139598 9.00672773,12.1166211 L9,12 L9,9.999 L7,10 C6.44771525,10 6,9.55228475 6,9 C6,8.48716416 6.38604019,8.06449284 6.88337887,8.00672773 L7,8 L9,7.999 L9,6 C9,5.44771525 9.44771525,5 10,5 Z M16,4 L4,4 C2.8954305,4 2,4.8954305 2,6 L2,12 C2,13.1045695 2.8954305,14 4,14 L8,14 C8.55228475,14 9,14.4477153 9,15 L9,17 L12.7333333,14.2 C12.9064295,14.0701779 13.1169631,14 13.3333333,14 L16,14 C17.1045695,14 18,13.1045695 18,12 L18,6 C18,4.8954305 17.1045695,4 16,4 Z"/>
</svg>
