<svg xmlns="http://www.w3.org/2000/svg" viewBox="0 0 20 20">
  <path d="M10,12 C10.5128358,12 10.9355072,12.3860402 10.9932723,12.8833789 L11,13 L11,15 L13,15 C13.5522847,15 14,15.4477153 14,16 C14,16.5128358 13.6139598,16.9355072 13.1166211,16.9932723 L13,17 L11,17 L11,19 C11,19.5522847 10.5522847,20 10,20 C9.48716416,20 9.06449284,19.6139598 9.00672773,19.1166211 L9,19 L9,16.999 L7,17 C6.44771525,17 6,16.5522847 6,16 C6,15.4871642 6.38604019,15.0644928 6.88337887,15.0067277 L7,15 L9,14.999 L9,13 C9,12.4477153 9.44771525,12 10,12 Z M17,2 C18.5976809,2 19.9036609,3.24891996 19.9949073,4.82372721 L20,5 L20,13 C20,14.5976809 18.75108,15.9036609 17.1762728,15.9949073 L17,16 C16.4477153,16 16,15.5522847 16,15 C16,14.4871642 16.3860402,14.0644928 16.8833789,14.0067277 L17,14 C17.5128358,14 17.9355072,13.6139598 17.9932723,13.1166211 L18,13 L18,11 C18,10.4871642 17.6139598,10.0644928 17.1166211,10.0067277 L17,10 L3,10 C2.48716416,10 2.06449284,10.3860402 2.00672773,10.8833789 L2,11 L2,13 C2,13.5128358 2.38604019,13.9355072 2.88337887,13.9932723 L3,14 C3.55228475,14 4,14.4477153 4,15 C4,15.5128358 3.61395981,15.9355072 3.11662113,15.9932723 L3,16 C1.40231912,16 0.0963391206,14.75108 0.00509269341,13.1762728 L0,13 L0,5 C0,3.40231912 1.24891996,2.09633912 2.82372721,2.00509269 L3,2 L17,2 Z M8,4 L3,4 C2.48716416,4 2.06449284,4.38604019 2.00672773,4.88337887 L2,5 L2,7 C2,7.51283584 2.38604019,7.93550716 2.88337887,7.99327227 L3,8 L17,8 C17.5128358,8 17.9355072,7.61395981 17.9932723,7.11662113 L18,7 L18,5 C18,4.48716416 17.6139598,4.06449284 17.1166211,4.00672773 L8,4 Z"/>
</svg>
