<svg xmlns="http://www.w3.org/2000/svg" viewBox="0 0 20 20">
  <path d="M16,17 C16,18.5976809 14.75108,19.9036609 13.1762728,19.9949073 L13,20 L5,20 C3.40231912,20 2.09633912,18.75108 2.00509269,17.1762728 L2,17 L2,3 C2,1.40231912 3.24891996,0.0963391206 4.82372721,0.00509269341 L5,0 L13,0 C14.5976809,0 15.9036609,1.24891996 15.9949073,2.82372721 L16,3 C16,3.55228475 15.5522847,4 15,4 C14.4871642,4 14.0644928,3.61395981 14.0067277,3.11662113 L14,3 C14,2.48716416 13.6139598,2.06449284 13.1166211,2.00672773 L13,2 L11,2 C10.4871642,2 10.0644928,2.38604019 10.0067277,2.88337887 L10,3 L10,17 C10,17.5128358 10.3860402,17.9355072 10.8833789,17.9932723 L11,18 L13,18 C13.5128358,18 13.9355072,17.6139598 13.9932723,17.1166211 L14,17 C14,16.4477153 14.4477153,16 15,16 C15.5128358,16 15.9355072,16.3860402 15.9932723,16.8833789 L16,17 Z M8,17 L8,3 C8,2.48716416 7.61395981,2.06449284 7.11662113,2.00672773 L7,2 L5,2 C4.48716416,2 4.06449284,2.38604019 4.00672773,2.88337887 L4,3 L4,17 C4,17.5128358 4.38604019,17.9355072 4.88337887,17.9932723 L5,18 L7,18 C7.51283584,18 7.93550716,17.6139598 7.99327227,17.1166211 L8,17 Z M20,10 C20,10.5128358 19.6139598,10.9355072 19.1166211,10.9932723 L19,11 L17,11 L17,13 C17,13.5522847 16.5522847,14 16,14 C15.4871642,14 15.0644928,13.6139598 15.0067277,13.1166211 L15,13 L15,11 L13,11 C12.4477153,11 12,10.5522847 12,10 C12,9.48716416 12.3860402,9.06449284 12.8833789,9.00672773 L13,9 L15.001,9 L15,7 C15,6.44771525 15.4477153,6 16,6 C16.5128358,6 16.9355072,6.38604019 16.9932723,6.88337887 L17,7 L17.001,9 L19,9 C19.5522847,9 20,9.44771525 20,10 Z"/>
</svg>
