<svg xmlns="http://www.w3.org/2000/svg" viewBox="0 0 20 20">
  <path d="M4,17 C4,18.5976809 5.24891996,19.9036609 6.82372721,19.9949073 L7,20 L15,20 C16.5976809,20 17.9036609,18.75108 17.9949073,17.1762728 L18,17 L18,3 C18,1.40231912 16.75108,0.0963391206 15.1762728,0.00509269341 L15,0 L7,0 C5.40231912,0 4.09633912,1.24891996 4.00509269,2.82372721 L4,3 C4,3.55228475 4.44771525,4 5,4 C5.51283584,4 5.93550716,3.61395981 5.99327227,3.11662113 L6,3 C6,2.48716416 6.38604019,2.06449284 6.88337887,2.00672773 L7,2 L9,2 C9.51283584,2 9.93550716,2.38604019 9.99327227,2.88337887 L10,3 L10,17 C10,17.5128358 9.61395981,17.9355072 9.11662113,17.9932723 L9,18 L7,18 C6.48716416,18 6.06449284,17.6139598 6.00672773,17.1166211 L6,17 C6,16.4477153 5.55228475,16 5,16 C4.48716416,16 4.06449284,16.3860402 4.00672773,16.8833789 L4,17 Z M12,8 L12,3 C12,2.48716416 12.3860402,2.06449284 12.8833789,2.00672773 L13,2 L15,2 C15.5128358,2 15.9355072,2.38604019 15.9932723,2.88337887 L16,3 L16,17 C16,17.5128358 15.6139598,17.9355072 15.1166211,17.9932723 L15,18 L13,18 C12.4871642,18 12.0644928,17.6139598 12.0067277,17.1166211 L12,8 Z M0,10 C0,10.5128358 0.38604019,10.9355072 0.883378875,10.9932723 L1,11 L3,11 L3,13 C3,13.5522847 3.44771525,14 4,14 C4.51283584,14 4.93550716,13.6139598 4.99327227,13.1166211 L5,13 L5,11 L7,11 C7.55228475,11 8,10.5522847 8,10 C8,9.48716416 7.61395981,9.06449284 7.11662113,9.00672773 L7,9 L4.999,9 L5,7 C5,6.44771525 4.55228475,6 4,6 C3.48716416,6 3.06449284,6.38604019 3.00672773,6.88337887 L3,7 L2.999,9 L1,9 C0.44771525,9 0,9.44771525 0,10 Z"/>
</svg>
