<svg xmlns="http://www.w3.org/2000/svg" viewBox="0 0 20 20">
  <path d="M16.4 1c1.3.7 1.6 2.7.7 4.6-.4 1-1 2-1.7 2.8.3.5.4 1 .5 1.6v.2a5.5 5.5 0 0 1-5.8 9.3l-.1-.1h-.1c-.7.4-1.4.6-2.1.6h-.3a5.5 5.5 0 0 1-3.4-9.8V10c0-.5.2-1 .4-1.4-.7-1-1.4-2-1.9-3-.8-2-.6-4 .8-4.7 1.5-.8 3.2.4 4.2 3L8 5.2a6 6 0 0 1 3.6 0l.5-1.5c1-2.5 2.6-3.7 4.2-2.9ZM10 7a4 4 0 0 0-1.9.5h-.2v.1a4 4 0 0 0-.4.3l-.2.1-.2.2-.1.2-.2.2-.1.2a4 4 0 0 0-.7 2v.5l-.4.3a3.5 3.5 0 1 0 3.8 5.8l.2-.1a1 1 0 0 1-.3-.2l-.8-.7A.8.8 0 0 1 9 15h2a.8.8 0 0 1 .5 1.4l-.8.7-.3.2.2.1a3 3 0 0 0 1.9.6 3.5 3.5 0 0 0 2-6.4l-.5-.3v-.5a4 4 0 0 0-.6-2l-.1-.1a4 4 0 0 0-.3-.4l-.2-.2-.2-.1-.1-.1A4 4 0 0 0 10 7Zm-2.3 4c.6 0 1 .8 1 1.6-.1.8-.7 1.4-1.2 1.4-.6 0-1-.8-.9-1.6.1-.8.5-1.4 1-1.4Zm5.7 1.4c.1.8-.3 1.5-.8 1.6-.6 0-1.1-.6-1.2-1.4 0-.8.3-1.5.9-1.6.5 0 1 .6 1.1 1.4Zm-9-9.7c-.3.1-.4 1 0 2l1.2 2v.1c.2 0 .3-.2.5-.3l.2-.3-.1-.4-.3-.8-.2-.4C5.4 3.6 5 3 4.6 2.8a.7.7 0 0 0-.2-.1Zm10.8.1c-.4.3-.8.9-1.2 1.8L13.5 6l.4.3.2.3.2-.2.8-1.3.2-.5c.5-1 .4-1.9.1-2l-.2.1Z"/>
</svg>
