<svg xmlns="http://www.w3.org/2000/svg" viewBox="0 0 20 20">
  <path d="M14.8 0A1 1 0 0 1 16 1c0 2.6-.4 4.4-1.2 5.5 2 .8 3.2 2.6 3.2 5 0 3.8-2.6 7.5-5.7 7.5l-1-.2-.8-.2-.4-.1h-.4l-.8.3-1.2.2C4.6 19 2 15.3 2 11.6 2 8 4.4 6 7.7 6h.1c-.4-.6-1-1-2-1.5a1 1 0 1 1 1-1.8c1 .5 1.7 1 2.3 1.7.2-.9.6-1.6 1.2-2.2A9 9 0 0 1 14.8 0Zm-2.5 8-.6.2-.3.2a3 3 0 0 1-1.3.3h-.5c-.3 0-.4-.1-.8-.3l-.4-.2H8L7.7 8C5.4 8 4 9.3 4 11.6 4 14.3 5.9 17 7.7 17l.5-.1 1-.3.7-.2h.2l.8.2 1 .3h.3l.1.1c1.8 0 3.7-2.7 3.7-5.4C16 9.3 14.6 8 12.3 8ZM14 2.3h-.2c-1 .4-1.6.8-2.1 1.3s-.8 1.4-.8 2.6v.3l.3-.1c1-.3 1.6-.6 2-1v-.1c.4-.5.7-1.4.8-2.8v-.2Z"/>
</svg>
