<svg width="21" height="21" viewBox="0 0 21 21" xmlns="http://www.w3.org/2000/svg" xmlns:xlink="http://www.w3.org/1999/xlink">
    <defs>
        <filter x="-2.8%" y="-4.5%" width="105.6%" height="118.2%" filterUnits="objectBoundingBox" id="dc6gdehn8a">
            <feOffset dy="1" in="SourceAlpha" result="shadowOffsetOuter1"/>
            <feColorMatrix values="0 0 0 0 1 0 0 0 0 1 0 0 0 0 1 0 0 0 1 0" in="shadowOffsetOuter1"/>
        </filter>
        <path d="M15.5 4.5h-12a3 3 0 0 0-3 3v5a3 3 0 0 0 3 3h12a3 3 0 0 0 3-3v-5a3 3 0 0 0-3-3zm0 2a1 1 0 0 1 1 1v5a1 1 0 0 1-1 1h-12a1 1 0 0 1-1-1v-5a1 1 0 0 1 1-1h12z" id="e0l1dwekxb"/>
    </defs>
    <g transform="rotate(90 10 10.5)" fill-rule="nonzero" fill="none">
        <use fill="#000" filter="url(#dc6gdehn8a)" xlink:href="#e0l1dwekxb"/>
        <use fill="#6D6D6D" xlink:href="#e0l1dwekxb"/>
    </g>
</svg>
