<svg xmlns="http://www.w3.org/2000/svg" viewBox="0 0 20 20">
  <path d="M10 0A10 10 0 1 1 .5 13.2H.4v-.3A10 10 0 0 1 10 0ZM6.8 7.6l-.2.1-.7.4.1 2.2v.7l-.2 2.5V17a8 8 0 0 0 5.8 1A15.6 15.6 0 0 1 6.8 7.5ZM9.9 7l-1.1.2a13.2 13.2 0 0 0 5 10 8 8 0 0 0 2.9-2.7c-.5-.6-1.1-1.1-2.2-1.9l-.7-.5c-2.6-1.9-3.7-3-3.9-5ZM4 9.6l-.1.2a6 6 0 0 0-1.4 3A8 8 0 0 0 3.8 15v-1.7l.2-2.4V9.6Zm8-2.5c.2 1 1 1.8 2.5 3l1 .6c.9.7 1.6 1.2 2.1 1.8A8 8 0 0 0 18 10h.1A11.4 11.4 0 0 0 12 7Zm-9.2-.6-.1.2A8 8 0 0 0 2.1 9a9 9 0 0 1 1.5-1.7V7c-.2-.2-.4-.4-.8-.5Zm11.8-3A6 6 0 0 0 12.4 5c1.7.3 3.4 1 5 1.9a8 8 0 0 0-2.6-3.4l-.3-.2Zm-7.4-1a8 8 0 0 0-3.3 2.3c.6.2 1 .6 1.3 1.1l.1.2 1.4-.6c0-1 .2-2 .5-3ZM10 2h-.6l-.6 3h1.5a7 7 0 0 1 2.2-2.6A8 8 0 0 0 10 2Z"/>
</svg>
