<svg xmlns="http://www.w3.org/2000/svg" viewBox="0 0 20 20">
  <defs/>
  <path d="M10 3c1.86 0 3.71.27 5.56.82A2 2 0 0117 5.57l.01.16v3.29l2.12.48a1 1 0 01.22.07l.1.06a1 1 0 01.37 1.27l-.06.1-.95 1.52a1 1 0 00-.1.86l.05.12 1.13 2.23a1 1 0 01-.96 1.45l-.12-.01-5.48-1.02a1 1 0 01-.81-.86l-.01-.12v-.99a17.17 17.17 0 00-5.01 0v.99a1 1 0 01-.82.98l-5.49 1.02a1 1 0 01-1.07-1.44l1.12-2.23a1 1 0 00-.04-.98l-.95-1.51A1 1 0 01.86 9.5L3 9.02V5.73a2 2 0 011.28-1.86l.16-.05A19.4 19.4 0 0110 3zm0 2c-1.48 0-2.96.2-4.44.58L5 5.73v6.93l.55-.14c1.11-.26 2.23-.42 3.34-.49l.55-.02L10 12c1.48 0 2.97.17 4.45.52l.55.14V5.73l-.56-.15A17.54 17.54 0 0010 5zm2 2a1 1 0 010 2H8a1 1 0 110-2h4z"/>
</svg>
