<svg xmlns="http://www.w3.org/2000/svg" viewBox="0 0 20 20">
  <path d="M19,10.0773467 C19,14.3058824 16.1693367,16.8061327 14.1859199,17.9331039 C12.8826658,18.6735294 11.9854819,19 10.8173967,19 C8.10387985,19 6.97052566,17.3404255 6.97052566,15.8954318 C7.04524406,10.6570713 6.90894869,8.61846058 6.90350438,8.47803504 C6.89637046,8.29536921 6.88961202,8.00944931 6.71239049,7.99048811 C6.60463079,7.97884856 6.53516896,8.01188986 6.41126408,8.16658323 C6.22559449,8.41420526 5.8508761,8.51220275 5.62277847,8.37984981 C5.34737171,8.21989987 5.29593242,7.86677096 5.43541927,7.54180225 C5.82215269,6.67540676 6.4422403,6.29205257 7.27803504,6.30406758 C8.72190238,6.3247184 9.13623279,7.2712766 9.13623279,8.45381727 C9.11483104,9.64818523 9.10413016,10.5652691 9.10413016,11.2046934 C9.61476846,10.7869837 10.3653317,10.3388611 11.618836,10.3388611 C13.3503129,10.3388611 14.8428035,11.6147059 14.8428035,13.9698373 C14.8428035,15.3534418 14.481602,16.0640175 14.4789737,16.070776 C16.2309136,14.5422403 17.2015019,12.1458073 17.2015019,10.1610763 C17.2015019,6.91270338 14.6779725,3.08028786 9.95888611,3.08028786 C6.08197747,3.08028786 2.6402378,6.34180225 2.6402378,10.2179599 C2.6402378,12.3761577 3.76232791,14.536796 5.38548185,15.9639549 C5.80375469,16.3317272 5.82234043,16.8566333 5.59724656,17.0745932 C5.33047559,17.3332916 4.86470588,17.3608886 4.4738423,17.059199 C2.4436796,15.4925532 1,12.8849186 1,10.1858573 C1,4.98053817 4.99968711,1 9.95888611,1 C14.7209637,1 19,4.79374218 19,10.0773467 Z M12.7583855,14.2270338 C12.7583855,12.7771589 12.0205882,12.2706508 10.9129537,12.4921777 C10.0225282,12.6703379 9.12027534,13.5984981 9.02265332,14.8886108 C9.00650814,15.1015019 9.00106383,15.4542553 9.01795995,15.7854193 C9.06301627,16.6683354 9.79987484,16.9931164 10.8100751,16.9752816 C12.4863579,16.945995 12.7583855,15.206821 12.7583855,14.2270338 Z"/>
</svg>
