<svg xmlns="http://www.w3.org/2000/svg" viewBox="0 0 20 20">
      <path d="M17 4.6a3 3 0 0 1 3 2.8v8.2a3 3 0 0 1-2.8 3H3a3 3 0 0 1-3-2.8V7.6a3 3 0 0 1 2.8-3H3a1 1 0 0 1 .1 2H3a1 1 0 0 0-1 .9v2.1c0 .5.4 1 .9 1H17c.5 0 1-.4 1-.9V7.6c0-.5-.4-1-.9-1H17a1 1 0 0 1-.1-2h.1Zm-9 8H3a1 1 0 0 0-1 .9v2.1c0 .5.4 1 .9 1H8c.5 0 1-.4 1-.9v-2.1c0-.5-.4-1-.9-1H8Zm9 0h-5a1 1 0 0 0-1 .9v2.1c0 .5.4 1 .9 1H17c.5 0 1-.4 1-.9v-2.1c0-.5-.4-1-.9-1H17ZM10 0l.8 1C12.3 2.8 13 4.2 13 5.2a3 3 0 0 1-6 0c0-1 .7-2.3 2-4l.2-.2.8-1Zm0 3.3c-.7.9-1 1.6-1 1.9a1 1 0 1 0 2 0c0-.3-.3-1-1-2Z"/>
</svg>
