<svg xmlns="http://www.w3.org/2000/svg" viewBox="0 0 20 20">
  <path d="M14,1 C14.5522847,1 15,1.44771525 15,2 L15,3 L16,3 C17.6568542,3 19,4.34314575 19,6 L19,16 C19,17.6568542 17.6568542,19 16,19 L4,19 C2.34314575,19 1,17.6568542 1,16 L1,6 C1,4.34314575 2.34314575,3 4,3 L5,3 L5,2 C5,1.44771525 5.44771525,1 6,1 C6.55228475,1 7,1.44771525 7,2 L7,3 L9,3 L9,2 C9,1.44771525 9.44771525,1 10,1 C10.5522847,1 11,1.44771525 11,2 L11,3 L13,3 L13,2 C13,1.44771525 13.4477153,1 14,1 Z M17,10 L3,10 L3,16 C3,16.5522847 3.44771525,17 4,17 L16,17 C16.5522847,17 17,16.5522847 17,16 L17,10 Z M7,12 C7.55228475,12 8,12.4477153 8,13 L8,14 C8,14.5128358 7.61395981,14.9355072 7.11662113,14.9932723 L7,15 L6,15 C5.44771525,15 5,14.5522847 5,14 L5,13 C5,12.4477153 5.44771525,12 6,12 L7,12 Z M5,5 L4,5 C3.44771525,5 3,5.44771525 3,6 L3,8 L17,7.999 L17,6 C17,5.44771525 16.5522847,5 16,5 L15,5 L15,6 C15,6.55228475 14.5522847,7 14,7 C13.4477153,7 13,6.55228475 13,6 L13,5 L11,5 L11,6 C11,6.55228475 10.5522847,7 10,7 C9.44771525,7 9,6.55228475 9,6 L9,5 L7,5 L7,6 C7,6.55228475 6.55228475,7 6,7 C5.44771525,7 5,6.55228475 5,6 L5,5 Z"/>
</svg>
