<svg xmlns="http://www.w3.org/2000/svg" viewBox="0 0 20 20">
  <defs/>
  <path d="M4.5 17a1.5 1.5 0 110 3 1.5 1.5 0 010-3zm5.5 0a1.5 1.5 0 110 3 1.5 1.5 0 010-3zm5.5 0a1.5 1.5 0 110 3 1.5 1.5 0 010-3zM17 0a3 3 0 013 2.82V12a3 3 0 01-2.82 3H3a3 3 0 01-3-2.82V3a3 3 0 012.82-3H17zm0 2H3a1 1 0 00-1 .88V12a1 1 0 00.88 1H17a1 1 0 001-.88V3a1 1 0 00-.88-1H17zM7.87 4.62a1 1 0 01.45.39l2.28 3.7a1 1 0 001.3.37l1.55-.77a1 1 0 011.32.42l.43.8a1 1 0 01-.88 1.47h-8.8a1 1 0 01-.91-1.4l1.94-4.47a1 1 0 011.32-.51zm5.38-1.12a1.25 1.25 0 110 2.5 1.25 1.25 0 010-2.5z"/>
</svg>
