<svg xmlns="http://www.w3.org/2000/svg" viewBox="0 0 20 20">
  <path d="M17.6796093,1.17587633 C18.4110671,1.56479931 18.6887464,2.47304733 18.2998234,3.20450507 L15.8860024,7.74576871 C16.7321212,8.6507872 17.1266804,9.91982694 16.8985547,11.1841332 C16.6929093,12.3202043 16.2731021,13.5507474 15.642761,14.879614 C14.7413142,16.780018 13.9335102,18.1705967 13.1957867,19.0717979 C12.7100329,19.6588847 11.933228,19.9202388 11.1899981,19.7444508 C9.08585541,19.2432194 7.26546109,18.4561255 5.73486576,17.3792304 C4.10029003,16.2291769 2.7219932,14.9525186 1.60299723,13.5488399 C1.15186349,12.9829336 1.4326447,12.1400502 2.13302545,11.9577363 C4.00744377,11.4698124 5.44263348,10.8798342 6.43345658,10.2035306 C7.15724526,9.70949605 8.16475606,8.77493351 9.42953444,7.41330532 C10.4282435,6.33293858 11.9120362,5.91184771 13.2879207,6.23940346 L15.6509806,1.79609038 C16.0399036,1.06463264 16.9481516,0.786953355 17.6796093,1.17587633 Z M9.14185486,10.5505169 C8.54795493,11.1061924 8.02221676,11.5405804 7.56097497,11.855409 C6.70025657,12.4429074 5.61777451,12.9546584 4.31165637,13.3963942 L4.17093744,13.4416644 L4.47931452,13.7531006 C4.74405609,14.0127507 5.02080941,14.2672933 5.30960769,14.5167239 L5.60718555,14.3915356 C5.99354827,14.2346446 6.48549654,14.0513767 6.7514999,13.9630682 L7.06111403,13.8716545 C7.30685365,13.8049773 7.65857425,13.7174726 8.11627584,13.6091405 L7.49845082,14.9382327 C7.3570318,15.1030814 7.1378958,15.5456612 6.91295951,15.7651527 L6.8857164,15.7435217 C7.37184053,16.0855486 7.89533153,16.3949574 8.45644854,16.6715676 L8.7306333,16.4609317 C8.87080762,16.3498014 9.00584123,16.233927 9.07921143,16.1457697 L9.74988749,15.6434199 L9.79592707,15.595966 C9.96637425,15.437367 10.551933,14.9790356 11.5526033,14.2209718 C11.5253313,15.2278862 11.357095,15.9763746 11.0478941,16.466437 C10.8244394,16.8205974 10.5544994,17.1969469 10.3729438,17.4405208 C10.7833152,17.5743002 11.2097907,17.6932047 11.6518929,17.798519 C12.2630181,17.0538651 12.9978364,15.7889261 13.8357475,14.0224664 C13.9186436,13.8477073 13.9972441,13.6754252 14.0715605,13.5056343 L9.14185486,10.5505169 Z M10.896532,8.7726847 L10.5972786,9.09211606 L14.7590413,11.586469 C14.8289948,11.3260463 14.8861066,11.0733465 14.9304374,10.8284452 C15.0802241,9.99830463 14.6925651,9.16445246 13.9603636,8.74419753 L13.3579141,8.39695031 C12.5498728,7.93278582 11.5295011,8.08796633 10.896532,8.7726847 Z M2,7.8991405 C2.55228475,7.8991405 3,8.34685575 3,8.8991405 C3,9.45142525 2.55228475,9.8991405 2,9.8991405 C1.44771525,9.8991405 1,9.45142525 1,8.8991405 C1,8.34685575 1.44771525,7.8991405 2,7.8991405 Z M4,3.8991405 C4.55228475,3.8991405 5,4.34685575 5,4.8991405 C5,5.45142525 4.55228475,5.8991405 4,5.8991405 C3.44771525,5.8991405 3,5.45142525 3,4.8991405 C3,4.34685575 3.44771525,3.8991405 4,3.8991405 Z"/>
</svg>
