<svg width="20" height="20" xmlns="http://www.w3.org/2000/svg" xmlns:xlink="http://www.w3.org/1999/xlink">
  <defs/>
  <path d="M10.93 3.271a1 1 0 0 1 .685 1.237L8.307 16.043a1 1 0 1 1-1.922-.551L9.693 3.957a1 1 0 0 1 1.236-.686zm5.676 2.934.095.082 2.284 2.245a2 2 0 0 1 .14 2.7l-.132.144-2.288 2.277a1 1 0 0 1-1.494-1.324l.084-.094 2.287-2.277L15.3 7.713a1 1 0 0 1 1.307-1.508zm-13.63 0A1 1 0 0 1 4.367 7.62l-.083.093L2 9.958l2.288 2.277.083.094a1 1 0 0 1-1.4 1.407l-.094-.083-2.288-2.277-.13-.144a2 2 0 0 1 .02-2.574l.119-.126L2.88 6.287l.095-.082z" id="b"/>
</svg>
