<svg xmlns="http://www.w3.org/2000/svg" viewBox="0 0 20 20">
      <path d="M2,13 C2.51283584,13 2.93550716,13.3860402 2.99327227,13.8833789 L3,14 L3,15 C3,16.0543618 3.81587779,16.9181651 4.85073766,16.9945143 L5,17 L8,17 C8.55228475,17 9,17.4477153 9,18 C9,18.5128358 8.61395981,18.9355072 8.11662113,18.9932723 L8,19 L5,19 C2.85780461,19 1.10892112,17.3160315 1.00489531,15.1996403 L1,15 L1,14 C1,13.4477153 1.44771525,13 2,13 Z M18,13 C18.5128358,13 18.9355072,13.3860402 18.9932723,13.8833789 L19,14 L19,15 C19,17.1421954 17.3160315,18.8910789 15.1996403,18.9951047 L15,19 L12,19 C11.4477153,19 11,18.5522847 11,18 C11,17.4871642 11.3860402,17.0644928 11.8833789,17.0067277 L12,17 L15,17 C16.0543618,17 16.9181651,16.1841222 16.9945143,15.1492623 L17,15 L17,14 C17,13.4477153 17.4477153,13 18,13 Z M15.2912324,6.29462442 C15.6508338,6.65598878 15.6771763,7.22328595 15.371193,7.61483011 L15.2877743,7.70883375 L14.047,8.94371122 L18,8.94371122 C18.5522847,8.94371122 19,9.39142647 19,9.94371122 C19,10.4565471 18.6139598,10.8792184 18.1166211,10.9369835 L18,10.9437112 L13.974,10.9437112 L15.2835008,12.2306501 C15.6773135,12.6178581 15.6826676,13.2510005 15.2954596,13.6448131 C14.9380368,14.0083325 14.3710605,14.0408576 13.976204,13.7391609 L13.8812966,13.6567719 L11.5977962,11.4115682 C10.8516249,10.6779109 10.802742,9.50279811 11.4581258,8.71144037 L11.5892492,8.56777895 L13.8770231,6.29116629 C14.2685012,5.9015981 14.9016642,5.90314636 15.2912324,6.29462442 Z M4.70876757,6.29462442 C5.06836897,5.93326005 5.63553052,5.90414357 6.02856643,6.20820829 L6.1229769,6.29116629 L8.41075075,8.56777895 L8.54187415,8.71144037 C9.16084781,9.45883379 9.15163289,10.5485273 8.5201081,11.2853459 L8.40220378,11.4115682 L6.11870341,13.6567719 L6.02379599,13.7391609 C5.62893948,14.0408576 5.06196319,14.0083325 4.70454041,13.6448131 C4.34711764,13.2812937 4.32418567,12.7138485 4.63251692,12.3241506 L4.71649919,12.2306501 L6.026,10.9437112 L2,10.9437112 L1.88337887,10.9369835 C1.38604019,10.8792184 1,10.4565471 1,9.94371122 C1,9.43087538 1.38604019,9.00820406 1.88337887,8.95043895 L2,8.94371122 L5.953,8.94371122 L4.7122257,7.70883375 L4.62880698,7.61483011 C4.32282374,7.22328595 4.34916616,6.65598878 4.70876757,6.29462442 Z M8,1 C8.55228475,1 9,1.44771525 9,2 C9,2.51283584 8.61395981,2.93550716 8.11662113,2.99327227 L8,3 L5,3 C3.9456382,3 3.08183488,3.81587779 3.00548574,4.85073766 L3,5 L3,6.00276813 C3,6.55505288 2.55228475,7.00276813 2,7.00276813 C1.48716416,7.00276813 1.06449284,6.61672794 1.00672773,6.11938926 L1,6.00276813 L1,5 C1,2.85780461 2.68396847,1.10892112 4.80035966,1.00489531 L5,1 L8,1 Z M15,1 C17.1421954,1 18.8910789,2.68396847 18.9951047,4.80035966 L19,5 L19,6 C19,6.55228475 18.5522847,7 18,7 C17.4871642,7 17.0644928,6.61395981 17.0067277,6.11662113 L17,6 L17,5 C17,3.9456382 16.1841222,3.08183488 15.1492623,3.00548574 L15,3 L12,3 C11.4477153,3 11,2.55228475 11,2 C11,1.48716416 11.3860402,1.06449284 11.8833789,1.00672773 L12,1 L15,1 Z"/>
</svg>
