<svg xmlns="http://www.w3.org/2000/svg" viewBox="0 0 20 20">
  <path d="M4.5,17 C5.32842712,17 6,17.6715729 6,18.5 C6,19.3284271 5.32842712,20 4.5,20 C3.67157288,20 3,19.3284271 3,18.5 C3,17.6715729 3.67157288,17 4.5,17 Z M16,1 C18.209139,1 20,2.790861 20,5 L20,11 L19.9951047,11.1996403 C19.8910789,13.3160315 18.1421954,15 16,15 L13.666,15 L10.2,17.6 L10.0748182,17.6870892 C8.76576945,18.5293659 7,17.5965878 7,16 L7,15 L4,15 C1.790861,15 0,13.209139 0,11 L0,5 C0,2.790861 1.790861,1 4,1 L16,1 Z M16,3 L4,3 C2.8954305,3 2,3.8954305 2,5 L2,11 C2,12.1045695 2.8954305,13 4,13 L8,13 C8.55228475,13 9,13.4477153 9,14 L9,16 L12.7333333,13.2 C12.9064295,13.0701779 13.1169631,13 13.3333333,13 L16,13 C17.1045695,13 18,12.1045695 18,11 L18,5 C18,3.8954305 17.1045695,3 16,3 Z M13,9 C13.5522847,9 14,9.44771525 14,10 C14,10.5522847 13.5522847,11 13,11 L5,11 C4.44771525,11 4,10.5522847 4,10 C4,9.44771525 4.44771525,9 5,9 L13,9 Z M15,5 C15.5522847,5 16,5.44771525 16,6 C16,6.55228475 15.5522847,7 15,7 L5,7 C4.44771525,7 4,6.55228475 4,6 C4,5.44771525 4.44771525,5 5,5 L15,5 Z"/>
</svg>
