<svg xmlns="http://www.w3.org/2000/svg" viewBox="0 0 20 20">
  <path d="M10 0c4.69 0 8.59 1.38 8.97 3.68l.02.16L19 4v12c0 2.48-4.06 4-9 4-4.69 0-8.59-1.38-8.97-3.68L1 16.16V3.95l.01-.16C1.24 1.44 5.21 0 10 0Zm7 12.62c-1.65.88-4.18 1.38-7 1.38-2.82 0-5.35-.5-7-1.38v3.39c.03.3.63.79 1.78 1.2 1.37.5 3.23.79 5.22.79.83 0 1.63-.05 2.37-.14l.43-.06.5-.09c.53-.1 1.01-.2 1.44-.33l.32-.1.36-.12c.92-.34 1.5-.74 1.57-1.09L17 16v-3.38Zm-3 1.88a1 1 0 1 1 0 2 1 1 0 0 1 0-2Zm3-7.88C15.35 7.5 12.82 8 10 8c-2.81 0-5.34-.5-7-1.38V10c0 .36.59.8 1.58 1.16l.36.12c.51.17 1.1.32 1.75.43l.5.09a19.09 19.09 0 0 0 5.61 0l.5-.09c.66-.11 1.25-.26 1.76-.43l.36-.12c.93-.35 1.5-.75 1.57-1.1L17 10V6.62ZM14 8.5a1 1 0 1 1 0 2 1 1 0 0 1 0-2ZM10 2c-2 0-3.85.29-5.22.78-1.08.4-1.67.85-1.76 1.1L3 3.95V4c0 .36.59.8 1.58 1.16l.36.12c.51.17 1.1.32 1.75.43l.5.09a19.09 19.09 0 0 0 5.61 0l.5-.09c.66-.11 1.25-.26 1.76-.43l.36-.12c.93-.35 1.5-.75 1.57-1.1L17 4c-.03-.28-.56-.73-1.57-1.13l-.21-.08A15.58 15.58 0 0 0 10 2Z"/>
</svg>
