<svg xmlns="http://www.w3.org/2000/svg" viewBox="0 0 20 20">
  <path d="M8,3 L18,3 C18.5522847,3 19,3.44771525 19,4 C19,4.55228475 18.5522847,5 18,5 L8,5 C7.44771525,5 7,4.55228475 7,4 C7,3.44771525 7.44771525,3 8,3 Z M5.29123243,6.29462442 C4.93163103,5.93326005 4.36446948,5.90414357 3.97143357,6.20820829 L3.8770231,6.29116629 L1.58924925,8.56777895 L1.45812585,8.71144037 C0.839152191,9.45883379 0.848367109,10.5485273 1.4798919,11.2853459 L1.59779622,11.4115682 L3.88129659,13.6567719 L3.97620401,13.7391609 C4.37106052,14.0408576 4.93803681,14.0083325 5.29545959,13.6448131 C5.65288236,13.2812937 5.67581433,12.7138485 5.36748308,12.3241506 L5.28350081,12.2306501 L3.974,10.9437112 L8,10.9437112 L8.11662113,10.9369835 C8.61395981,10.8792184 9,10.4565471 9,9.94371122 C9,9.43087538 8.61395981,9.00820406 8.11662113,8.95043895 L8,8.94371122 L4.047,8.94371122 L5.2877743,7.70883375 L5.37119302,7.61483011 C5.67717626,7.22328595 5.65083384,6.65598878 5.29123243,6.29462442 Z M12,7 L18,7 C18.5522847,7 19,7.44771525 19,8 C19,8.55228475 18.5522847,9 18,9 L12,9 C11.4477153,9 11,8.55228475 11,8 C11,7.44771525 11.4477153,7 12,7 Z M12,11 L18,11 C18.5522847,11 19,11.4477153 19,12 C19,12.5522847 18.5522847,13 18,13 L12,13 C11.4477153,13 11,12.5522847 11,12 C11,11.4477153 11.4477153,11 12,11 Z M8,15 L18,15 C18.5522847,15 19,15.4477153 19,16 C19,16.5522847 18.5522847,17 18,17 L8,17 C7.44771525,17 7,16.5522847 7,16 C7,15.4477153 7.44771525,15 8,15 Z"/>
</svg>
