<svg xmlns="http://www.w3.org/2000/svg" viewBox="0 0 20 20">
  <defs/>
  <path d="M15.97 7h.12a1 1 0 01.91.97v.12l-.76 8.27A4 4 0 0112.47 20l-.21.01H7.74a4 4 0 01-3.96-3.43l-.02-.2L3 8.08a1 1 0 011.98-.3l.02.12.75 8.27A2 2 0 007.59 18l.15.01h4.52a2 2 0 001.97-1.67l.02-.15.75-8.27a1 1 0 01.97-.91zM8 9a1 1 0 011 .88V15a1 1 0 01-2 .12V10a1 1 0 011-1zm4 0a1 1 0 011 .88V15a1 1 0 01-2 .12V10a1 1 0 011-1zM3 6a1 1 0 01-.12-2h3.35l.43-1.7A3 3 0 019.4.02h1.05a3 3 0 012.86 2.1l.05.16.43 1.71H17a1 1 0 01.12 2H3zm7.44-3.97h-.87a1 1 0 00-.93.64l-.04.11L8.3 4h3.42l-.3-1.22a1 1 0 00-.75-.73l-.12-.02h-.1z"/>
</svg>
