<svg xmlns="http://www.w3.org/2000/svg" viewBox="0 0 20 20">
  <path d="M12.8284271,13.1715729 C13.1910568,13.5342026 13.2169589,14.106048 12.9061335,14.4985656 L12.8284271,14.5857864 L11.4142136,16 L12.8284271,17.4142136 C13.2189514,17.8047379 13.2189514,18.4379028 12.8284271,18.8284271 C12.4657974,19.1910568 11.893952,19.2169589 11.5014344,18.9061335 L11.4142136,18.8284271 L10,17.4142136 L8.58578644,18.8284271 C8.19526215,19.2189514 7.56209717,19.2189514 7.17157288,18.8284271 C6.80894318,18.4657974 6.78304105,17.893952 7.09386651,17.5014344 L7.17157288,17.4142136 L8.58649354,15.9992929 L7.17157288,14.5857864 C6.78104858,14.1952621 6.78104858,13.5620972 7.17157288,13.1715729 C7.53420257,12.8089432 8.10604797,12.7830411 8.49856562,13.0938665 L8.58578644,13.1715729 L10.0007071,14.5850793 L11.4142136,13.1715729 C11.8047379,12.7810486 12.4379028,12.7810486 12.8284271,13.1715729 Z M17,2 C18.5976809,2 19.9036609,3.24891996 19.9949073,4.82372721 L20,5 L20,13 C20,14.5976809 18.75108,15.9036609 17.1762728,15.9949073 L17,16 C16.4477153,16 16,15.5522847 16,15 C16,14.4871642 16.3860402,14.0644928 16.8833789,14.0067277 L17,14 C17.5128358,14 17.9355072,13.6139598 17.9932723,13.1166211 L18,13 L18,11 C18,10.4871642 17.6139598,10.0644928 17.1166211,10.0067277 L17,10 L3,10 C2.48716416,10 2.06449284,10.3860402 2.00672773,10.8833789 L2,11 L2,13 C2,13.5128358 2.38604019,13.9355072 2.88337887,13.9932723 L3,14 C3.55228475,14 4,14.4477153 4,15 C4,15.5128358 3.61395981,15.9355072 3.11662113,15.9932723 L3,16 C1.40231912,16 0.0963391206,14.75108 0.00509269341,13.1762728 L0,13 L0,5 C0,3.40231912 1.24891996,2.09633912 2.82372721,2.00509269 L3,2 L17,2 Z M8,4 L3,4 C2.48716416,4 2.06449284,4.38604019 2.00672773,4.88337887 L2,5 L2,7 C2,7.51283584 2.38604019,7.93550716 2.88337887,7.99327227 L3,8 L17,8 C17.5128358,8 17.9355072,7.61395981 17.9932723,7.11662113 L18,7 L18,5 C18,4.48716416 17.6139598,4.06449284 17.1166211,4.00672773 L8,4 Z"/>
</svg>
