<svg xmlns="http://www.w3.org/2000/svg" viewBox="0 0 20 20">
  <path d="M16,17 C16,18.5976809 14.75108,19.9036609 13.1762728,19.9949073 L13,20 L5,20 C3.40231912,20 2.09633912,18.75108 2.00509269,17.1762728 L2,17 L2,3 C2,1.40231912 3.24891996,0.0963391206 4.82372721,0.00509269341 L5,0 L13,0 C14.5976809,0 15.9036609,1.24891996 15.9949073,2.82372721 L16,3 C16,3.55228475 15.5522847,4 15,4 C14.4871642,4 14.0644928,3.61395981 14.0067277,3.11662113 L14,3 C14,2.48716416 13.6139598,2.06449284 13.1166211,2.00672773 L13,2 L11,2 C10.4871642,2 10.0644928,2.38604019 10.0067277,2.88337887 L10,3 L10,17 C10,17.5128358 10.3860402,17.9355072 10.8833789,17.9932723 L11,18 L13,18 C13.5128358,18 13.9355072,17.6139598 13.9932723,17.1166211 L14,17 C14,16.4477153 14.4477153,16 15,16 C15.5128358,16 15.9355072,16.3860402 15.9932723,16.8833789 L16,17 Z M8,17 L8,3 C8,2.48716416 7.61395981,2.06449284 7.11662113,2.00672773 L7,2 L5,2 C4.48716416,2 4.06449284,2.38604019 4.00672773,2.88337887 L4,3 L4,17 C4,17.5128358 4.38604019,17.9355072 4.88337887,17.9932723 L5,18 L7,18 C7.51283584,18 7.93550716,17.6139598 7.99327227,17.1166211 L8,17 Z M18.8284271,12.8284271 C18.4657974,13.1910568 17.893952,13.2169589 17.5014344,12.9061335 L17.4142136,12.8284271 L16,11.4142136 L14.5857864,12.8284271 C14.1952621,13.2189514 13.5620972,13.2189514 13.1715729,12.8284271 C12.8089432,12.4657974 12.7830411,11.893952 13.0938665,11.5014344 L13.1715729,11.4142136 L14.5857864,10 L13.1715729,8.58578644 C12.7810486,8.19526215 12.7810486,7.56209717 13.1715729,7.17157288 C13.5342026,6.80894318 14.106048,6.78304105 14.4985656,7.09386651 L14.5857864,7.17157288 L16.0007071,8.58649354 L17.4142136,7.17157288 C17.8047379,6.78104858 18.4379028,6.78104858 18.8284271,7.17157288 C19.1910568,7.53420257 19.2169589,8.10604797 18.9061335,8.49856562 L18.8284271,8.58578644 L17.4149207,10.0007071 L18.8284271,11.4142136 C19.2189514,11.8047379 19.2189514,12.4379028 18.8284271,12.8284271 Z"/>
</svg>
