<svg xmlns="http://www.w3.org/2000/svg" viewBox="0 0 20 20">
  <defs/>
  <path d="M10 8a1 1 0 011 .88v8.19l1.24-1.27a1 1 0 011.51 1.31l-.08.1-2.25 2.28a2 2 0 01-2.7.14l-.14-.13L6.3 17.2a1 1 0 011.33-1.5l.1.09L9 17.09V9a1 1 0 011-1zM9 1a6 6 0 015.19 2.99l.04.07.2-.03.29-.02L15 4a5 5 0 01.45 9.98l-.23.01L15 14h-1a1 1 0 01-.12-2h1.27a3 3 0 10-.95-5.9l-.2.07a1 1 0 01-1.26-.6 4 4 0 00-7.72 1.04L5 6.8v.21a1 1 0 01-.86.97L4.03 8h-.15a2 2 0 00-.03 4H6a1 1 0 01.12 2H4a4 4 0 01-1-7.87l.06-.02.01-.03A6 6 0 018.77 1H9z"/>
</svg>
