<svg xmlns="http://www.w3.org/2000/svg" viewBox="0 0 20 20">
  <path d="M16.79 3.88a4 4 0 0 1 .14 5.51l-.14.15-6.36 6.36a1 1 0 0 1-.33.22l-.13.04-6.71 1.77A1 1 0 0 1 2 16.83l.02-.12L3.8 9.99a1 1 0 0 1 .17-.36l.1-.1 6.36-6.36a4 4 0 0 1 5.5-.14l.15.14.71.7ZM8.36 11.6c-.85-.86-2.1-1.26-2.43-1.1l-.04.03-.22.23-.72 2.73A1.5 1.5 0 0 1 6.48 15l2.72-.72.23-.22.03-.04c.16-.32-.24-1.58-1.1-2.43Zm7.02-6.3-.71-.71a2 2 0 0 0-2.72-.1l-.11.1-.2.2a6.2 6.2 0 0 1 3.54 3.53l.2-.2a2 2 0 0 0 .2-2.6l-.1-.12-.1-.1Z"/>
</svg>
