<svg xmlns="http://www.w3.org/2000/svg" viewBox="0 0 40 40">
  <path d="M35 31v2h-2v-2h2Zm-16 0v2h-2v-2h2Zm4 0v2h-2v-2h2Zm16 0v1c0 .6-.4 1-1 1h-1v-2h2Zm0-8v2h-2v-2h2ZM3 15v2H1v-2h2Zm36 0v2h-2v-2h2ZM3 11v2H1v-2h2Zm36 0v2h-2v-2h2ZM3 19v2H1v-2h2Zm36 0v2h-2v-2h2ZM3 27v2H1v-2h2Zm36 0v2h-2v-2h2ZM11 7v2H9V7h2Zm24 0v2h-2V7h2Zm-4 24v2h-2v-2h2Zm0-24v2h-2V7h2Zm-4 24v2h-2v-2h2ZM20 3.4c.6 0 1 .4 1 1v17.8l4.2-4.3a1 1 0 1 1 1.4 1.4l-5.2 5.3a2 2 0 0 1-2.7.1l-.1-.1-5.3-5.3a1 1 0 1 1 1.4-1.4l4.3 4.3V4.4c0-.6.4-1 1-1ZM27 7v2h-2V7h2ZM15 7v2h-2V7h2ZM3 7v2H1V8c0-.6.4-1 1-1h1ZM1 31h2v2H2a1 1 0 0 1-1-1v-1ZM38 7c.5 0 1 .4 1 .9V9h-2V7h1ZM3 23v2H1v-2h2Zm8 8v2H9v-2h2Zm4 0v2h-2v-2h2ZM7 7v2H5V7h2Zm0 24v2H5v-2h2Z"/>
</svg>
