<svg xmlns="http://www.w3.org/2000/svg" viewBox="0 0 20 20">
  <path d="M4.93 16.72c.38.14.77.23 1.17.26l.3.02h.23l.06 2h-.3a6.52 6.52 0 0 1-1.86-.3l-.3-.1.7-1.88Zm4.67-.96 1.38 1.45c-.49.47-1.05.85-1.66 1.15L9 18.5l-.78-1.85a4.5 4.5 0 0 0 1.17-.7l.2-.2Zm-7.1-1.2c.2.4.47.77.8 1.1l.2.19-1.34 1.49c-.5-.46-.94-.99-1.28-1.58l-.17-.3 1.78-.9Zm8.49-1.75 2 .14c-.05.69-.2 1.35-.46 1.98l-.14.31-1.8-.84c.18-.41.31-.85.37-1.31l.03-.28Zm6.06-6.53.1.08 2.28 2.24a2 2 0 0 1 .14 2.7l-.13.15-2.29 2.27a1 1 0 0 1-1.5-1.32l.09-.1 1.29-1.27H8.94a1 1 0 0 1-.12-2h8.19l-1.27-1.24a1 1 0 0 1 1.31-1.51ZM2 11.08v1.66l.02.24-1.98.2-.04-.45v-1.65h2ZM.02 6.97l2 .16L2 7.3v1.78H0V7.21l.02-.24Zm12.18-2.6c.33.6.56 1.25.69 1.92l.05.34-1.98.26c-.06-.45-.2-.9-.39-1.3l-.12-.25 1.75-.96ZM2.1 2.73 3.45 4.2a4.4 4.4 0 0 0-.85 1.07l-.13.24-1.8-.9c.31-.6.7-1.16 1.18-1.64l.25-.24Zm6.54-1.36c.65.23 1.25.55 1.8.96l.26.22-1.3 1.52a4.5 4.5 0 0 0-1.16-.71l-.26-.1.66-1.89ZM6.5 1v2c-.47 0-.92.07-1.35.2l-.26.1-.71-1.87c.63-.24 1.3-.39 1.98-.42L6.5 1Z"/>
</svg>
