<svg xmlns="http://www.w3.org/2000/svg" viewBox="0 0 20 20">
  <path d="M4.07 5.15a9.27 9.27 0 0 1 11.64-.19l.22.19 1.9 1.66.42.37c.64.6 1.03 1.06 1.3 1.57l.1.17.1.26.04.12c.25.71.28 1.45.07 2.17l-.07.24-.06.16-.1.24c-.24.5-.59.95-1.18 1.52l-.21.2-.41.37-1.9 1.65a9.27 9.27 0 0 1-11.64.19l-.22-.19-1.9-1.66-.42-.37a5.63 5.63 0 0 1-1.37-1.7l-.08-.18-.1-.24a3.59 3.59 0 0 1-.06-2.18l.08-.25.1-.24c.23-.55.58-1.04 1.24-1.67l.2-.2.41-.36 1.9-1.65Zm10.55 1.5a7.28 7.28 0 0 0-9.03-.17l-.2.18-1.9 1.64-.38.35c-.53.49-.78.79-.9 1.05l-.04.08-.08.18c-.1.31-.12.62-.05.9l.04.15.07.18c.12.28.33.57.8 1.01l.15.14.39.35 1.9 1.65a7.28 7.28 0 0 0 9.02.18l.2-.18 1.9-1.64.38-.35c.49-.45.74-.74.87-.98l.04-.08.07-.16.04-.09c.1-.31.12-.62.04-.92l-.04-.15-.02-.05-.07-.18a3.37 3.37 0 0 0-.77-.94l-.15-.14-.39-.35-1.9-1.65ZM10 6.5a4 4 0 1 1 0 8 4 4 0 0 1 0-8Zm0 2a2 2 0 1 0 0 4 2 2 0 0 0 0-4Z"/>
</svg>
