<svg xmlns="http://www.w3.org/2000/svg" viewBox="0 0 20 20">
  <path d="M17,11.4010024 L17.7803109,12.3746082 C19.253472,14.2126937 20,15.5564442 20,16.6 C20,18.2568542 18.6568542,19.6 17,19.6 C15.3431458,19.6 14,18.2568542 14,16.6 C14,15.608622 14.6737416,14.3463183 16.0041672,12.6466378 L16.2196891,12.3746082 L17,11.4010024 Z M17,14.656 C16.330078,15.6034813 16,16.2780974 16,16.6 C16,17.1522847 16.4477153,17.6 17,17.6 C17.5522847,17.6 18,17.1522847 18,16.6 C18,16.2780974 17.669922,15.6034813 17,14.656 Z M4.11289944,1.70970461 L4.20710678,1.79289322 L6.197349,3.783 L7.54894585,2.4229307 C8.29163049,1.67453362 9.47920531,1.6360782 10.2675492,2.31082114 L10.4036383,2.43863103 L16.4387201,8.65551451 C16.8234072,9.05179001 16.814013,9.68488529 16.4178169,10.0696519 L16.3297071,10.1456005 L7.56372335,16.8675161 C6.76040631,17.4835143 5.6234963,17.4021489 4.91598955,16.6781303 L0.580727606,12.2402814 C-0.182697689,11.4588257 -0.177809049,10.2093614 0.591707809,9.43390347 L4.788349,5.203 L2.79289322,3.20710678 C2.40236893,2.81658249 2.40236893,2.18341751 2.79289322,1.79289322 C3.15337718,1.43240926 3.72060824,1.40467972 4.11289944,1.70970461 Z M8.96859782,3.83170631 L7.612349,5.198 L8.44974747,6.03553391 C8.84027176,6.4260582 8.84027176,7.05922318 8.44974747,7.44974747 C8.08926351,7.81023143 7.52203245,7.83796097 7.12974124,7.53293607 L7.03553391,7.44974747 L6.203349,6.617 L2.452349,10.397 L14.077349,9.093 L8.96859782,3.83170631 Z"/>
</svg>
