<svg xmlns="http://www.w3.org/2000/svg" viewBox="0 0 20 20">
  <path d="M15 17v2h-2v-2h2Zm-4 0v2H9v-2h2Zm8 0v1a1 1 0 0 1-1 1h-1v-2h2Zm0-4v2h-2v-2h2Zm0-4v2h-2V9h2Zm-8-8v2H9V1h2Zm2.3 5.7a1 1 0 0 1-.09-1.31l.08-.1L15.6 3H14a1 1 0 0 1-.12-2H17a2 2 0 0 1 2 1.85V6a1 1 0 0 1-2 .12v-1.7L14.7 6.7a1 1 0 0 1-1.4 0ZM11.32 8c.35 0 .63.26.67.59v2.74c0 .35-.26.63-.59.67H8.67a.67.67 0 0 1-.67-.59V8.67c0-.35.26-.63.59-.67h2.74ZM6.7 13.3a1 1 0 0 1 .08 1.31l-.08.1L4.4 17H6a1 1 0 0 1 .12 2H3a2 2 0 0 1-2-1.85V14a1 1 0 0 1 2-.12v1.7l2.3-2.29a1 1 0 0 1 1.4 0ZM3 9v2H1V9h2Zm0-4v2H1V5h2Zm4-4v2H5V1h2ZM3 1v2H1V2a1 1 0 0 1 1-1h1Z"/>
</svg>
