<svg xmlns="http://www.w3.org/2000/svg" viewBox="0 0 20 20">
  <path d="M6.5 16.91c.12 0 .38 0 .77-.04 1-.08 1.6-.12 1.8-.12h.3c1.13 0 1.92.03 2.38.08a17.7 17.7 0 0 0 2.16.06l.03-.26a5 5 0 0 0-.05-.45 3.98 3.98 0 0 0-.54-.17l-.49-.1-.15-.04-.1-.02h-.02c-.3-.04-.5-.09-.6-.14a3.15 3.15 0 0 1-.13-1.06l.01-1.33-.04-3.26V7.05l-.01-1.37c0-.17.02-.4.06-.66a22.14 22.14 0 0 1 2.9.01c.1.03.2.09.28.17.05.06.18.34.4.85.2.5.4.89.57 1.15.21-.02.46-.07.74-.16.03-.13.04-.28.04-.46l.01-.52V4.54l-.02-1.53-.3-.01-.46.01-.11.26c-.1.26-.2.43-.29.49l-.6.1h-3.17l-2.32-.03-1.24.01-.2.03-1.4.01h-.2c-.73 0-1.13-.01-1.21-.04a3.6 3.6 0 0 1-.44-.65 8.3 8.3 0 0 0-.1-.16h-.64l-.24.79A20.12 20.12 0 0 1 3 6.49c.09.1.3.23.6.4.09 0 .21-.11.38-.33a6.09 6.09 0 0 1 1.33-1.4 3 3 0 0 1 1.29-.18c1.17 0 1.86.01 2.07.04a.2.2 0 0 1 .14.06c.04.03.06.07.08.13.04.23.06.88.06 1.94L9 11.03c0 1.79-.03 3.1-.07 3.92-.02.2-.06.38-.13.5-.27.15-.76.3-1.47.47-.42.1-.7.24-.85.44v.32l.03.23Z"/>
</svg>
