<svg xmlns="http://www.w3.org/2000/svg" viewBox="0 0 578 63">
  <path fill-rule="evenodd" d="M343.158292,19.4160297 C338.729287,15.3094811 333.344592,14.1985419 329.262684,14.1985419 C319.36221,14.1985419 312.935052,20.0142277 312.935052,31.732211 C312.935052,39.4291025 317.01696,48.9228978 329.262684,48.9228978 C332.475677,48.9228978 337.513274,48.323545 340.98659,45.8441412 L340.98659,38.1460948 L325.614647,38.1460948 L325.614647,24.889888 L355.317241,24.889888 L355.317241,51.4877584 C351.495656,59.1015028 340.899816,63.2068966 329.17591,63.2068966 C305.119506,63.2068966 296,47.3846743 296,31.732211 C296,16.0785928 306.422292,2.52242671e-13 329.262684,2.52242671e-13 C337.686823,2.52242671e-13 345.156445,1.71029203 353.146712,9.66470899 L343.158292,19.4160297 Z M363.096552,61.262069 L380.6,61.262069 L380.6,0.972413793 L363.096552,0.972413793 L363.096552,61.262069 Z M409.321726,30.6015029 L421.551107,30.6015029 C426.287275,30.6015029 428.698964,27.1570442 428.698964,23.1939399 C428.698964,19.2331613 426.201226,15.6142703 421.551107,15.6142703 L409.321726,15.6142703 L409.321726,30.6015029 Z M409.321726,44.9840365 L409.321726,61.262069 L392.268966,61.262069 L392.268966,0.972413793 L421.551107,0.972413793 C437.741055,0.972413793 445.751724,11.1371717 445.751724,22.9357799 C445.751724,35.2530338 437.655006,44.8119299 421.551107,44.9840365 L409.321726,44.9840365 Z M492.141284,61.262069 L492.141284,38.4381696 L470.519823,38.4381696 L470.519823,61.262069 L453.531034,61.262069 L453.531034,0.972413793 L470.519823,0.972413793 L470.519823,23.8823665 L492.141284,23.8823665 L492.141284,0.972413793 L508.958621,0.972413793 L508.958621,61.262069 L492.141284,61.262069 Z M546.140642,21.6438172 L559.004001,0.972413793 L578,0.972413793 L578,1.74805657 L554.31826,37.2322602 L554.31826,61.262069 L537.451203,61.262069 L537.451203,37.2322602 L514.793103,1.66084037 L514.793103,0.972413793 L533.789102,0.972413793 L546.140642,21.6438172 Z M-0.00830078125,17.1118164 L-0.00830078125,46 L4.47607422,46 L4.47607422,36.2705078 L11.1625977,36.2705078 C16.828125,36.2705078 20.8320312,32.3867188 20.8320312,26.7412109 C20.8320312,21.015625 16.9482422,17.1118164 11.3027344,17.1118164 L-0.00830078125,17.1118164 Z M4.47607422,21.0756836 L10.121582,21.0756836 C14.0654297,21.0756836 16.2475586,23.0776367 16.2475586,26.7412109 C16.2475586,30.324707 13.9853516,32.3266602 10.121582,32.3266602 L4.47607422,32.3266602 L4.47607422,21.0756836 Z M40.609668,16.4111328 C32.321582,16.4111328 27.1165039,22.2167969 27.1165039,31.5458984 C27.1165039,40.8549805 32.2214844,46.7006836 40.609668,46.7006836 C48.977832,46.7006836 54.062793,40.8349609 54.062793,31.5458984 C54.062793,22.2368164 48.937793,16.4111328 40.609668,16.4111328 Z M40.609668,20.5952148 C46.0950195,20.5952148 49.4783203,24.8393555 49.4783203,31.5458984 C49.4783203,38.2124023 46.0950195,42.5166016 40.609668,42.5166016 C35.0642578,42.5166016 31.7009766,38.2124023 31.7009766,31.5458984 C31.7009766,24.8393555 35.1643555,20.5952148 40.609668,20.5952148 Z M77.0835938,24.7993164 L77.3638672,24.7993164 L83.5699219,46 L87.794043,46 L95.6016602,17.1118164 L90.9371094,17.1118164 L85.6519531,39.2333984 L85.3716797,39.2333984 L79.3057617,17.1118164 L75.1416992,17.1118164 L69.1158203,39.2333984 L68.8355469,39.2333984 L63.5303711,17.1118164 L58.8658203,17.1118164 L66.653418,46 L70.8975586,46 L77.0835938,24.7993164 Z M121.044824,41.9160156 L107.191309,41.9160156 L107.191309,33.2475586 L120.304102,33.2475586 L120.304102,29.3637695 L107.191309,29.3637695 L107.191309,21.1958008 L121.044824,21.1958008 L121.044824,17.1118164 L102.706934,17.1118164 L102.706934,46 L121.044824,46 L121.044824,41.9160156 Z M133.695508,21.0556641 L140.02168,21.0556641 C143.485059,21.0556641 145.607129,22.9575195 145.607129,26.1005859 C145.607129,29.3237305 143.605176,31.1655273 140.141797,31.1655273 L133.695508,31.1655273 L133.695508,21.0556641 Z M133.695508,34.9892578 L140.02168,34.9892578 L145.907422,46 L151.09248,46 L144.606152,34.2485352 C148.12959,33.0473633 150.211621,29.8842773 150.211621,26.0004883 C150.211621,20.5751953 146.467969,17.1118164 140.642285,17.1118164 L129.211133,17.1118164 L129.211133,46 L133.695508,46 L133.695508,34.9892578 Z M176.635742,41.9160156 L162.782227,41.9160156 L162.782227,33.2475586 L175.89502,33.2475586 L175.89502,29.3637695 L162.782227,29.3637695 L162.782227,21.1958008 L176.635742,21.1958008 L176.635742,17.1118164 L158.297852,17.1118164 L158.297852,46 L176.635742,46 L176.635742,41.9160156 Z M184.802051,17.1118164 L184.802051,46 L195.232227,46 C203.840625,46 208.825488,40.6948242 208.825488,31.4658203 C208.825488,22.3769531 203.800586,17.1118164 195.232227,17.1118164 L184.802051,17.1118164 Z M189.286426,21.1958008 L194.731738,21.1958008 C200.717578,21.1958008 204.261035,24.9995117 204.261035,31.5258789 C204.261035,38.1523438 200.777637,41.9160156 194.731738,41.9160156 L189.286426,41.9160156 L189.286426,21.1958008 Z M241.353906,46 C247.519922,46 251.223535,42.8969727 251.223535,37.8120117 C251.223535,34.0483398 248.620996,31.265625 244.717187,30.8652344 L244.717187,30.5249023 C247.559961,30.0444336 249.782129,27.3417969 249.782129,24.3188477 C249.782129,19.8745117 246.518945,17.1118164 241.093652,17.1118164 L229.482324,17.1118164 L229.482324,46 L241.353906,46 Z M233.966699,20.9155273 L240.052637,20.9155273 C243.375879,20.9155273 245.317773,22.4770508 245.317773,25.1396484 C245.317773,27.8823242 243.255762,29.34375 239.291895,29.34375 L233.966699,29.34375 L233.966699,20.9155273 Z M233.966699,42.1962891 L233.966699,32.887207 L240.192773,32.887207 C244.416895,32.887207 246.639062,34.46875 246.639062,37.4916992 C246.639062,40.5546875 244.496973,42.1962891 240.453027,42.1962891 L233.966699,42.1962891 Z M270.320508,46 L270.320508,34.3486328 L280.510449,17.1118164 L275.525586,17.1118164 L268.258496,29.6240234 L267.918164,29.6240234 L260.651074,17.1118164 L255.666211,17.1118164 L265.836133,34.3486328 L265.836133,46 L270.320508,46 Z"/>
</svg>
