<svg xmlns="http://www.w3.org/2000/svg" viewBox="0 0 20 20">
  <defs/>
  <path d="M10 0a10 10 0 110 20 10 10 0 010-20zm0 2a8 8 0 100 16 8 8 0 000-16zm-.16 10.74h.04c.76.02 1.27.56 1.25 1.3a1.21 1.21 0 01-1.27 1.2H9.8a1.22 1.22 0 01-1.23-1.28c.02-.7.55-1.22 1.26-1.22zm.07-7.99c1 0 1.85.24 2.52.72a2.5 2.5 0 011.01 2.17c0 .53-.16 1.03-.5 1.49-.17.24-.55.55-1.03.92l-.52.36c-.3.23-.47.44-.53.65-.05.16-.08.2-.08.54v.08H8.77v-.17c.03-.7.04-1.11.33-1.45.37-.43 1.1-.94 1.39-1.13l.1-.07h.01c.15-.12.27-.24.36-.37.21-.3.3-.52.3-.74 0-.32-.09-.6-.27-.86-.18-.25-.51-.38-1-.38-.48 0-.8.16-1 .47-.2.32-.3.66-.3 1v.09H6.6v-.1c.06-1.26.51-2.18 1.35-2.71a3.56 3.56 0 011.95-.51z"/>
</svg>
