<svg xmlns="http://www.w3.org/2000/svg" viewBox="0 0 20 20">
  <defs/>
  <path d="M19 5a1 1 0 011 .88V13c0 .54-.14 1.04-.39 1.48l-.13.21-.14.18-.12.15-.12.13-.15.13-.07.06-.14.1-.18.12-.08.05-.19.1-.16.07-.12.05-.22.07-.13.03-.18.03-.12.02-.18.01L17 16h-5v2h2a1 1 0 010 2H6a1 1 0 010-2h2v-1.34a1 1 0 01.3-.71l1.65-1.66a1 1 0 01.7-.29H17a1 1 0 001-.88V6a1 1 0 011-1zm.7-4.7a1 1 0 01.09 1.31l-.08.1-18 18a1 1 0 01-1.5-1.32l.08-.1 18-18a1 1 0 011.42 0zM13 1a1 1 0 01.12 2H3a1 1 0 00-1 .88V13a1 1 0 01-2 .12V4a3 3 0 012.82-3H13z"/>
</svg>
