<svg xmlns="http://www.w3.org/2000/svg" viewBox="0 0 90 47">
  <defs/>
  <g fill="none" fill-rule="evenodd">
    <path stroke="#FFF" stroke-width="2" d="M83.59 1c1.95 0 2.67.17 3.38.55.64.34 1.14.84 1.48 1.48.38.71.55 1.43.55 3.38h0v17.18c0 1.95-.17 2.67-.55 3.38a3.56 3.56 0 01-1.48 1.48c-.71.38-1.43.55-3.38.55h0H6.41c-1.95 0-2.67-.17-3.38-.55a3.56 3.56 0 01-1.48-1.48C1.17 26.26 1 25.54 1 23.6h0V6.41c0-1.95.17-2.67.55-3.38.34-.64.84-1.14 1.48-1.48C3.74 1.17 4.46 1 6.4 1h0z"/>
    <path stroke="#FFF" stroke-linecap="round" stroke-width="4" d="M22 15h25m8 0h13"/>
    <path fill="#FFF" stroke="#414141" stroke-width="2" d="M44.44 20L66.43 32.1l-7.49 2.67 4.47 5.73-3.7 2.9-4.47-5.73-4.39 6.63L44.44 20z"/>
  </g>
</svg>
