<svg xmlns="http://www.w3.org/2000/svg" viewBox="0 0 20 20">
  <defs/>
  <path d="M16.61 4.24A8 8 0 015.3 15.56a1 1 0 011.41-1.42 6 6 0 10-1.75-4.57L6.23 8.3l.1-.08a1 1 0 011.4 1.4l-.08.1-2.27 2.28-.15.13a2 2 0 01-2.57-.02l-.13-.12L.3 9.7.2 9.6a1 1 0 011.42-1.39l.1.09 1.24 1.27a8 8 0 0113.65-5.32zM9.75 9.9l.01-.05.02-.11.47-3.35v-.1a.75.75 0 011.5 0v.1l.44 3.13 1.9 2.52.07.08a.75.75 0 01-1.05 1.05l-.08-.07-2.7-2.04-.06-.04a1.25 1.25 0 01-.06-.04l-.1-.09-.06-.07-.1-.12-.04-.08-.06-.11-.04-.13-.04-.15-.02-.12v-.21z"/>
</svg>
