<svg xmlns="http://www.w3.org/2000/svg" viewBox="0 0 20 20">
  <path d="M19,16 C19.5522847,16 20,16.4477153 20,17 L20,19 C20,19.5522847 19.5522847,20 19,20 L17,20 C16.4477153,20 16,19.5522847 16,19 L16,17 C16,16.4477153 16.4477153,16 17,16 L19,16 Z M3,16 C3.55228475,16 4,16.4477153 4,17 L4,19 C4,19.5522847 3.55228475,20 3,20 L1,20 C0.44771525,20 0,19.5522847 0,19 L0,17 C0,16.4477153 0.44771525,16 1,16 L3,16 Z M3,6 L3,11.246 L5.48347852,6.96331102 C5.82413018,6.18014115 6.73516752,5.82140926 7.51833739,6.16206092 C7.80758017,6.28787146 8.0514337,6.49912315 8.21718833,6.7674794 L11.7505082,11.4879139 C12.1703063,12.1675659 13.0902804,12.5772651 13.7541278,12.060208 L15.0282856,11.00857 C15.635354,10.3498695 16.433767,10.3498695 16.9902235,11.00857 L17,11.039 L17,6 L19,6 L19,14 L16.5,14 C15.1192881,14 14,15.1192881 14,16.5 L14,19 L6,19 L6,16.5 C6,15.1192881 4.88071187,14 3.5,14 L1,14 L1,6 L3,6 Z M13.25,6.5 C13.94,6.5 14.5,7.06 14.5,7.75 C14.5,8.44 13.94,9 13.25,9 C12.56,9 12,8.44 12,7.75 C12,7.06 12.56,6.5 13.25,6.5 Z M3,0 C3.55228475,0 4,0.44771525 4,1 L4,3 C4,3.55228475 3.55228475,4 3,4 L1,4 C0.44771525,4 0,3.55228475 0,3 L0,1 C0,0.44771525 0.44771525,0 1,0 L3,0 Z M19,0 C19.5522847,0 20,0.44771525 20,1 L20,3 C20,3.55228475 19.5522847,4 19,4 L17,4 C16.4477153,4 16,3.55228475 16,3 L16,1 C16,0.44771525 16.4477153,0 17,0 L19,0 Z M14,1 L14,3 L6,3 L6,1 L14,1 Z"/>
</svg>
