<svg xmlns="http://www.w3.org/2000/svg" viewBox="0 0 20 20">
  <path d="M8,3 L18,3 C18.5522847,3 19,3.44771525 19,4 C19,4.55228475 18.5522847,5 18,5 L8,5 C7.44771525,5 7,4.55228475 7,4 C7,3.44771525 7.44771525,3 8,3 Z M4.70876757,6.29462442 C5.06836897,5.93326005 5.63553052,5.90414357 6.02856643,6.20820829 L6.1229769,6.29116629 L8.41075075,8.56777895 L8.54187415,8.71144037 C9.16084781,9.45883379 9.15163289,10.5485273 8.5201081,11.2853459 L8.40220378,11.4115682 L6.11870341,13.6567719 L6.02379599,13.7391609 C5.62893948,14.0408576 5.06196319,14.0083325 4.70454041,13.6448131 C4.34711764,13.2812937 4.32418567,12.7138485 4.63251692,12.3241506 L4.71649919,12.2306501 L6.026,10.9437112 L2,10.9437112 L1.88337887,10.9369835 C1.38604019,10.8792184 1,10.4565471 1,9.94371122 C1,9.43087538 1.38604019,9.00820406 1.88337887,8.95043895 L2,8.94371122 L5.953,8.94371122 L4.7122257,7.70883375 L4.62880698,7.61483011 C4.32282374,7.22328595 4.34916616,6.65598878 4.70876757,6.29462442 Z M12,7 L18,7 C18.5522847,7 19,7.44771525 19,8 C19,8.55228475 18.5522847,9 18,9 L12,9 C11.4477153,9 11,8.55228475 11,8 C11,7.44771525 11.4477153,7 12,7 Z M12,11 L18,11 C18.5522847,11 19,11.4477153 19,12 C19,12.5522847 18.5522847,13 18,13 L12,13 C11.4477153,13 11,12.5522847 11,12 C11,11.4477153 11.4477153,11 12,11 Z M8,15 L18,15 C18.5522847,15 19,15.4477153 19,16 C19,16.5522847 18.5522847,17 18,17 L8,17 C7.44771525,17 7,16.5522847 7,16 C7,15.4477153 7.44771525,15 8,15 Z"/>
</svg>
