<svg xmlns="http://www.w3.org/2000/svg" viewBox="0 0 20 20">
  <path d="M10 0a10 10 0 1 1 0 20 10 10 0 0 1 0-20Zm0 2a8 8 0 1 0 0 16 8 8 0 0 0 0-16Zm-.63 6.06c.54 0 .96.13 1.25.4.3.26.44.6.44 1.02v.13l-.03.32c-.01.15-.03.29-.06.42l-.05.19-.56 1.99-.05.16a6.2 6.2 0 0 0-.13.85c0 .26.06.44.18.54.12.1.32.14.61.14.14 0 .3-.02.47-.07l.3-.1.07-.03-.15.62-.6.23-.33.12-.15.05c-.27.1-.58.14-.93.14-.55 0-.97-.13-1.28-.4a1.3 1.3 0 0 1-.45-1.01 3.6 3.6 0 0 1 .1-.85l.04-.2.56-2 .05-.19.08-.35c.03-.17.05-.33.05-.47 0-.26-.05-.43-.16-.53-.1-.1-.3-.15-.6-.15-.15 0-.3.02-.45.06l-.27.1-.12.03.15-.61.36-.14c.24-.1.47-.18.7-.25.34-.1.66-.16.96-.16Zm1.25-3.64c.37 0 .68.12.94.37.27.24.4.54.4.89 0 .34-.13.64-.4.88-.26.24-.57.37-.94.37s-.69-.13-.95-.37c-.27-.24-.4-.54-.4-.88 0-.35.13-.65.4-.9.26-.24.58-.36.95-.36Z"/>
</svg>
