<svg xmlns="http://www.w3.org/2000/svg" viewBox="0 0 20 20">
  <path d="M7,11 C10.3340996,11 13.5,13.210956 13.5,15.5687263 C13.5,17.4380805 12.2169162,17.9264337 9.28914449,17.9917078 L8.73861858,17.999127 L5.25597318,17.999127 L4.70632243,17.9917078 C1.78308384,17.9264337 0.5,17.4380805 0.5,15.5687263 C0.5,13.210956 3.66590038,11 7,11 Z M7,13 C4.64885575,13 2.5,14.500687 2.5,15.5687263 C2.5,15.7794637 3.04501652,15.9577383 4.79797821,15.9932793 L5.2617678,15.9991428 L8.73282396,15.9991428 L9.19776806,15.9932916 C10.9549835,15.9577383 11.5,15.7794637 11.5,15.5687263 C11.5,14.500687 9.35114425,13 7,13 Z M16,5 C16.5128358,5 16.9355072,5.38604019 16.9932723,5.88337887 L17,6 L17,8 L19,8 C19.5522847,8 20,8.44771525 20,9 C20,9.51283584 19.6139598,9.93550716 19.1166211,9.99327227 L19,10 L17,10 L17,12 C17,12.5522847 16.5522847,13 16,13 C15.4871642,13 15.0644928,12.6139598 15.0067277,12.1166211 L15,12 L15,9.999 L13,10 C12.4477153,10 12,9.55228475 12,9 C12,8.48716416 12.3860402,8.06449284 12.8833789,8.00672773 L13,8 L15,7.999 L15,6 C15,5.44771525 15.4477153,5 16,5 Z M7,3 C8.93299662,3 10.5,4.56700338 10.5,6.5 C10.5,8.43299662 8.93299662,10 7,10 C5.06700338,10 3.5,8.43299662 3.5,6.5 C3.5,4.56700338 5.06700338,3 7,3 Z M7,5 C6.17157288,5 5.5,5.67157288 5.5,6.5 C5.5,7.32842712 6.17157288,8 7,8 C7.82842712,8 8.5,7.32842712 8.5,6.5 C8.5,5.67157288 7.82842712,5 7,5 Z"/>
</svg>
