<svg xmlns="http://www.w3.org/2000/svg" viewBox="0 0 20 20">
  <path d="M10 0a7 7 0 0 1 7 7c0 2.2-.5 3.7-1.6 5.3l-.3.4-.6.8-.2.3a4 4 0 0 0-.4.6c-.2.5-.3 1.2-.3 2v.5a3 3 0 0 1-2.5 3h-.2l-.7.1H9a3 3 0 0 1-2.5-3v-.5c0-.9 0-1.6-.3-2a4 4 0 0 0-.4-.7l-.2-.3-.7-1-.2-.2A8.6 8.6 0 0 1 3 7a7 7 0 0 1 7-7Zm1.6 16H8.4v1c0 .5.3 1 .9 1h1.4c.6 0 1-.5 1-1v-1ZM10 2a5 5 0 0 0-5 5c0 1.8.5 3 1.4 4.4l.9 1.1v.2a6 6 0 0 1 .8 1.3H9v-3.2a3 3 0 0 1-2-2.6V8a1 1 0 0 1 2-.1V8a1 1 0 0 0 2 0 1 1 0 0 1 2 .1 3 3 0 0 1-2 2.8V14h1v-.4l.6-1 .1-.1.3-.3.5-.8.2-.3A6.6 6.6 0 0 0 15 7a5 5 0 0 0-5-5Z"/>
</svg>
