<svg xmlns="http://www.w3.org/2000/svg" viewBox="0 0 20 20">
  <defs/>
  <path d="M17 14a1 1 0 010 2H9a1 1 0 010-2h8zM1.85 10.88l3.04.01.17.01c.12.02.24.06.36.1.12.06.22.12.32.2l.12.1.15.14.1.13a1.56 1.56 0 01.3.68v.4a1.52 1.52 0 01-.28.68l-.11.13-.13.13-.12.1a1.56 1.56 0 01-.68.3H2.85L2.8 14l-.04.01-.04.02a.55.55 0 00-.08.04l-.15.13-.01.03-.05.08-.02.08v.1l.02.1.05.09.13.12.05.04.1.04h3.1l.1.02c.1.02.2.07.28.15.11.11.17.25.17.4a.55.55 0 01-.45.54l-.11.01H2.82l-.16-.01a1.48 1.48 0 01-.68-.28l-.13-.11-.15-.15-.1-.12a1.5 1.5 0 01-.29-.68l-.01-.18v-.06l.01-.16a1.53 1.53 0 01.29-.68l.1-.14.15-.13.13-.1a1.5 1.5 0 01.68-.29l.17-.01H4.93l.08-.03.05-.03.14-.13.02-.03.05-.1a.4.4 0 00.03-.07v-.14l-.05-.1-.03-.05-.13-.12-.02-.02-.08-.05-.05-.01-.06-.02L1.84 12l-.1-.01a.55.55 0 01-.44-.54.54.54 0 01.44-.54l.11-.02zM17 9a1 1 0 010 2H9a1 1 0 010-2h8zM3.8 4c.16 0 .3.07.43.21.07.1.11.21.12.32V8h.83l.1.01c.1.03.2.08.28.16.11.1.17.24.17.4 0 .15-.06.28-.17.39a.55.55 0 01-.28.15H2.43a.54.54 0 01-.28-.16.54.54 0 01-.17-.39c0-.15.06-.28.16-.39a.53.53 0 01.29-.15L2.54 8h.7V5.9l-.07.06c-.09.06-.2.1-.32.1a.5.5 0 01-.3-.1l-.07-.07a.5.5 0 01-.19-.38c0-.12.04-.22.1-.32l.08-.09.9-.9.03-.03.06-.06.03-.01c.1-.07.2-.1.3-.1zM17 4a1 1 0 010 2H9a1 1 0 110-2h8z"/>
</svg>
