<svg xmlns="http://www.w3.org/2000/svg" viewBox="0 0 18 38">
  <g fill="none">
    <path fill="#2CB543" d="M3.44 19.01c-.7.29-1.26.23-1.72.06-.12.17-.17.34-.29.51-.28.63-.57 1.26-.74 1.9a11.3 11.3 0 0 0-.23 2c0 .69.11 1.32.4 1.83.29.52.8.86 1.43.92.57.05 1.15-.23 1.72-.58a17.54 17.54 0 0 0 2.98-2.86c.91-1.03 1.83-2.12 2.74-3.2a21.72 21.72 0 0 1 3.04-3.04c.57-.46 1.2-.86 2.06-1.03h.57c.18 0 .4.06.58.11.4.12.74.35 1.03.69.23.29.4.57.51.92.17-2.7.8-10.48-3.55-8.42-2.8 1.32-4.8 4.7-6.81 6.98-1.03 1.15-2.24 2.64-3.72 3.21"/>
    <path fill="#31CB4B" d="M16.1 16.5c.16.1.28.22.4.34.4.4.56 1.08.62 1.71a7.9 7.9 0 0 1-.06 2c-.17 1.32-.91 2.53-1.66 3.67-.74 1.2-1.54 2.35-2.34 3.5-.46.57-.8 1.14-1.15 1.77-.4.63-.69 1.26-1.03 1.89a23.58 23.58 0 0 0-1.55 3.95c-.24.93-.4 1.84-.45 2.18v.05-5.1c.05-3.39 1.1-6.31 2.8-9.22l.23-.4c1.26-2.17 2.92-4.17 4.18-6.35ZM9.5 0v7.44a97.66 97.66 0 0 0-5.38 6.48 37.18 37.18 0 0 0-3.38 5.32C.46 19.87.17 20.5 0 21.2v-2.24c0-1.26.06-2.69.17-4 .23-2.12 1.43-4.01 2.58-5.79C4.8 5.96 7.15 2.92 9.5 0Z"/>
  </g>
</svg>
