<svg xmlns="http://www.w3.org/2000/svg" viewBox="0 0 20 20">
  <path d="M15.8 11.5a1.3 1.3 0 1 1 0 2.5 1.3 1.3 0 0 1 0-2.5Zm-3.2.7.2.1.1.2c-.1.6-.3 1-.6 1.2-.2.2-.5.3-.9.3a2 2 0 0 1-1-.3l-.6-1a3 3 0 0 1-1.2 1A4 4 0 0 1 7 14c-.7 0-1.1 0-1.5-.4-.3-.2-.4-.6-.4-1L5 12l.5-.7 1-.6v-.1l.6-.3 2.3-.9v-.7c0-.8 0-1.4-.2-1.7a1 1 0 0 0-.7-.3 2 2 0 0 0-.8.2l-.6.4L7 8l-.1.5-.5.3L6 9h-.2v.1a2 2 0 0 1-.8.3L4.9 9l.3-.9a4 4 0 0 1 1-1c.4-.4.8-.6 1.2-.7.5-.2 1.2-.3 2-.3.5 0 .9.1 1.2.3.4.2.6.4.8.8l.2 2v3.4l.4.2.1-.1.3-.4.2-.1Zm-3-2.2-1.3.6-.9.9-.2.7c0 .3.1.5.3.7.1.2.3.2.5.2.4 0 .7 0 1-.3l.5-.6V10Z"/>
</svg>
