<svg xmlns="http://www.w3.org/2000/svg" viewBox="0 0 20 20">
  <path d="m11.3 1.45.19.1 6 3.43a3 3 0 0 1 1.5 2.4l.01.2V16a3 3 0 0 1-2.82 3H4a3 3 0 0 1-3-2.82v-8.6a3 3 0 0 1 1.34-2.5l.17-.1 6-3.43a3 3 0 0 1 2.6-.19l.2.09ZM9.62 3.23l-.12.05-6 3.43a1 1 0 0 0-.5.75V16a1 1 0 0 0 .88 1H16a1 1 0 0 0 1-.88V7.58a1 1 0 0 0-.4-.8l-.1-.07-6-3.43a1 1 0 0 0-.75-.1l-.13.05ZM10 14a1 1 0 0 1 .12 2H5a1 1 0 0 1-.12-2H10Zm-1-3a1 1 0 0 1 .12 2H5a1 1 0 0 1-.12-2H9Zm6-3a1 1 0 0 1 1 1v2a1 1 0 0 1-1 1h-2a1 1 0 0 1-1-1V9a1 1 0 0 1 1-1h2Z"/>
</svg>
