<svg xmlns="http://www.w3.org/2000/svg" viewBox="0 0 20 20">
  <path d="M13,0 C14.6568542,0 16,1.34314575 16,3 L16,17 C16,18.6568542 14.6568542,20 13,20 L7,20 C5.34314575,20 4,18.6568542 4,17 L4,3 C4,1.34314575 5.34314575,0 7,0 L13,0 Z M10,16 C9.44771525,16 9,16.4477153 9,17 C9,17.5522847 9.44771525,18 10,18 C10.5522847,18 11,17.5522847 11,17 C11,16.4477153 10.5522847,16 10,16 Z M13,2 L7,2 C6.48716416,2 6.06449284,2.38604019 6.00672773,2.88337887 L6,3 L6,14 C6,14.5522847 6.44771525,15 7,15 L13,15 C13.5522847,15 14,14.5522847 14,14 L14,3 C14,2.48716416 13.6139598,2.06449284 13.1166211,2.00672773 L13,2 Z"/>
</svg>
