<svg xmlns="http://www.w3.org/2000/svg" viewBox="0 0 20 20">
  <path d="M9.03290267,5 C9.58518742,5 10.0329027,5.44771525 10.0329027,6 C10.0329027,6.55228475 9.58518742,7 9.03290267,7 L5,7 C4.44771525,7 4,7.44771525 4,8 L4,15 C4,15.5522847 4.44771525,16 5,16 L12,16 C12.5522847,16 13,15.5522847 13,15 L13,11.0127975 C13,10.4605127 13.4477153,10.0127975 14,10.0127975 C14.5522847,10.0127975 15,10.4605127 15,11.0127975 L15,15 C15,16.6568542 13.6568542,18 12,18 L5,18 C3.34314575,18 2,16.6568542 2,15 L2,8 C2,6.34314575 3.34314575,5 5,5 L9.03290267,5 Z M15.9817508,1.99992817 C17.0281476,1.99122424 17.8936433,2.78758905 17.9897913,3.81058985 L17.9986571,4.00489206 L17.9907649,7.23240072 C17.9894144,7.78468382 17.5406057,8.23130295 16.9883226,8.22995246 C16.4785228,8.22870586 16.0587563,7.84619309 15.9982556,7.35296673 L15.9907709,7.22751018 L15.9949406,5.47696003 L8.95710678,12.5147938 C8.56658249,12.9053181 7.93341751,12.9053181 7.54289322,12.5147938 C7.18026352,12.1521641 7.1543614,11.5803187 7.46518685,11.1878011 L7.54289322,11.1005803 L14.63376,4.01112767 L12.7963857,4.02708136 C12.2441207,4.03175155 11.7926355,3.58783825 11.7879653,3.03557324 C11.7836544,2.52579016 12.1615684,2.10187865 12.6541059,2.03600473 L12.7794734,2.02715287 L15.9817508,1.99992817 Z"/>
</svg>
