<svg xmlns="http://www.w3.org/2000/svg" viewBox="0 0 20 20">
  <defs/>
  <path d="M10.72 0a2 2 0 011.9 1.36l.04.15.26 1.04.13.05c.54.23 1.06.51 1.55.85l.28.21.11.09 1.03-.3a2 2 0 012.1.66l.1.13.08.14.72 1.24a2 2 0 01-.22 2.32l-.12.12-.77.74.02.13.04.36.02.35.01.36c0 .24-.01.48-.03.71l-.04.36-.02.13.77.74a2 2 0 01.48 2.13l-.06.16-.08.15-.72 1.24a2 2 0 01-2.13.96l-.15-.03-1.03-.3-.1.09a8 8 0 01-1.52.92l-.32.14-.13.05-.26 1.04a2 2 0 01-1.62 1.48l-.16.02-.16.01H9.28a2 2 0 01-1.9-1.36l-.04-.15-.26-1.04-.13-.05a7.99 7.99 0 01-1.55-.85l-.28-.21-.1-.09-1.04.3a2 2 0 01-2.1-.66l-.1-.13-.08-.14-.72-1.24a2 2 0 01.22-2.32l.12-.12.77-.74-.02-.13-.04-.36-.02-.35L2 10c0-.24.01-.48.03-.71l.04-.36.02-.13-.77-.74a2 2 0 01-.48-2.13l.06-.16.08-.15.72-1.24a2 2 0 012.12-.96l.16.03 1.03.3.1-.09a8 8 0 011.52-.92l.32-.14.13-.05.26-1.04A2 2 0 018.96.03L9.12 0 9.28 0h1.44zm0 2H9.28l-.52 2.1-.54.17c-.76.23-1.46.62-2.07 1.13l-.22.2-.41.37-2.09-.6-.72 1.25 1.56 1.51-.12.55A6.02 6.02 0 004.08 11l.07.32.12.55-1.56 1.5.72 1.25 2.09-.6.41.39a6 6 0 002 1.23l.29.1.54.16.52 2.1h1.44l.52-2.1.54-.17a5.99 5.99 0 002.07-1.13l.22-.2.41-.37 2.09.6.72-1.25-1.56-1.5.12-.56A6.02 6.02 0 0015.92 9l-.07-.32-.12-.55 1.56-1.5-.72-1.25-2.09.6-.4-.39a6 6 0 00-2.02-1.23l-.28-.1-.54-.16-.52-2.1zM10 6a4 4 0 110 8 4 4 0 010-8zm0 2a2 2 0 100 4 2 2 0 000-4z"/>
</svg>
