<svg xmlns="http://www.w3.org/2000/svg" width="48" height="14" viewBox="0 -1 48 13">
  <path d="M48 13H0l.738-.003.676-.007.62-.013.567-.019.522-.024.481-.03.446-.036.416-.043.39-.049.372-.055.357-.062.349-.069.345-.075c1.495-.345 2.818-.892 4.12-1.705l.297-.19.295-.198.297-.209.302-.223.31-.242.324-.263.341-.29.362-.318.386-.352.415-.388.447-.428.483-.472.524-.52 4.253-4.25.413-.403C21.028.934 21.701.529 22.414.28l.24-.078c.89-.27 1.801-.27 2.692 0l.24.078.237.09c.513.21 1.038.534 1.779 1.186l.358.326.393.377.212.209 4.777 4.769.483.472.447.428.415.388.386.352.362.318.34.29.324.263.311.242.302.223.297.209.295.197.297.19c1.302.814 2.625 1.361 4.12 1.706l.345.075.349.07.357.061.372.055.39.05.416.042.446.036.48.03.523.024.568.019.619.013.676.007L48 13z" />
</svg>
