<svg xmlns="http://www.w3.org/2000/svg" viewBox="0 0 48 14">
  <g fill-rule="evenodd">
    <path fill="currentColor" d="M47.01 13h-1.06l-.62-.02-.58-.01-.52-.02-.47-.03-.44-.03-.4-.04-.38-.04-.35-.05-.33-.05-.33-.06-.33-.07-.57-.14c-1.07-.29-2.04-.7-2.99-1.25l-.35-.22-.28-.18-.13-.09-.28-.19-.27-.2-.3-.22-.44-.36-.32-.28-.34-.3-.37-.35-.4-.38-.44-.42-.72-.72-4.46-4.52-.22-.21-.21-.21-.38-.36a8.18 8.18 0 0 0-1.9-1.39l-.21-.1-.28-.11-.26-.09-.4-.12a5.45 5.45 0 0 0-2.7 0l-.3.08-.3.1-.38.16c-.6.26-1.16.65-1.86 1.26l-.23.22-.4.36-.4.41-4.46 4.51-.72.72-.43.42-.4.38-.37.34-.35.3-.32.28-.3.25-.29.23-.27.2-.41.3-.29.19-.5.3c-.95.57-1.92.97-2.99 1.26l-.4.1-.16.04-.31.06-.33.06-.33.06-.36.05-.37.04-.4.04-.45.03-.47.03-.53.02-.57.01L.7 13H0l47.01.01Z"/>
    <path d="M0 14h47-1.07l-.64-.02-.58-.01-.54-.02-.5-.03-.45-.03-.43-.04-.4-.05-.37-.05-.36-.06-.34-.06-.35-.08c-.05 0-.11-.02-.17-.04a12.9 12.9 0 0 1-4.06-1.7l-.3-.2c-.05-.02-.1-.06-.14-.09l-.3-.2-.29-.22-.3-.23-.15-.12-.32-.27-.34-.28-.36-.32-.38-.35-.4-.4-.45-.42-.73-.73-4.46-4.51-.4-.4-.38-.36a6.77 6.77 0 0 0-1.81-1.29l-.23-.1-.24-.08a4.46 4.46 0 0 0-2.78-.04l-.23.08-.12.04-.23.1c-.51.23-1.05.59-1.81 1.3l-.37.34-.41.4-4.46 4.52-.73.73-.44.43-.41.39-.38.35-.36.32-.34.28-.32.27-.3.24-.3.22-.44.31-.3.2-.14.09a12.9 12.9 0 0 1-4.07 1.7l-.17.04-.34.08-.35.06-.35.06-.38.05-.4.05-.42.04-.46.03-.5.03-.53.02-.58.01L.7 14H0Z"/>
  </g>
</svg>
