<svg xmlns="http://www.w3.org/2000/svg" viewBox="0 0 14 48">
  <path fill-rule="evenodd" d="M14 0v48-1.08l-.02-.65-.01-.6-.02-.54-.03-.5-.03-.46-.04-.43-.05-.4-.05-.38-.06-.37-.06-.35-.08-.35c0-.05-.02-.11-.04-.17-.34-1.5-.89-2.82-1.7-4.12l-.2-.3c-.02-.05-.06-.1-.09-.14l-.2-.3-.22-.3-.23-.3-.25-.32-.28-.33-.3-.35-.16-.19-.35-.38-.4-.42-.42-.44-.73-.74-4.51-4.53-.4-.4-.36-.38a5.84 5.84 0 0 1-1.5-2.43 4.58 4.58 0 0 1 .07-2.94l.09-.23c.23-.56.58-1.12 1.34-1.96l.35-.37.4-.41 4.52-4.53.73-.74.43-.44.39-.42.35-.38.32-.36.28-.35.27-.32.12-.16.23-.3.22-.3.2-.3.2-.3.09-.14c.81-1.3 1.36-2.63 1.7-4.12l.08-.35.07-.34.06-.36.06-.37.05-.4.04-.41.03-.45.03-.48.03-.52.02-.87.01-.65L14 0Z"/>
</svg>
