<svg xmlns="http://www.w3.org/2000/svg" viewBox="0 0 47 14">
  <path fill-rule="evenodd" d="M0 0h47-1.07l-.64.02-.58.01-.54.02-.5.03-.45.03-.43.04-.4.05-.37.05-.36.06-.34.06-.35.08c-.05 0-.11.02-.17.04-1.47.34-2.78.89-4.06 1.7l-.3.2c-.05.02-.1.06-.14.09l-.3.2-.29.22-.3.23-.15.12-.32.27-.34.28-.36.32-.38.35-.4.4-.45.42-.73.73-4.46 4.51-.4.4-.38.36a6.8 6.8 0 0 1-1.81 1.29l-.23.1-.24.08-.12.04c-.88.27-1.78.27-2.65 0l-.24-.08a4.93 4.93 0 0 1-.12-.04l-.23-.1a6.77 6.77 0 0 1-1.81-1.3l-.37-.34-.41-.4-4.46-4.52-.73-.73-.44-.43-.41-.39-.38-.35-.36-.32-.34-.28-.32-.27-.3-.24-.3-.22-.44-.31-.3-.2-.14-.09A12.9 12.9 0 0 0 5.82.49L5.65.45 5.31.37 4.96.31 4.61.25 4.23.2l-.4-.05-.42-.04-.46-.03-.5-.03-.53-.02-.58-.01L.7 0H0Z"/>
</svg>
