<svg xmlns="http://www.w3.org/2000/svg" viewBox="0 0 48 14">
  <path fill-rule="evenodd" d="M0 14h.74l.67-.01.62-.01.57-.02.52-.03.48-.03.45-.03.42-.04.39-.05.37-.06.36-.06.34-.07.35-.08c1.5-.34 2.82-.89 4.12-1.7l.3-.2.3-.19.29-.2.3-.23.31-.24.32-.27.35-.28.36-.32.38-.35.42-.4.44-.42.49-.47.52-.52 4.26-4.25.4-.4c1.19-1.14 1.86-1.54 2.57-1.79l.24-.08a4.6 4.6 0 0 1 2.7 0l.24.08.23.09a6.2 6.2 0 0 1 1.78 1.19l.36.32.4.38.2.2 4.78 4.78.49.47.44.43.42.39.38.35.36.32.35.28.32.27.31.24.3.22.3.21.3.2.3.19a13.1 13.1 0 0 0 4.11 1.7l.35.08.34.07.36.06.37.06.4.05.41.04.45.03.48.03.52.03.57.02.62.01h.67L48 14H0Z"/>
</svg>
