<svg xmlns="http://www.w3.org/2000/svg" viewBox="0 0 14 48">
  <path fill-rule="evenodd" d="M0 47.29V0v1.08l.02.64.01.59.02.54.03.5.03.45.04.43.05.4.05.38.06.36.06.35.07.34.04.17c.34 1.49.89 2.8 1.7 4.1l.19.3.1.14.2.3.2.29.24.3.12.16.26.32.3.34.3.36.36.38.38.41.43.44.72.74 4.49 4.49.4.4.35.38c.7.77 1.06 1.31 1.28 1.82l.1.24.08.23.04.12c.27.89.27 1.8 0 2.68l-.08.24a5 5 0 0 1-.04.11l-.1.24a6.4 6.4 0 0 1-1.13 1.65l-.32.35-.37.4-4.7 4.7-.72.73-.43.44-.38.41-.35.39-.32.35-.29.34-.26.32-.24.31-.22.3-.3.44-.2.3-.1.15c-.8 1.29-1.35 2.6-1.69 4.09l-.1.51-.07.35-.06.36-.05.38-.05.4-.04.43-.03.46-.03.5-.02.53-.01.6-.01.64v.7Z"/>
</svg>
