<svg xmlns="http://www.w3.org/2000/svg" viewBox="0 0 14 48">
  <g fill-rule="evenodd">
    <path fill="currentColor" d="m1 48 .01-1.05.01-.63.02-.57.02-.52.02-.48.04-.44.03-.4.05-.38.04-.35.06-.33.06-.33.07-.33.14-.56c.28-1.07.69-2.04 1.25-3l.22-.35.18-.28.09-.13.19-.27.2-.28.22-.3.36-.43.28-.32.3-.35.35-.37.38-.4.42-.43.72-.73 4.51-4.46.22-.22.21-.21.36-.38a8.18 8.18 0 0 0 1.39-1.9l.1-.2.1-.29.1-.26.12-.4a5.6 5.6 0 0 0 0-2.7l-.09-.3-.1-.3-.15-.38a7.26 7.26 0 0 0-1.27-1.85l-.21-.24-.37-.39-.4-.41-4.52-4.46-.71-.72-.42-.43-.38-.4-.34-.37-.31-.34-.28-.32-.25-.3-.22-.3-.2-.27-.3-.41-.19-.28-.3-.5c-.57-.96-.98-1.93-1.26-3l-.1-.4-.04-.15-.07-.32-.06-.33-.05-.33-.05-.35-.04-.38-.04-.4-.03-.44-.03-.48-.02-.53-.02-.57v-.63L1 .99v47.02Z"/>
    <path d="M0 1v47-1.07l.02-.64.01-.58.02-.54.03-.5.03-.45.04-.43.05-.4.05-.37.06-.36.06-.34.08-.35c0-.05.02-.11.04-.17.34-1.47.89-2.78 1.7-4.06l.2-.3c.02-.05.06-.1.09-.14l.2-.3.22-.29.23-.3.12-.15.27-.32.28-.34.32-.36.35-.38.4-.4.42-.45.73-.73 4.51-4.46.4-.4.36-.38a6.8 6.8 0 0 0 1.29-1.81l.1-.23.08-.24.04-.12c.27-.88.27-1.78 0-2.65l-.08-.24a4.93 4.93 0 0 0-.04-.12l-.1-.23a6.77 6.77 0 0 0-1.3-1.81l-.34-.37-.4-.41-4.52-4.46-.73-.73-.43-.44-.39-.41-.35-.38-.32-.36-.28-.34-.27-.32-.24-.3-.22-.3-.31-.44-.2-.3-.09-.14a12.9 12.9 0 0 1-1.7-4.07l-.04-.17-.08-.34-.06-.35-.06-.35-.05-.38-.05-.4-.04-.42-.03-.46-.03-.5-.02-.53-.01-.58L0 1.7V1Z"/>
  </g>
</svg>
