<svg xmlns="http://www.w3.org/2000/svg" viewBox="0 0 14 48">
 <g fill-rule="evenodd">
  <path fill="currentColor" d="M13 1v1.05l-.01.63-.02.57-.02.52-.02.48-.03.44-.04.4-.04.37-.05.36-.06.33-.06.33-.07.33-.13.56c-.29 1.07-.7 2.04-1.26 3l-.21.35-.19.28-.08.13-.2.27-.2.28-.22.29-.36.44-.27.32-.31.35-.34.37-.38.4-.42.43-.72.73-4.52 4.46-.22.22-.2.21-.37.38a8.18 8.18 0 0 0-1.38 1.9l-.1.2-.11.29-.1.26-.11.4c-.23.89-.23 1.8 0 2.7l.08.3.1.3.15.38c.27.59.65 1.16 1.27 1.85l.21.24.37.39.41.41 4.51 4.46.72.72.42.43.38.4.34.37.3.34.28.32.25.3.23.3.2.27.3.41.18.28.3.5c.57.96.98 1.93 1.26 3l.1.4.04.15.07.32.06.32.06.34.04.35.05.38.04.4.03.44.02.48.02.52.02.58.01.63v.7V.99Z"/>
  <path d="M14 48V1v1.07l-.02.64-.01.58-.02.54-.03.5-.03.45-.04.43-.05.4-.05.37-.06.36-.06.34-.08.35c0 .05-.02.11-.04.17a12.9 12.9 0 0 1-1.7 4.06l-.2.3c-.02.05-.06.1-.09.14l-.2.3-.22.29-.23.3-.12.15-.27.32-.28.34-.32.36-.35.38-.4.4-.42.45-.73.73-4.51 4.46-.4.4-.36.38a6.8 6.8 0 0 0-1.29 1.81l-.1.23-.08.24-.04.12a4.46 4.46 0 0 0 0 2.65l.08.24.04.12.1.23c.23.51.59 1.05 1.3 1.81l.34.37.4.41 4.52 4.46.73.73.43.44.39.41.35.38.32.36.28.34.27.32.24.3.22.3.31.44.2.3.09.14a12.9 12.9 0 0 1 1.7 4.07l.04.17.08.34.06.35.06.35.05.38.05.4.04.42.03.46.03.5.02.53.01.58.01.64v.7Z"/>
 </g>
</svg>
