<svg xmlns="http://www.w3.org/2000/svg" viewBox="0 0 124 56">
  <g fill="none" fill-rule="evenodd">
    <path fill="#BFBFBF" d="M22.38 54.07 9.96 55.21A8.98 8.98 0 0 1 0 46.13v-37C0 3.63 4.48-.47 9.96.04L22.9 1.23l-.53 52.84Z"/>
    <path fill="#F7F7F7" d="M124 36.13a11.2 11.2 0 0 1-9.96 10.91l-89.08 8.17A8.98 8.98 0 0 1 15 46.13v-37c0-5.5 4.48-9.6 9.96-9.09l89.08 8.17A11.2 11.2 0 0 1 124 19.13v17Z"/>
    <path fill="#4A4A4A" fill-rule="nonzero" d="M48.88 22.44c-.42.37-.68.74-.9 1.21a4.26 4.26 0 0 0-.3 1.73c0 .68.15 1.2.52 1.68a4 4 0 0 0 1.36 1.1 9.5 9.5 0 0 0 1.84.69l.75.18 1.03.29c.53.16 1 .31 1.37.52.37.21.52.47.52.84 0 1.16-.89 1.73-2.73 1.73-1.15 0-2.2-.2-3.14-.63a1.76 1.76 0 0 0-.8-.2.7.7 0 0 0-.49.21l-.08.1a.98.98 0 0 0-.26.73c0 .32.16.53.42.74a9.07 9.07 0 0 0 4.46 1.1c1.57 0 2.73-.37 3.62-1.1a3.19 3.19 0 0 0 1.2-2.57c0-1.37-.62-2.42-1.94-3.05a8.93 8.93 0 0 0-1.78-.63l-.94-.23-.9-.24a5.6 5.6 0 0 1-1.36-.58c-.37-.2-.53-.57-.53-1.05 0-.47.27-.89.74-1.2.47-.32 1.2-.47 2.15-.47s1.84.1 2.62.36c.27.1.48.1.69.1.15 0 .36-.1.57-.3a.83.83 0 0 0 .27-.64 1 1 0 0 0-.21-.63 1.33 1.33 0 0 0-.53-.42 10.51 10.51 0 0 0-3.62-.63 6.67 6.67 0 0 0-3.62 1.26Zm13.9-3.3c-.15 0-.26.1-.41.2L59 22.66c-.16.1-.26.27-.26.37 0 .32.15.47.47.47h1.73v7.66c0 1.32.47 2.26 1.36 2.79.37.2.8.36 1.21.42.42.05.9.05 1.37.05.52 0 1.1-.16 1.83-.47.32-.16.47-.37.47-.74 0-.31-.1-.58-.26-.73a.87.87 0 0 0-.63-.27c-.15 0-.31.03-.47.07l-.16.04c-.2.05-.52.1-.94.1-.42 0-.79-.05-.95-.15-.31-.21-.52-.63-.52-1.26v-7.5h2.83a1 1 0 0 0 .68-.27 1 1 0 0 0 .27-.68 1 1 0 0 0-.27-.68 1 1 0 0 0-.68-.27h-2.83v-1.94c0-.16-.05-.26-.1-.37-.11-.15-.16-.2-.37-.15Zm13.07 2.2c-1.41 0-2.73.79-3.88 2.31V22.6c0-.31-.1-.58-.31-.84a1.07 1.07 0 0 0-.8-.31c-.26 0-.5.07-.69.26l-.09.1c-.2.21-.31.53-.31.79v10.6a1.07 1.07 0 0 0 1.1 1.1 1.07 1.07 0 0 0 1.1-1.1v-7.5c.42-.63 1-1.16 1.63-1.58a3.88 3.88 0 0 1 2.2-.63h.1c.32 0 .58-.1.85-.26.2-.21.31-.47.31-.79a1.07 1.07 0 0 0-1.1-1.1h-.1Zm4.57-4.98c-.37 0-.63.1-.9.36-.26.27-.36.53-.36.9v.1c0 .37.1.68.37.9.2.25.52.36.89.36h.16c.32 0 .6-.08.8-.28l.09-.09c.26-.26.37-.52.37-.89v-.1c0-.33-.08-.6-.28-.81l-.1-.09a1.15 1.15 0 0 0-.88-.36h-.16Zm-.74 5.4a1.1 1.1 0 0 0-.31.84v10.6c0 .32.1.58.31.79.21.2.48.31.84.31a1.07 1.07 0 0 0 1.1-1.1V22.6c0-.37-.1-.63-.3-.84a1.07 1.07 0 0 0-.8-.31c-.36 0-.63.1-.84.31Zm8.14 1.47v-.63a1.07 1.07 0 0 0-1.1-1.1 1.07 1.07 0 0 0-1.1 1.1v16.32c0 .32.1.58.3.84.22.21.48.32.8.32.31 0 .57-.1.78-.32.21-.2.32-.47.32-.84v-6.3a5.75 5.75 0 0 0 8.34.21 6.6 6.6 0 0 0 1.9-4.88c0-2-.64-3.62-1.9-4.88a5.55 5.55 0 0 0-4.1-1.68 5.62 5.62 0 0 0-4.24 1.84Zm0 7.3v-5.2a5.26 5.26 0 0 1 3.93-1.84 4 4 0 0 1 2.94 1.1c.74.8 1.1 1.95 1.1 3.31 0 .74-.05 1.37-.26 1.94A3.63 3.63 0 0 1 92 32.36h-.3a5.16 5.16 0 0 1-3.88-1.84Zm14.32-7.4a6.55 6.55 0 0 0-1.73 4.72c0 1.94.58 3.51 1.73 4.72a6 6 0 0 0 4.62 1.84c1.9 0 3.47-.63 4.62-1.84a6.63 6.63 0 0 0 1.67-4.38l.01-.45v-.2c0-1.8-.58-3.31-1.68-4.47a6.16 6.16 0 0 0-4.62-1.83c-1.94.1-3.46.68-4.62 1.89Zm3.15 9.02c-.4-.13-.8-.35-1.15-.63l-.16-.16a3.3 3.3 0 0 1-.85-1.17l-.1-.24a5.01 5.01 0 0 1-.36-2.1c0-.79.1-1.52.37-2.1.68-1.63 1.94-2.41 3.72-2.41 1.1 0 2 .31 2.73 1 .9.83 1.31 1.99 1.31 3.46 0 1.52-.42 2.72-1.3 3.51a3.8 3.8 0 0 1-1.32.79 4.5 4.5 0 0 1-2.89.05Z"/>
    <path fill="#2CB543" fill-rule="nonzero" d="M29.15 29.42c-.63.26-1.16.21-1.58.06-.1.15-.15.31-.26.47-.26.57-.52 1.15-.68 1.73-.1.58-.21 1.2-.21 1.84 0 .63.1 1.2.37 1.68.26.47.73.78 1.3.83.53.06 1.06-.2 1.58-.52 1-.68 1.9-1.68 2.73-2.62.84-.95 1.68-1.95 2.52-2.94.84-1 1.73-1.94 2.78-2.78.53-.42 1.1-.8 1.9-.95h.52c.15 0 .36.05.52.1.37.11.68.32.95.64.2.26.36.52.47.84.16-2.47.73-9.6-3.26-7.72-2.57 1.2-4.4 4.3-6.24 6.4-.94 1.05-2.05 2.42-3.41 2.94"/>
    <path fill="#31CB4B" fill-rule="nonzero" d="M40.75 27.11c.15.1.26.21.36.32.37.37.53 1 .58 1.57.05.58.05 1.21-.05 1.84-.13 1-.63 1.94-1.18 2.83l-.34.53a71.59 71.59 0 0 1-2.16 3.2c-.41.52-.73 1.05-1.04 1.63-.37.57-.63 1.15-.95 1.73a21.6 21.6 0 0 0-1.42 3.62l-.1.41-.2.94-.12.7v-4.68c.05-3.1 1.01-5.78 2.56-8.43l.23-.38c1.15-2 2.67-3.83 3.83-5.83ZM34.7 12v6.82a89.5 89.5 0 0 0-4.93 5.93c-.79 1-1.47 2.1-2.15 3.2-.32.53-.63 1.1-.95 1.68a11 11 0 0 0-.68 1.79v-2.05c0-1.15.05-2.47.16-3.67.2-1.95 1.3-3.68 2.36-5.3a98.95 98.95 0 0 1 6.2-8.4Z"/>
    <path fill="#FFF" fill-rule="nonzero" d="M4.97 45.34c0-.67.18-1.17.52-1.5a1.5 1.5 0 0 1 1.08-.43c.44 0 .8.14 1.08.42.35.34.52.84.52 1.5v1.32h1.54a.3.3 0 0 1 .23.1c.06.06.1.14.1.23s-.04.16-.1.23a.31.31 0 0 1-.23.1h-4.4a.33.33 0 0 1-.24-.1.3.3 0 0 1-.1-.23v-1.64Zm2.59.06c0-.5-.1-.85-.32-1.07a.84.84 0 0 0-.67-.26c-.44 0-.74.22-.89.67-.05.18-.09.4-.1.66v1.25h1.98V45.4ZM6.26 41c0-.56.17-1.01.52-1.35.36-.34.82-.5 1.38-.5.57 0 1.03.17 1.38.5.35.34.53.79.53 1.35s-.18 1-.53 1.33a1.9 1.9 0 0 1-1.38.51c-.57 0-1.03-.17-1.38-.5A1.74 1.74 0 0 1 6.26 41Zm2.92.8c.1-.11.18-.24.22-.39a1.3 1.3 0 0 0 0-.83 1.09 1.09 0 0 0-.23-.38c-.23-.26-.57-.4-1.02-.4-.43 0-.77.14-1 .4-.2.21-.3.48-.3.8 0 .52.24.88.7 1.08.18.07.38.1.61.1.24 0 .44-.03.61-.1.17-.07.3-.16.41-.28Zm-2.7-7.84c-.12-.04-.19-.14-.19-.31a.3.3 0 0 1 .1-.22.25.25 0 0 1 .19-.09c.06 0 .12 0 .16.02l3 1.02a.46.46 0 0 1 .3.42c0 .1-.03.18-.1.26a.44.44 0 0 1-.21.16L7.35 36l2.38.76c.08.04.15.1.21.17s.1.16.1.26a.46.46 0 0 1-.3.41l-3 1.02a.61.61 0 0 1-.16.02.27.27 0 0 1-.2-.1.3.3 0 0 1-.09-.2c0-.18.07-.28.2-.31l2.77-.84-2.7-.84a.37.37 0 0 1-.27-.35c0-.09.02-.16.07-.22a.37.37 0 0 1 .2-.14l2.7-.83-2.78-.84Zm1.92-1.8c.32-.04.58-.16.77-.37.19-.2.29-.5.29-.86 0-.37-.06-.68-.18-.94a.56.56 0 0 1-.07-.22c0-.06.03-.12.08-.18a.24.24 0 0 1 .17-.08c.13 0 .22.05.28.15l.14.28.1.26c.06.22.09.47.09.76 0 .59-.17 1.05-.5 1.37-.33.33-.8.5-1.4.5-.53 0-.97-.15-1.33-.42a1.58 1.58 0 0 1-.58-1.31c0-.54.18-.97.54-1.28.34-.29.77-.44 1.28-.44.08 0 .16.04.22.1.07.06.1.14.1.23v2.45ZM6.81 31.1c0 .43.19.74.57.93.14.07.3.11.48.13v-2.12c-.34.01-.6.14-.8.37a1 1 0 0 0-.25.69Zm.12-3.24c-.45-.34-.67-.72-.67-1.14v-.03a.32.32 0 0 1 .33-.32c.08 0 .16.03.22.1.05.06.08.14.08.23v.04c0 .24.06.45.17.64.12.19.27.35.46.48h2.19a.3.3 0 0 1 .23.1c.06.06.1.13.1.22s-.04.16-.1.23a.31.31 0 0 1-.23.1H6.62a.34.34 0 0 1-.23-.1.3.3 0 0 1-.1-.23.3.3 0 0 1 .1-.23c.06-.06.14-.1.24-.1h.3Zm1.47-2.57c.32-.04.58-.17.77-.37.19-.21.29-.5.29-.87 0-.36-.06-.67-.18-.93a.56.56 0 0 1-.07-.22c0-.07.03-.13.08-.18a.24.24 0 0 1 .17-.09.3.3 0 0 1 .28.16l.14.28.1.26c.06.22.09.47.09.76 0 .59-.17 1.05-.5 1.37-.33.33-.8.49-1.4.49-.53 0-.97-.14-1.33-.41a1.6 1.6 0 0 1-.58-1.31c0-.54.18-.97.54-1.28.34-.3.77-.44 1.28-.44.08 0 .16.03.22.1.07.06.1.13.1.23v2.45Zm-1.59-1.06c0 .42.19.73.57.93.14.07.3.11.48.13v-2.13c-.34.02-.6.15-.8.38a1 1 0 0 0-.25.69Zm2.72-5.35a1.68 1.68 0 0 1 .06 2.43c-.37.36-.84.55-1.43.55a1.9 1.9 0 0 1-1.41-.55c-.34-.34-.5-.73-.5-1.2 0-.46.19-.87.55-1.23H5.03a.32.32 0 0 1-.32-.32.32.32 0 0 1 .32-.33h4.68a.3.3 0 0 1 .23.1c.06.06.1.13.1.23a.3.3 0 0 1-.1.23.32.32 0 0 1-.23.1h-.18Zm-2.12 0c-.37.33-.54.71-.54 1.14 0 .56.24.92.73 1.09.16.05.35.09.56.1.41 0 .74-.12.98-.34.22-.2.32-.49.32-.85 0-.43-.18-.81-.54-1.14H7.4Zm-.6-4.46a1.68 1.68 0 0 1-.06-2.43c.36-.36.83-.55 1.41-.55.59 0 1.06.18 1.43.55a1.7 1.7 0 0 1-.06 2.43h.18a.33.33 0 0 1 .33.32.3.3 0 0 1-.1.24.32.32 0 0 1-.23.09H5.03a.32.32 0 0 1-.32-.33.32.32 0 0 1 .32-.32H6.8Zm2.1 0c.37-.33.55-.71.55-1.15 0-.55-.25-.91-.73-1.1a1.54 1.54 0 0 0-.57-.07c-.4 0-.73.1-.96.32-.22.21-.33.5-.33.85 0 .44.18.82.54 1.15h1.5ZM6.3 7.76c0-.09.03-.17.1-.23a.3.3 0 0 1 .2-.1c.07 0 .12.02.16.03l4.72 1.96c.15.06.23.16.23.3a.3.3 0 0 1-.1.22c-.06.06-.13.1-.19.1s-.11-.01-.15-.03l-1.2-.46-3.3 1.35a.49.49 0 0 1-.17.03.29.29 0 0 1-.2-.1.28.28 0 0 1-.1-.2c0-.16.07-.27.2-.33l2.75-1.1L6.5 8.06c-.14-.06-.21-.16-.2-.3Z"/>
  </g>
</svg>
