<svg xmlns="http://www.w3.org/2000/svg" viewBox="0 0 57 55">
  <g fill="none" fill-rule="evenodd">
    <path fill="#BFBFBF" d="M22.8069275,53.8236727 L10.1458868,54.9583323 C4.56554717,55.4590045 0,51.3889283 0,45.9143822 L0,9.08561777 C0,3.6110717 4.56554717,-0.459004458 10.1458868,0.0416676643 L23.3452107,1.22456723 L22.8069275,53.8236727 Z"/>
    <path fill="#FFF" d="M26.7297564,0.785104126 L47.7297564,2.32168949 C52.9555022,2.70406114 57,7.05531036 57,12.2950267 L57,42.7049733 C57,47.9446896 52.9555022,52.2959389 47.7297564,52.6783105 L26.7297564,54.2148959 C21.2216343,54.6179292 16.4296961,50.4794371 16.0266628,44.971315 C16.0088935,44.7284686 16,44.4850543 16,44.2415586 L16,10.7584414 C16,5.23559386 20.4771525,0.758441362 26,0.758441362 C26.2434956,0.758441362 26.48691,0.767334878 26.7297564,0.785104126 Z"/>
    <path fill="#2CB543" fill-rule="nonzero" d="M31.6986182,28.2863897 C31.0570077,28.5475623 30.5223324,28.4953278 30.0945921,28.3386242 C29.987657,28.4953278 29.9341895,28.6520314 29.8272544,28.808735 C29.5599167,29.3833148 29.2925791,29.9578947 29.1321765,30.5324745 C29.0252414,31.1070543 28.9183063,31.7338687 28.9183063,32.3606831 C28.9183063,32.9874975 29.0252414,33.5620773 29.2925791,34.0321881 C29.5599167,34.5022989 30.0411246,34.8157061 30.6292675,34.8679406 C31.1639428,34.9201751 31.6986182,34.6590025 32.2332935,34.3455953 C33.2491767,33.6665464 34.1581248,32.6740903 35.0136054,31.7338687 C35.8690859,30.7936472 36.7245665,29.8011911 37.5800471,28.808735 C38.4355277,27.8162789 39.3444758,26.8760573 40.4138265,26.0403048 C40.9485018,25.6224286 41.5366447,25.2567868 42.3386578,25.1000832 C42.4455928,25.1000832 42.5525279,25.1000832 42.6059954,25.1000832 C42.7129305,25.1000832 42.766398,25.1000832 42.8733331,25.1000832 C43.0337357,25.1000832 43.2476059,25.1523178 43.4080085,25.2045523 C43.7822812,25.3090214 44.1030864,25.5179595 44.3704241,25.8313667 C44.5842942,26.0925393 44.7446969,26.353712 44.8516319,26.6671192 C45.0120345,24.2120962 45.6001774,17.1082 41.5366447,18.9886431 C38.9167355,20.1900373 37.0453717,23.2718746 35.174008,25.3612559 C34.2115923,26.4059465 33.0887741,27.7640443 31.6986182,28.2863897"/>
    <path fill="#31CB4B" fill-rule="nonzero" d="M43.5149435,25.9880703 C43.6753461,26.0925393 43.7822812,26.1970084 43.8892163,26.3014775 C44.263489,26.6671192 44.4238916,27.2939336 44.4773592,27.8685134 C44.5308267,28.4430932 44.5308267,29.0699076 44.4238916,29.696722 C44.2902228,30.6978838 43.7852516,31.6264977 43.2183967,32.512792 L42.8733331,33.039732 C42.1782551,34.1366572 41.4297096,35.1813478 40.6811641,36.2260384 C40.2534239,36.7483837 39.9326186,37.270729 39.6118134,37.8453089 C39.2375407,38.4198887 38.970203,38.9944686 38.6493978,39.5690484 C38.0612549,40.7182081 37.5800471,41.9196023 37.2057743,43.1732311 L37.1007419,43.5868841 C37.0187443,43.9263118 36.9507439,44.2481218 36.8980428,44.519241 L36.7770189,45.2092114 L36.7780341,40.5615045 C36.8290712,37.47017 37.8057375,34.8071802 39.3825126,32.1636606 L39.6118134,31.7861032 C40.7880992,29.8011911 42.3386578,27.9729825 43.5149435,25.9880703 Z M37.3661769,10.9445253 L37.3661769,17.7350143 C35.6017483,19.6154575 33.9442547,21.6003696 32.3402286,23.6375164 C31.5382156,24.6299725 30.8431376,25.7268976 30.1480596,26.8238228 C29.8272544,27.3461681 29.5064492,27.9207479 29.185644,28.4953278 C28.9183063,29.0699076 28.6509686,29.6444875 28.490566,30.2713018 L28.490566,28.2341551 C28.490566,27.0849954 28.5440336,25.7791321 28.6509686,24.5777379 C28.8648388,22.6450603 29.987657,20.9213207 31.0570077,19.3020503 C32.981839,16.3769165 35.174008,13.6084864 37.3661769,10.9445253 Z"/>
    <path fill="#FFF" fill-rule="nonzero" d="M5.06647995,45.1271565 C5.06647995,44.4622791 5.24259287,43.9636211 5.59481869,43.6311824 C5.87540537,43.3570662 6.24255601,43.217092 6.69627064,43.2112598 C7.14401533,43.2112598 7.51116598,43.351234 7.79772258,43.6311824 C8.14994841,43.9694533 8.32606132,44.4681114 8.32606132,45.1271565 L8.32606132,46.4306661 L9.89316775,46.4306661 C9.98271669,46.4306661 10.0603258,46.4627436 10.125995,46.5268984 C10.1916642,46.5910532 10.2244988,46.6697887 10.2244988,46.7631048 C10.2244988,46.8505887 10.1916642,46.9264081 10.125995,46.9905629 C10.0603258,47.0547177 9.98271669,47.0867952 9.89316775,47.0867952 L5.40676592,47.0867952 C5.31721698,47.0867952 5.23811542,47.0547177 5.16946123,46.9905629 C5.10080705,46.9264081 5.06647995,46.8505887 5.06647995,46.7631048 L5.06647995,45.1271565 Z M7.69921875,45.1883952 C7.69921875,44.6984855 7.59176002,44.3427178 7.37684257,44.121092 C7.20968455,43.9461243 6.98282724,43.8615565 6.69627064,43.8673888 C6.24255601,43.8673888 5.94107459,44.0890146 5.79182636,44.5322662 C5.73212706,44.7072339 5.69929245,44.9259436 5.69332252,45.1883952 L5.69332252,46.4306661 L7.69921875,46.4306661 L7.69921875,45.1883952 Z M6.37389446,40.8054534 C6.37389446,40.2513889 6.55299233,39.8052212 6.91118809,39.4669502 C7.27535377,39.1286793 7.74399322,38.965376 8.31710643,38.9770406 C8.89618956,38.9770406 9.36482901,39.1403438 9.72302476,39.4669502 C10.0812205,39.8052212 10.2603184,40.2513889 10.2603184,40.8054534 C10.2603184,41.3653502 10.0812205,41.8086018 9.72302476,42.1352082 C9.36482901,42.4734792 8.89618956,42.6426146 8.31710643,42.6426146 C7.73205336,42.6426146 7.26341392,42.4734792 6.91118809,42.1352082 C6.55299233,41.8086018 6.37389446,41.3653502 6.37389446,40.8054534 Z M9.35587412,41.610305 C9.45736291,41.4936598 9.53198703,41.3638921 9.57974646,41.2210018 C9.6275059,41.0781115 9.65138561,40.9395953 9.65138561,40.8054534 C9.65138561,40.6713115 9.6275059,40.5342534 9.57974646,40.3942792 C9.53198703,40.254305 9.45437795,40.1259954 9.34691922,40.0093502 C9.10812205,39.7527309 8.76186616,39.6244212 8.30815153,39.6244212 C7.86637677,39.6244212 7.52310584,39.7527309 7.27833874,40.0093502 C7.07536114,40.2251438 6.97685731,40.4905115 6.98282724,40.8054534 C6.98282724,41.3245244 7.22162441,41.6832082 7.69921875,41.881505 C7.8723467,41.9514921 8.07830926,41.9864856 8.31710643,41.9864856 C8.5559036,41.9864856 8.76186616,41.9514921 8.9349941,41.881505 C9.10812205,41.8115179 9.24841539,41.7211179 9.35587412,41.610305 Z M6.6067217,33.7979956 C6.47538325,33.763002 6.40971403,33.6609375 6.40971403,33.491802 C6.40971403,33.4101504 6.44105616,33.3387053 6.50374042,33.2774665 C6.56642468,33.2162278 6.6320939,33.1856085 6.70074808,33.1856085 C6.76940227,33.1856085 6.82462412,33.1914407 6.86641362,33.2031053 L9.92003243,34.2179181 C10.0036114,34.2470794 10.0752506,34.2995697 10.1349499,34.3753891 C10.1946492,34.4512084 10.2244988,34.5386923 10.2244988,34.6378407 C10.2244988,34.7311568 10.1946492,34.8171826 10.1349499,34.8959181 C10.0752506,34.9746536 10.0006265,35.028602 9.91107754,35.0577633 L7.4843013,35.8188729 L9.91107754,36.5799826 C9.99465654,36.6149761 10.0677882,36.6703826 10.1304724,36.7462019 C10.1931567,36.8220213 10.2244988,36.9095051 10.2244988,37.0086535 C10.2244988,37.1019697 10.1946492,37.1865374 10.1349499,37.2623567 C10.0752506,37.3381761 10.0036114,37.3906664 9.92003243,37.4198277 L6.86641362,38.4346406 C6.82462412,38.4463051 6.76940227,38.4521374 6.70074808,38.4521374 C6.6320939,38.4521374 6.56642468,38.421518 6.50374042,38.3602793 C6.44105616,38.2990406 6.40971403,38.2275954 6.40971403,38.1459438 C6.40971403,37.9768083 6.47538325,37.8747438 6.6067217,37.8397503 L9.43646816,37.0086535 L6.67836085,36.1688084 C6.60075177,36.1454794 6.53657503,36.1017374 6.48583063,36.0375826 C6.43508623,35.9734278 6.40971403,35.9005245 6.40971403,35.8188729 C6.40971403,35.7372213 6.43359375,35.6643181 6.48135318,35.6001632 C6.52911262,35.5360084 6.59478184,35.4922665 6.67836085,35.4689374 L9.43646816,34.6378407 L6.6067217,33.7979956 Z M8.55888856,32.0133246 C8.88723467,31.9724988 9.14841907,31.8485634 9.34244177,31.6415182 C9.53646448,31.4344731 9.63347583,31.1486924 9.63347583,30.7841763 C9.63347583,30.4196602 9.57377653,30.1090924 9.45437795,29.8524731 C9.41258844,29.7708215 9.39020121,29.6979183 9.38721624,29.6337634 C9.38423128,29.5696086 9.40960348,29.509828 9.46333284,29.4544215 C9.51706221,29.3990151 9.5767615,29.3713118 9.64243072,29.3713118 C9.77376916,29.3713118 9.86630307,29.4223441 9.92003243,29.5244086 L10.0633107,29.7999828 C10.1051002,29.8816344 10.1409198,29.9691183 10.1707695,30.0624344 C10.2304688,30.2782279 10.2603184,30.529015 10.2603184,30.8147957 C10.2603184,31.4038537 10.0916679,31.8602279 9.75436689,32.1839182 C9.41706589,32.5076085 8.93797907,32.6694537 8.31710643,32.6694537 C7.77981279,32.6694537 7.3320681,32.5323956 6.97387235,32.2582795 C6.57388709,31.9491698 6.37389446,31.5146666 6.37389446,30.9547698 C6.37389446,30.4182021 6.55896226,29.9953634 6.92909788,29.6862538 C7.27535377,29.3946409 7.70817364,29.2488344 8.22755749,29.2488344 C8.31710643,29.2488344 8.39471551,29.2794538 8.46038473,29.3406925 C8.52605395,29.4019312 8.55888856,29.4792086 8.55888856,29.5725247 L8.55888856,32.0133246 Z M6.93805277,30.9547698 C6.93805277,31.3805247 7.13207547,31.6896343 7.52012087,31.8820988 C7.65742925,31.9520859 7.8216023,31.9958279 8.01264004,32.0133246 L8.01264004,29.896215 C7.66638414,29.9137118 7.39176739,30.0391054 7.1887898,30.2723957 C7.02163178,30.4590279 6.93805277,30.686486 6.93805277,30.9547698 Z M7.06342129,27.7266151 C6.60373673,27.3883441 6.37389446,27.0121635 6.37389446,26.5980732 L6.37389446,26.5630797 C6.37389446,26.4755958 6.40523659,26.4012345 6.46792084,26.3399958 C6.5306051,26.2787571 6.60970666,26.2481377 6.70522553,26.2481377 C6.8007444,26.2481377 6.876861,26.2802151 6.93357532,26.34437 C6.99028965,26.4085248 7.01864682,26.4872603 7.01864682,26.5805764 L7.01864682,26.61557 C7.01864682,26.8546925 7.07834611,27.06757 7.19774469,27.2542022 C7.31714328,27.4408345 7.47236144,27.5983054 7.66339917,27.7266151 L9.89316775,27.7266151 C9.98271669,27.7266151 10.0603258,27.7586925 10.125995,27.8228474 C10.1916642,27.8870022 10.2244988,27.9628215 10.2244988,28.0503054 C10.2244988,28.1377893 10.1916642,28.2136086 10.125995,28.2777635 C10.0603258,28.3419183 9.98271669,28.3739957 9.89316775,28.3739957 L6.75,28.3739957 C6.66045106,28.3739957 6.5813495,28.3433764 6.51269531,28.2821377 C6.44404113,28.220899 6.40971403,28.1436215 6.40971403,28.0503054 C6.40971403,27.9628215 6.44254864,27.8870022 6.50821787,27.8228474 C6.57388709,27.7586925 6.65448113,27.7266151 6.75,27.7266151 L7.06342129,27.7266151 Z M8.55888856,25.1720861 C8.88723467,25.1312603 9.14841907,25.0073249 9.34244177,24.8002797 C9.53646448,24.5932346 9.63347583,24.3074539 9.63347583,23.9429378 C9.63347583,23.5784217 9.57377653,23.2678539 9.45437795,23.0112346 C9.41258844,22.929583 9.39020121,22.8566798 9.38721624,22.7925249 C9.38423128,22.7283701 9.40960348,22.6685895 9.46333284,22.613183 C9.51706221,22.5577766 9.5767615,22.5300733 9.64243072,22.5300733 C9.77376916,22.5300733 9.86630307,22.5811056 9.92003243,22.6831701 L10.0633107,22.9587443 C10.1051002,23.0403959 10.1409198,23.1278798 10.1707695,23.2211959 C10.2304688,23.4369894 10.2603184,23.6877765 10.2603184,23.9735572 C10.2603184,24.5626152 10.0916679,25.0189894 9.75436689,25.3426797 C9.41706589,25.66637 8.93797907,25.8282152 8.31710643,25.8282152 C7.77981279,25.8282152 7.3320681,25.6911571 6.97387235,25.417041 C6.57388709,25.1079313 6.37389446,24.6734281 6.37389446,24.1135313 C6.37389446,23.5769636 6.55896226,23.1541249 6.92909788,22.8450153 C7.27535377,22.5534024 7.70817364,22.4075959 8.22755749,22.4075959 C8.31710643,22.4075959 8.39471551,22.4382153 8.46038473,22.499454 C8.52605395,22.5606927 8.55888856,22.6379701 8.55888856,22.7312862 L8.55888856,25.1720861 Z M6.93805277,24.1135313 C6.93805277,24.5392862 7.13207547,24.8483958 7.52012087,25.0408603 C7.65742925,25.1108474 7.8216023,25.1545894 8.01264004,25.1720861 L8.01264004,23.0549765 C7.66638414,23.0724733 7.39176739,23.1978669 7.1887898,23.4311572 C7.02163178,23.6177894 6.93805277,23.8452475 6.93805277,24.1135313 Z M9.70511498,18.7945122 C10.0752506,19.1502799 10.2603184,19.5585379 10.2603184,20.0192863 C10.2603184,20.4742024 10.0961453,20.870796 9.76779923,21.2090669 C9.39766362,21.5706669 8.91409935,21.754383 8.31710643,21.7602153 C7.73205336,21.7602153 7.25147406,21.5764992 6.87536851,21.2090669 C6.53508255,20.8766282 6.36643205,20.4800347 6.36941701,20.0192863 C6.37240198,19.5585379 6.55896226,19.1502799 6.92909788,18.7945122 L5.12916421,18.7945122 C5.03364534,18.7945122 4.95454378,18.7638928 4.89185952,18.7026541 C4.82917527,18.6414154 4.79783314,18.564138 4.79783314,18.4708218 C4.79783314,18.3775057 4.82917527,18.3002283 4.89185952,18.2389896 C4.95454378,18.1777509 5.03364534,18.1471315 5.12916421,18.1471315 L9.89316775,18.1471315 C9.98271669,18.1471315 10.0603258,18.1777509 10.125995,18.2389896 C10.1916642,18.3002283 10.2244988,18.3775057 10.2244988,18.4708218 C10.2244988,18.564138 10.1916642,18.6414154 10.125995,18.7026541 C10.0603258,18.7638928 9.98271669,18.7945122 9.89316775,18.7945122 L9.70511498,18.7945122 Z M7.54698555,18.7945122 C7.17684994,19.1211186 6.9947671,19.5002154 7.00073703,19.9318024 C7.00073703,20.4800347 7.24848909,20.8387185 7.74399322,21.007854 C7.91115124,21.0661766 8.10218897,21.098254 8.31710643,21.1040863 C8.73500147,21.1040863 9.06633255,20.9932734 9.31109965,20.7716476 C9.53198703,20.5675185 9.63944575,20.2875702 9.63347583,19.9318024 C9.63347583,19.5002154 9.45139298,19.1211186 9.0872273,18.7945122 L7.54698555,18.7945122 Z M6.92909788,14.3503316 C6.55896226,13.9945639 6.37389446,13.5848478 6.37389446,13.1211833 C6.37389446,12.6575188 6.54105248,12.2623833 6.87536851,11.9357769 C7.24550413,11.5741769 7.72608343,11.3904608 8.31710643,11.3846285 C8.91409935,11.3846285 9.39766362,11.5683446 9.76779923,11.9357769 C10.1021153,12.2740478 10.2677808,12.6720994 10.2649116,13.1299317 C10.2618109,13.5877639 10.0752506,13.9945639 9.70511498,14.3503316 L9.89316775,14.3503316 C9.98271669,14.3503316 10.0603258,14.380951 10.125995,14.4421897 C10.1916642,14.5034284 10.2244988,14.5807058 10.2244988,14.674022 C10.2244988,14.7673381 10.1916642,14.8446155 10.125995,14.9058542 C10.0603258,14.9670929 9.98271669,14.9977123 9.89316775,14.9977123 L5.12916421,14.9977123 C5.03364534,14.9977123 4.95454378,14.9670929 4.89185952,14.9058542 C4.82917527,14.8446155 4.79783314,14.7673381 4.79783314,14.674022 C4.79783314,14.5807058 4.82917527,14.5034284 4.89185952,14.4421897 C4.95454378,14.380951 5.03364534,14.3503316 5.12916421,14.3503316 L6.92909788,14.3503316 Z M9.0872273,14.3503316 C9.45736291,14.0237252 9.63944575,13.6446284 9.63347583,13.2130414 C9.63347583,12.6648091 9.38572376,12.300293 8.89021963,12.119493 C8.72306162,12.0611704 8.53202388,12.0349253 8.31710643,12.0407575 C7.89921138,12.0407575 7.57086527,12.1486543 7.3320681,12.3644478 C7.11118072,12.5744091 7.00073703,12.8572736 7.00073703,13.2130414 C7.00073703,13.6446284 7.18281987,14.0237252 7.54698555,14.3503316 L9.0872273,14.3503316 Z M6.40971403,7.72780281 C6.40971403,7.63448669 6.44254864,7.55720927 6.50821787,7.49597056 C6.57388709,7.43473185 6.64254127,7.4041125 6.71418042,7.4041125 C6.78581958,7.4041125 6.83954894,7.41286089 6.87536851,7.43035766 L11.6841465,9.38124792 C11.8393647,9.4395705 11.9169738,9.53871889 11.9169738,9.67869308 C11.9169738,9.76034469 11.8841392,9.83178984 11.8184699,9.89302855 C11.7528007,9.95426726 11.688624,9.98488661 11.6259397,9.98488661 C11.5632555,9.98488661 11.5110186,9.97905436 11.4692291,9.96738984 L10.2424086,9.50372534 L6.88432341,10.8509769 C6.83656397,10.8684737 6.77835716,10.8772221 6.70970298,10.8772221 C6.64104879,10.8772221 6.57388709,10.8466027 6.50821787,10.785364 C6.44254864,10.7241253 6.40971403,10.6555963 6.40971403,10.5797769 C6.40971403,10.422306 6.47836822,10.3144092 6.61567659,10.2560866 L9.41855837,9.15378987 L6.62463149,8.02524796 C6.47538325,7.96692539 6.4037441,7.867777 6.40971403,7.72780281 Z"/>
  </g>
</svg>
