<svg xmlns="http://www.w3.org/2000/svg" viewBox="0 0 20 20">
  <defs/>
  <path d="M17.5 4C18.88 4 20 5.07 20 6.4v11.2c0 1.33-1.12 2.4-2.5 2.4h-5a2.45 2.45 0 01-2.5-2.4V6.4C10 5.07 11.12 4 12.5 4h5zM15 17a1 1 0 100 2 1 1 0 000-2zm-8 0a1 1 0 010 2H5a1 1 0 010-2h2zM17.25 6h-4.5c-.38 0-.7.3-.74.68l-.01.09V15a1 1 0 001 1h4a1 1 0 001-1V6.77c0-.4-.29-.72-.66-.76L17.25 6zM3 2a1 1 0 00-1 .88V12a1 1 0 00.88 1H7a1 1 0 01.12 2H3a3 3 0 01-3-2.82V3a3 3 0 012.82-3H17a3 3 0 012.15.9A1 1 0 0117.8 2.4l-.1-.09a1 1 0 00-.57-.3H3z"/>
</svg>
