<svg xmlns="http://www.w3.org/2000/svg" viewBox="0 0 20 20">
  <defs/>
  <path d="M8.98 13.56a1 1 0 01-.8 1.07l-.1.02-1.69.15a5.98 5.98 0 004.7 1.1 1 1 0 11.36 1.97 7.98 7.98 0 01-6.24-1.46l.13 1.49a1 1 0 01-1.97.29l-.02-.12-.26-2.99a2 2 0 011.67-2.14l.15-.02 2.99-.26a1 1 0 011.08.9zm7.11-.02a1 1 0 01.15 1.41l-.43.49-.3.3a1 1 0 01-1.45-1.38l.13-.13c.17-.17.34-.35.5-.54a1 1 0 011.4-.15zm.88-4.91a1 1 0 011.04.95c.02.38 0 .77-.03 1.15a1 1 0 11-2-.2c.04-.29.04-.58.03-.86a1 1 0 01.96-1.04zM3.08 8.5a1 1 0 01.93 1.06c-.02.29-.02.58 0 .86a1 1 0 01-1.99.15 7.95 7.95 0 010-1.14 1 1 0 011.06-.93zM16.63 1.8l.02.12.26 2.99a2 2 0 01-1.67 2.14l-.15.02-2.99.26a1 1 0 01-.29-1.97l.12-.02 1.68-.15a5.98 5.98 0 00-4.5-1.14l-.39.08a1 1 0 11-.42-1.96l.13-.03A8.03 8.03 0 0114.8 3.6l-.13-1.49a1 1 0 011.97-.29zM5.7 4.35a1 1 0 01.01 1.41c-.2.2-.38.43-.55.66a1 1 0 01-1.61-1.19c.22-.3.47-.6.74-.87a1 1 0 011.41-.01z"/>
</svg>
