<svg xmlns="http://www.w3.org/2000/svg" viewBox="0 0 20 20">
  <path d="M4.59 10a1 1 0 0 1 .7.3l2.42 2.4a1 1 0 0 0 .7.3h3.18a1 1 0 0 0 .7-.3l2.42-2.4a1 1 0 0 1 .7-.3H17a2 2 0 0 1 2 2v3a3 3 0 0 1-3 3H4a3 3 0 0 1-3-3v-3c0-1.1.9-2 2-2h1.59Zm-.42 2H3v3a1 1 0 0 0 1 1h12a1 1 0 0 0 1-1v-3h-1.17l-2.12 2.12a3 3 0 0 1-2.12.88H8.4a3 3 0 0 1-2.12-.88L4.17 12ZM10 1a1 1 0 0 1 1 .88v5.19l1.24-1.27a1 1 0 0 1 1.51 1.31l-.08.1-2.25 2.28a2 2 0 0 1-2.7.14l-.14-.13L6.3 7.2a1 1 0 0 1 1.33-1.5l.1.09L9 7.09V2a1 1 0 0 1 1-1Z"/>
</svg>
