<svg xmlns="http://www.w3.org/2000/svg" viewBox="0 0 38 31">
  <defs/>
  <path d="M19 10.35a1 1 0 01.81.42c.23.1.43.24.62.43l5.2 5.28.08.1a1 1 0 01-1.51 1.3L20 13.62v15.86a1 1 0 01-2-.12V13.6l-4.27 4.29-.09.08a1 1 0 01-1.32-1.5l5.26-5.28.15-.13c.14-.12.3-.22.46-.29a1 1 0 01.81-.42zM18 0a12 12 0 0111.27 7.88l.05.12.2.02A9 9 0 0138 16.73V17a9 9 0 01-8.32 8.97l-.26.02L29 26h-2a1 1 0 01-.12-2h2.47a7 7 0 00-.09-14h-.64a1 1 0 01-1-.72 10 10 0 00-19.58 3.63 1 1 0 01-.85 1.08l-.12.01h-.36a5 5 0 00.07 10H11a1 1 0 01.12 2H7a7 7 0 01-1.1-13.91l.1-.02V12A12 12 0 0117.7 0h.3z"/>
</svg>
