<svg xmlns="http://www.w3.org/2000/svg" viewBox="0 0 20 20">
  <defs/>
  <path d="M19 15a1 1 0 011 .88V17a3 3 0 01-2.82 3H3a3 3 0 01-3-2.82V16a1 1 0 012-.12V17a1 1 0 00.88 1H17a1 1 0 001-.88V16a1 1 0 011-1zM9.8 4h.2a1.98 1.98 0 011.23.46l.15.13 2.27 2.29a1 1 0 01-1.32 1.5l-.1-.1L11 7.06v5.92l1.25-1.25.1-.09a1 1 0 011.4 1.4l-.09.1-2.27 2.29-.15.13a2 2 0 01-2.57-.03l-.13-.11-2.24-2.29-.08-.1a1 1 0 011.41-1.38l.1.08L9 13.02V6.98L7.7 8.28a1 1 0 01-1.5-1.3l.08-.1L8.53 4.6A2 2 0 019.8 4zM17 0a3 3 0 013 2.82V4a1 1 0 01-2 .12V3a1 1 0 00-.88-1H3a1 1 0 00-1 .88V4a1 1 0 01-2 .12V3a3 3 0 012.82-3H17z"/>
</svg>
