<svg xmlns="http://www.w3.org/2000/svg" viewBox="0 0 20 20">
  <g fill="none">
    <path fill="#9D38FF" d="M11.1348206,1.28031038 L11.1348206,4.75266731 C10.0096993,3.9185257 8.16682832,3.27837051 6.36275461,3.27837051 C4.75266731,3.27837051 3.86032978,3.87972842 3.86032978,4.83026188 C3.86032978,5.83899127 4.88845781,6.24636275 6.82832202,6.75072745 C9.36954413,7.41028128 12.1241513,8.28322017 12.1241513,11.5615907 C12.1241513,14.6071775 9.73811833,16.6052376 5.64500485,16.6052376 C3.43355965,16.6052376 1.4742968,16.0038797 0.0581959263,14.9951503 L0.0581959263,11.2318138 C1.35790495,12.3763337 3.16197866,13.3074685 5.47041707,13.3074685 C7.25509214,13.3074685 8.26382153,12.6479146 8.26382153,11.600388 C8.26382153,10.4752667 7.02230844,10.1066925 4.88845781,9.46653734 C2.32783705,8.74878758 0,7.75945684 0,4.92725509 C0,2.09505335 2.32783705,0 6.20756547,0 C8.06983511,0 9.97090204,0.504364694 11.1348206,1.28031038 Z" transform="translate(0 2)"/>
    <path fill="#E80000" d="M15.3443259,14.0446169 C15.3443259,12.7255092 16.3530553,11.7167798 17.6721629,11.7167798 C18.9912706,11.7167798 20,12.7255092 20,14.0446169 C20,15.3637245 18.971872,16.3724539 17.6721629,16.3724539 C16.3530553,16.3918526 15.3443259,15.3443259 15.3443259,14.0446169 Z" transform="translate(0 2)"/>
  </g>
</svg>
