<svg xmlns="http://www.w3.org/2000/svg" viewBox="0 0 20 20">
  <path d="m6.99 5.85-4.74.69-.12.02a1 1 0 0 0-.44 1.68l3.43 3.35-.8 4.71-.02.11a1 1 0 0 0 1.46.95L10 15.13l4.24 2.23.1.04a1 1 0 0 0 1.35-1.1l-.81-4.71 3.43-3.35.08-.08a1 1 0 0 0-.64-1.62l-4.74-.69-2.11-4.3a1 1 0 0 0-1.8 0L7 5.86ZM10 4.25l1.45 2.96.07.1c.15.24.4.4.69.44l3.25.48-2.35 2.29-.09.1a1 1 0 0 0-.2.79l.55 3.23-2.9-1.53-.12-.05a1 1 0 0 0-.82.05l-2.9 1.53.55-3.23.01-.13a1 1 0 0 0-.3-.76l-2.35-2.3 3.25-.47a1 1 0 0 0 .76-.54L10 4.26Z"/>
</svg>
