<svg xmlns="http://www.w3.org/2000/svg" viewBox="0 0 20 20">
  <defs/>
  <path d="M10.4 16.82v-.3a.4.4 0 00-.08-.25l-.45-.1-.49-.1a1.5 1.5 0 00-.17-.08.59.59 0 01-.15-.2A1.9 1.9 0 019 15.3v-.1l.01-.36-.03-1.64a66.08 66.08 0 00.01-.96L8.98 12l.02-.2c.4.22.8.39 1.2.5.21.06.57.1 1.06.1a3.56 3.56 0 002.7-1.22c.4-.44.68-.88.85-1.31.16-.44.24-.97.24-1.6a3.83 3.83 0 00-.8-2.43 2.77 2.77 0 00-.82-.72 2.9 2.9 0 00-1.63-.47c-.6 0-1.14.07-1.63.22-.34.1-.77.3-1.3.63V4H8.4c-.5.35-.9.57-1.2.7-.4.16-.9.3-1.5.42l.02.47c.51.15.83.3.95.43.12.14.2.37.21.7l.09 4.46.06 3.6c.02.45-.03.77-.12.95-.04.07-.2.16-.49.27l-.7.26-.23.13v.4l.12.02c.1 0 .25-.01.47-.04.21-.02.41-.04.6-.04l.48-.03.32-.03.31.01h.34l1.36.12.73.02h.16zm.4-5.14c-.26 0-.58-.05-.94-.15a1.36 1.36 0 01-.64-.44c-.1-.11-.19-.3-.25-.58-.01-.04-.02-.1-.05-.16l.01-.36-.03-1.74c0-1.08.01-1.74.03-1.98a4.03 4.03 0 011.5-.34c.74 0 1.31.24 1.71.71a3.64 3.64 0 01.5 3.97l-.09.21-.1.13a2.23 2.23 0 01-1.63.73z"/>
</svg>
