<svg xmlns="http://www.w3.org/2000/svg" viewBox="0 0 20 20">
    <path d="M16 2c1.1 0 2 .9 2 2v12c0 1.1-.9 2-2 2H4c-1.1 0-2-.9-2-2V4c0-1.1.9-2 2-2zm-5.5 2.1h-1L7.3 9.8l-1.9 4.9c-.2.2-.3.4-.4.5-.1 0-.4.1-.9.2-.3 0-.5.1-.6.1v.6h.2c.4 0 .8 0 1.3-.1l.4-.1c1.4.1 2.3.2 2.7.2v-.7c-.4-.1-.6-.1-.7-.1-.4 0-.7-.1-.8-.2-.1 0-.1-.1-.1-.3 0-.2.1-.4.2-.7.4-1.2.7-1.9.8-2.2H11l.6 1.8.4.9v.2c0 .1 0 .1-.1.2 0 .1-.2.1-.5.2l-1 .2v.6h.5l1.5-.1h1.1c.5 0 1 .1 1.5.1.5.1 1 .1 1.5.1 0-.1 0-.2-.1-.2v-.5c-.3-.1-.6-.2-.8-.2-.2 0-.4-.1-.5-.2-.1 0-.1-.2-.2-.2-.2-.5-.4-.9-.5-1.2-.2-.6-.4-1-.5-1.3-.2-.5-.4-1.1-.7-1.9-.3-.7-.6-1.5-1-2.3l-1.6-3.8-.1-.2zM9.2 7.3c.2.4.4 1 .7 1.7.3.7.5 1.4.7 1.9H7.9z"
          id="b"/>
</svg>
