<svg xmlns="http://www.w3.org/2000/svg" viewBox="0 0 20 20">
  <defs/>
  <path d="M6 16.2l.1-.7h.2c.1 0 .3-.1.3-.1.1 0 .3-.1.6-.2.1 0 .1-.1.2-.1s.2-.1.2-.1l.1-.1c.1-.1.1-.2.1-.3.1-.1.1-.2.1-.4l.5-2.3c.2-1.3.5-2.6.8-4.1.3-1.2.4-2 .4-2.3v-.2s-.1-.1-.2-.1V5h-.3C9 5 9 5 8.9 4.9h-.4l.1-.8.9.1h2.9c.4 0 .7 0 1-.1l.8-.1v.3c0 .2-.1.3-.1.4-.1 0-.2.1-.4.1l-.4.1c-.3.1-.6.2-1 .4v.1c0 .1-.1.1-.1.2l-.1.3c0 .1 0 .2-.1.3 0 .2 0 .3-.1.3 0 .3-.2 1-.4 1.9l-.3 1.4-.6 2.8-.3 1.2-.1.6v.3l-.1.1v.1c.1 0 .6.1 1.4.3v.3c0 .2-.1.4-.1.5h-.6c-.3 0-.5 0-.7-.1-.2-.1-.4-.1-.7-.1H7.8c-.4 0-.8 0-1.1.1l-.7.3z"/>
</svg>
