<svg xmlns="http://www.w3.org/2000/svg" viewBox="0 0 20 20">
  <path d="M0.467529297,14.9267578 C0.467529297,14.7802734 0.482177734,14.6069336 0.511474609,14.4067383 L1.42700195,14.2456055 C1.53930664,14.2211914 1.67358398,14.1821289 1.82983398,14.128418 L1.92504883,12.2973633 L1.89987183,11.2559509 C1.89712524,11.0865784 1.89575195,10.9405518 1.89575195,10.8178711 L1.91615081,10.303602 C1.92208282,10.0360965 1.92504883,9.64599609 1.92504883,9.13330078 L1.91040039,8.92089844 L1.92504883,8.30566406 L1.91772461,7.66845703 L1.91772461,7.35351562 C1.91772461,7.0703125 1.89575195,6.73828125 1.85180664,6.35742188 C1.84692383,6.32324219 1.82739258,6.26464844 1.79321289,6.18164062 L1.73187256,6.16333008 L1.59454346,6.14318848 L1.5222168,6.13037109 C1.33178711,6.09619141 1.12915039,6.07177734 0.914306641,6.05712891 L0.804443359,6.02783203 L0.630493164,6.00219727 C0.580444336,5.99243164 0.538330078,5.98144531 0.504150391,5.96923828 L0.483551025,5.7371521 C0.482635498,5.72097778 0.482177734,5.70800781 0.482177734,5.69824219 C0.482177734,5.63964844 0.496826172,5.55908203 0.526123047,5.45654297 C0.599365234,5.44189453 0.694580078,5.43273926 0.811767578,5.42907715 L1.2550293,5.42255859 C1.27299805,5.42177734 1.28881836,5.42089844 1.30249023,5.41992188 L1.72042847,5.46203613 C2.10952759,5.49865723 2.41210938,5.51879883 2.62817383,5.52246094 L2.82684326,5.52520752 L3.27473958,5.54321289 L3.38256836,5.54443359 C3.54370117,5.54443359 3.93676758,5.52001953 4.56176758,5.47119141 C4.66430664,5.44677734 4.77661133,5.43457031 4.89868164,5.43457031 C5.0793457,5.43457031 5.23071289,5.44433594 5.3527832,5.46386719 L5.36010742,5.68359375 C5.36010742,5.76171875 5.3503418,5.85693359 5.33081055,5.96923828 L4.04174805,6.17431641 C3.93432617,6.22314453 3.88061523,6.29394531 3.88061523,6.38671875 L3.90258789,6.65771484 L3.90991211,6.77490234 L3.90258789,7.09716797 L3.88793945,7.34619141 L3.88793945,7.40478516 C3.89282227,7.45849609 3.89526367,7.50488281 3.89526367,7.54394531 L3.88793945,8.47412109 L3.89526367,8.671875 L3.88061523,8.90625 L3.87512207,9.02526855 L3.87329102,9.14794922 C3.87329102,9.22119141 3.88061523,9.39453125 3.89526367,9.66796875 C4.03198242,9.69238281 4.14672852,9.70703125 4.23950195,9.71191406 L5.32348633,9.73388672 L5.85083008,9.73388672 L7.16918945,9.74121094 L8.45092773,9.70458984 C8.61694336,9.70458984 8.79272461,9.6875 8.97827148,9.65332031 L8.98722331,9.40673828 C8.99264865,9.18863932 8.99698893,8.86311849 9.00024414,8.43017578 L9.01489258,8.10058594 L8.97094727,6.85546875 L8.91967773,6.34277344 C8.9050293,6.30859375 8.87084961,6.27685547 8.81713867,6.24755859 C8.64624023,6.14990234 8.30444336,6.04003906 7.79174805,5.91796875 C7.69897461,5.8984375 7.61108398,5.87402344 7.52807617,5.84472656 C7.5378418,5.67382812 7.55737305,5.53466797 7.58666992,5.42724609 L7.78442383,5.41992188 L8.49487305,5.42724609 C8.94897461,5.48583984 9.41040039,5.51513672 9.87915039,5.51513672 L10.0646973,5.51188151 C10.0907389,5.51079644 10.1143392,5.5094401 10.135498,5.5078125 L11.0876465,5.47851562 L11.3439941,5.46386719 C11.5197754,5.42480469 11.7004395,5.40527344 11.8859863,5.40527344 C12.0275879,5.40527344 12.1984863,5.41259766 12.3986816,5.42724609 C12.3937988,5.61767578 12.3815918,5.79101562 12.3620605,5.94726562 L11.9220924,6.04082108 C11.7140007,6.08678818 11.5664673,6.1227417 11.4794922,6.14868164 C11.340332,6.19018555 11.1999512,6.24755859 11.0583496,6.32080078 L11.0144043,6.46728516 L11.0144043,6.59179688 L11.0217285,6.78222656 L11.0013835,7.04996745 C11.0002984,7.07329644 10.9997559,7.09391276 10.9997559,7.11181641 L11.0070801,7.66113281 L11.0070801,8.59130859 L11.0144043,9.29443359 L10.9983091,10.401114 C10.9987311,10.6458574 11.0065375,11.0264757 11.0217285,11.5429688 L11.0217285,12.5830078 L11.036377,13.4472656 L11.0281372,13.8674927 C11.0263062,13.9205933 11.0241699,13.9758301 11.0217285,14.0332031 C11.1242676,14.0625 11.2194824,14.0869141 11.307373,14.1064453 C11.7663574,14.2041016 12.1130371,14.3041992 12.3474121,14.4067383 L12.3693848,14.9194336 L12.0251465,14.9267578 C11.8493652,14.9267578 11.6543579,14.9185181 11.4401245,14.9020386 L11.2194824,14.8828125 C10.8190918,14.8388672 10.1745605,14.8168945 9.28588867,14.8168945 C8.88549805,14.8168945 8.36791992,14.8486328 7.7331543,14.9121094 C7.66479492,14.9121094 7.58178711,14.8974609 7.48413086,14.8681641 C7.48901367,14.6435547 7.5012207,14.4848633 7.52075195,14.3920898 L8.0847168,14.2602539 L8.67797852,14.1650391 L8.9050293,14.0991211 L8.93432617,13.8304687 C8.96069336,13.5304688 8.97827148,13.1364258 8.98706055,12.6483398 L9.00024414,11.5063477 C8.97094727,11.2475586 8.95629883,10.9375 8.95629883,10.5761719 C8.77563477,10.5615234 8.58032227,10.5517578 8.37036133,10.546875 L4.97192383,10.5102539 L4.85473633,10.4956055 L4.73754883,10.5029297 L4.4152832,10.5102539 L4.21020508,10.5102539 C4.11743164,10.5102539 4.01245117,10.5273438 3.89526367,10.5615234 L3.8659668,11.1108398 L3.8659668,11.2060547 L3.88061523,11.4624023 L3.88061523,13.7329102 C3.88061523,13.8598633 3.88793945,13.9892578 3.90258789,14.1210938 L3.97583008,14.1650391 L5.05249023,14.3334961 L5.14363607,14.362793 L5.17700195,14.3701172 C5.24047852,14.3847656 5.29418945,14.4067383 5.33813477,14.4360352 L5.35873413,14.6269226 C5.35964966,14.6412659 5.36010742,14.6533203 5.36010742,14.6630859 C5.36010742,14.7265625 5.3503418,14.8144531 5.33081055,14.9267578 L4.8840332,14.934082 L4.72839355,14.932251 L4.58374023,14.9267578 C4.53979492,14.9267578 4.49829102,14.9243164 4.45922852,14.9194336 L3.42651367,14.8754883 C3.18237305,14.8510742 2.84057617,14.8388672 2.40112305,14.8388672 L1.91918945,14.8649414 L1.88842773,14.8681641 C1.58569336,14.9072266 1.11206055,14.9267578 0.467529297,14.9267578 Z M18.404541,5.38330078 L18.6755371,5.37597656 L18.939209,5.38330078 L18.8062029,5.99684495 C18.6683862,6.60531851 18.5637958,6.96965144 18.4924316,7.08984375 C18.4338379,7.1875 18.3752441,7.24121094 18.3166504,7.25097656 L17.3864746,7.28759766 L17.1887207,7.28759766 L16.7199707,7.29492188 C16.6418457,7.29492188 16.5246582,7.29003906 16.3684082,7.28027344 L15.5769857,7.25891113 L15.3316243,7.26155599 C15.3017849,7.26264106 15.2689616,7.2639974 15.2331543,7.265625 L15.2111816,7.44140625 C15.2087402,7.46582031 15.2069092,7.48779297 15.2056885,7.50732422 L15.1672363,8.51074219 L15.1379395,9.19921875 C15.3479004,9.09667969 15.5688477,9.01977539 15.8007812,8.96850586 C16.0327148,8.91723633 16.2731934,8.89160156 16.5222168,8.89160156 C16.8884277,8.89160156 17.2460938,8.96240234 17.5952148,9.10400391 C17.9443359,9.24560547 18.2507324,9.44580078 18.5144043,9.70458984 C18.7097168,9.89990234 18.9001465,10.1611328 19.0856934,10.4882812 C19.2175293,10.7226562 19.2907715,10.8984375 19.3054199,11.015625 L19.3933105,11.6967773 C19.3933105,12.0727539 19.3530273,12.4157715 19.2724609,12.7258301 C19.1918945,13.0358887 19.0148926,13.3813477 18.7414551,13.762207 C18.4680176,14.1430664 18.2214355,14.4067383 18.001709,14.5532227 C17.6696777,14.777832 17.3095703,14.9353027 16.9213867,15.0256348 C16.5332031,15.1159668 16.0583496,15.1611328 15.4968262,15.1611328 C14.8376465,15.1611328 14.2858887,15.0024414 13.8415527,14.6850586 C13.5778809,14.4946289 13.4460449,14.2553711 13.4460449,13.9672852 C13.4460449,13.7573242 13.5229492,13.5766602 13.6767578,13.425293 C13.8305664,13.2739258 14.0197754,13.1982422 14.2443848,13.1982422 C14.5910645,13.1982422 14.942627,13.4204102 15.2990723,13.8647461 C15.5090332,14.1333008 15.6677246,14.296875 15.7751465,14.3554688 C15.9411621,14.4482422 16.1291504,14.4946289 16.3391113,14.4946289 C16.6174316,14.4946289 16.8896484,14.4104004 17.1557617,14.2419434 C17.421875,14.0734863 17.6391602,13.8171387 17.8076172,13.4729004 C17.9760742,13.1286621 18.0603027,12.8076172 18.0603027,12.5097656 C18.0603027,11.9970703 17.8857422,11.5563965 17.5366211,11.1877441 C17.1875,10.8190918 16.7712402,10.6347656 16.2878418,10.6347656 C16.0388184,10.6347656 15.8215332,10.6640625 15.6359863,10.7226562 C15.5586751,10.7470703 15.425415,10.8206516 15.2362061,10.9434001 L14.8010254,11.2280273 C14.7424316,11.2524414 14.6862793,11.2646484 14.6325684,11.2646484 C14.5593262,11.2646484 14.498291,11.2451172 14.4494629,11.2060547 C14.4152832,11.171875 14.3981934,11.1254883 14.3981934,11.0668945 L14.486084,8.74511719 C14.486084,8.67675781 14.4882541,8.61382378 14.4925944,8.5563151 L14.508804,8.37636519 C14.5139858,8.29066685 14.5187689,8.16391303 14.5231535,7.99610371 L14.5426432,7.32869466 L14.5812988,6.63574219 L14.5849609,6.49108887 L14.5959473,6.35009766 C14.6008301,6.28662109 14.6032715,6.24023438 14.6032715,6.2109375 L14.5959473,5.93994141 C14.5959473,5.82763672 14.6740723,5.74707031 14.8303223,5.69824219 C14.9133301,5.67382812 15.3039551,5.66162109 16.0021973,5.66162109 L17.6867676,5.68359375 C17.9553223,5.68359375 18.1274414,5.6652832 18.203125,5.62866211 C18.2788086,5.59204102 18.3459473,5.51025391 18.404541,5.38330078 Z"/>
</svg>
