<svg xmlns="http://www.w3.org/2000/svg" viewBox="0 0 20 20">
  <path d="M10.31 16.2h.21c0-.14 0-.25.02-.31l.01-.08a.51.51 0 0 0-.07-.22l-.39-.08c-.29-.06-.47-.1-.54-.13a.24.24 0 0 1-.09-.11l.05-1.88-.01-1.3v-.59a7.4 7.4 0 0 0-.08-1.38 2.3 2.3 0 0 0-.4-.9 2.2 2.2 0 0 0-.81-.64 2.78 2.78 0 0 0-1.23-.25c-.5 0-.98.1-1.44.28-.46.18-.97.5-1.53.94l.02-5.51-.5-.04c-.08.04-.17.08-.26.14a6.88 6.88 0 0 1-1.74.57l-.77.17c-.02.13-.02.24-.02.34v.19c.5.08.83.17.97.26s.22.22.26.38c.06.27.1.97.1 2.11v.26l-.04 3.35-.02.15v1.41l-.03.69v.65c0 .34-.03.56-.1.65-.04.07-.16.1-.36.13-.45.05-.72.09-.82.11v.12c.07.23.13.38.2.46l.9.01 1.29-.06c.3 0 .65.01 1.04.05l1.02.04a1.64 1.64 0 0 0 .02-.63c-.1-.03-.21-.04-.36-.05l-.57-.03c-.11-.06-.18-.13-.2-.2a3.08 3.08 0 0 1-.09-.88l.02-.5c.02-.44.03-1.1.03-1.98v-1.62c.26-.24.57-.46.93-.64.37-.18.75-.27 1.13-.27.33 0 .62.08.85.23.23.15.39.34.46.58.08.23.11.69.11 1.36v2.25l-.04 1.35-.05.22-.53.07c-.19.02-.35.07-.5.13a.65.65 0 0 0-.04.2l.02.13v.22c.05.02.12.02.18.02a23.54 23.54 0 0 0 1.95-.05c.35 0 .78.02 1.3.07l.54.04Zm6-.03.64-.03a18.85 18.85 0 0 1 .9.02h.96a64.4 64.4 0 0 0 .45-3.11.26.26 0 0 0-.05-.14l-.12-.04-.6.04c-.09.2-.14.34-.17.44-.14.41-.3.68-.47.79-.17.1-.5.16-1.02.16l-.98-.02-1.68.04-1.02-.02a85.98 85.98 0 0 0 2.88-2.73 24.97 24.97 0 0 0 1.95-2.08c.24-.32.44-.7.6-1.15.12-.33.18-.67.18-1.04 0-.93-.31-1.7-.93-2.3a3.48 3.48 0 0 0-2.55-.93c-1.3 0-2.3.43-3.02 1.28-.46.54-.69 1.11-.69 1.7l.03.67h.67c.05-.47.2-.92.42-1.36.15-.3.38-.55.7-.75.32-.2.68-.3 1.08-.3.39 0 .75.11 1.09.32.33.21.57.5.7.86a3.56 3.56 0 0 1-.12 2.66c-.21.55-.6 1.18-1.17 1.88a28.1 28.1 0 0 1-1.87 2.19c-.44.44-1.1 1.21-1.97 2.32v.62h.6l1.48-.02.93.02h.43l1.04-.03c.21 0 .4 0 .54.02l.17.02Z"/>
</svg>
