<svg xmlns="http://www.w3.org/2000/svg" viewBox="0 0 20 20">
  <path d="M0.467529297,14.9267578 C0.467529297,14.7802734 0.482177734,14.6069336 0.511474609,14.4067383 L1.42700195,14.2456055 C1.53930664,14.2211914 1.67358398,14.1821289 1.82983398,14.128418 L1.92504883,12.2973633 L1.89987183,11.2559509 C1.89712524,11.0865784 1.89575195,10.9405518 1.89575195,10.8178711 L1.91615081,10.303602 C1.92208282,10.0360965 1.92504883,9.64599609 1.92504883,9.13330078 L1.91040039,8.92089844 L1.92504883,8.30566406 L1.91772461,7.66845703 L1.91772461,7.35351562 C1.91772461,7.0703125 1.89575195,6.73828125 1.85180664,6.35742188 C1.84692383,6.32324219 1.82739258,6.26464844 1.79321289,6.18164062 L1.73187256,6.16333008 L1.59454346,6.14318848 L1.5222168,6.13037109 C1.33178711,6.09619141 1.12915039,6.07177734 0.914306641,6.05712891 L0.804443359,6.02783203 L0.630493164,6.00219727 C0.580444336,5.99243164 0.538330078,5.98144531 0.504150391,5.96923828 L0.483551025,5.7371521 C0.482635498,5.72097778 0.482177734,5.70800781 0.482177734,5.69824219 C0.482177734,5.63964844 0.496826172,5.55908203 0.526123047,5.45654297 C0.599365234,5.44189453 0.694580078,5.43273926 0.811767578,5.42907715 L1.2550293,5.42255859 C1.27299805,5.42177734 1.28881836,5.42089844 1.30249023,5.41992188 L1.72042847,5.46203613 C2.10952759,5.49865723 2.41210938,5.51879883 2.62817383,5.52246094 L2.82684326,5.52520752 L3.27473958,5.54321289 L3.38256836,5.54443359 C3.54370117,5.54443359 3.93676758,5.52001953 4.56176758,5.47119141 C4.66430664,5.44677734 4.77661133,5.43457031 4.89868164,5.43457031 C5.0793457,5.43457031 5.23071289,5.44433594 5.3527832,5.46386719 L5.36010742,5.68359375 C5.36010742,5.76171875 5.3503418,5.85693359 5.33081055,5.96923828 L4.04174805,6.17431641 C3.93432617,6.22314453 3.88061523,6.29394531 3.88061523,6.38671875 L3.90258789,6.65771484 L3.90991211,6.77490234 L3.90258789,7.09716797 L3.88793945,7.34619141 L3.88793945,7.40478516 C3.89282227,7.45849609 3.89526367,7.50488281 3.89526367,7.54394531 L3.88793945,8.47412109 L3.89526367,8.671875 L3.88061523,8.90625 L3.87512207,9.02526855 L3.87329102,9.14794922 C3.87329102,9.22119141 3.88061523,9.39453125 3.89526367,9.66796875 C4.03198242,9.69238281 4.14672852,9.70703125 4.23950195,9.71191406 L5.32348633,9.73388672 L5.85083008,9.73388672 L7.16918945,9.74121094 L8.45092773,9.70458984 C8.61694336,9.70458984 8.79272461,9.6875 8.97827148,9.65332031 L8.98722331,9.40673828 C8.99264865,9.18863932 8.99698893,8.86311849 9.00024414,8.43017578 L9.01489258,8.10058594 L8.97094727,6.85546875 L8.91967773,6.34277344 C8.9050293,6.30859375 8.87084961,6.27685547 8.81713867,6.24755859 C8.64624023,6.14990234 8.30444336,6.04003906 7.79174805,5.91796875 C7.69897461,5.8984375 7.61108398,5.87402344 7.52807617,5.84472656 C7.5378418,5.67382812 7.55737305,5.53466797 7.58666992,5.42724609 L7.78442383,5.41992188 L8.49487305,5.42724609 C8.94897461,5.48583984 9.41040039,5.51513672 9.87915039,5.51513672 L10.0646973,5.51188151 C10.0907389,5.51079644 10.1143392,5.5094401 10.135498,5.5078125 L11.0876465,5.47851562 L11.3439941,5.46386719 C11.5197754,5.42480469 11.7004395,5.40527344 11.8859863,5.40527344 C12.0275879,5.40527344 12.1984863,5.41259766 12.3986816,5.42724609 C12.3937988,5.61767578 12.3815918,5.79101562 12.3620605,5.94726562 L11.9220924,6.04082108 C11.7140007,6.08678818 11.5664673,6.1227417 11.4794922,6.14868164 C11.340332,6.19018555 11.1999512,6.24755859 11.0583496,6.32080078 L11.0144043,6.46728516 L11.0144043,6.59179688 L11.0217285,6.78222656 L11.0013835,7.04996745 C11.0002984,7.07329644 10.9997559,7.09391276 10.9997559,7.11181641 L11.0070801,7.66113281 L11.0070801,8.59130859 L11.0144043,9.29443359 L10.9983091,10.401114 C10.9987311,10.6458574 11.0065375,11.0264757 11.0217285,11.5429688 L11.0217285,12.5830078 L11.036377,13.4472656 L11.0281372,13.8674927 C11.0263062,13.9205933 11.0241699,13.9758301 11.0217285,14.0332031 C11.1242676,14.0625 11.2194824,14.0869141 11.307373,14.1064453 C11.7663574,14.2041016 12.1130371,14.3041992 12.3474121,14.4067383 L12.3693848,14.9194336 L12.0251465,14.9267578 C11.8493652,14.9267578 11.6543579,14.9185181 11.4401245,14.9020386 L11.2194824,14.8828125 C10.8190918,14.8388672 10.1745605,14.8168945 9.28588867,14.8168945 C8.88549805,14.8168945 8.36791992,14.8486328 7.7331543,14.9121094 C7.66479492,14.9121094 7.58178711,14.8974609 7.48413086,14.8681641 C7.48901367,14.6435547 7.5012207,14.4848633 7.52075195,14.3920898 L8.0847168,14.2602539 L8.67797852,14.1650391 L8.9050293,14.0991211 L8.93432617,13.8304687 C8.96069336,13.5304688 8.97827148,13.1364258 8.98706055,12.6483398 L9.00024414,11.5063477 C8.97094727,11.2475586 8.95629883,10.9375 8.95629883,10.5761719 C8.77563477,10.5615234 8.58032227,10.5517578 8.37036133,10.546875 L4.97192383,10.5102539 L4.85473633,10.4956055 L4.73754883,10.5029297 L4.4152832,10.5102539 L4.21020508,10.5102539 C4.11743164,10.5102539 4.01245117,10.5273438 3.89526367,10.5615234 L3.8659668,11.1108398 L3.8659668,11.2060547 L3.88061523,11.4624023 L3.88061523,13.7329102 C3.88061523,13.8598633 3.88793945,13.9892578 3.90258789,14.1210938 L3.97583008,14.1650391 L5.05249023,14.3334961 L5.14363607,14.362793 L5.17700195,14.3701172 C5.24047852,14.3847656 5.29418945,14.4067383 5.33813477,14.4360352 L5.35873413,14.6269226 C5.35964966,14.6412659 5.36010742,14.6533203 5.36010742,14.6630859 C5.36010742,14.7265625 5.3503418,14.8144531 5.33081055,14.9267578 L4.8840332,14.934082 L4.72839355,14.932251 L4.58374023,14.9267578 C4.53979492,14.9267578 4.49829102,14.9243164 4.45922852,14.9194336 L3.42651367,14.8754883 C3.18237305,14.8510742 2.84057617,14.8388672 2.40112305,14.8388672 L1.91918945,14.8649414 L1.88842773,14.8681641 C1.58569336,14.9072266 1.11206055,14.9267578 0.467529297,14.9267578 Z M19.6569824,11.4550781 L19.6569824,12.6855469 L19.2430176,12.7040039 C19.164502,12.7063477 19.0949707,12.7075195 19.0344238,12.7075195 L18.7927246,12.7020264 C18.7023926,12.6983643 18.6022949,12.6928711 18.4924316,12.6855469 L18.4718323,12.8709412 C18.4709167,12.882843 18.470459,12.8918457 18.470459,12.8979492 L18.4851074,13.3374023 L18.4777832,13.8061523 L18.4924316,14.128418 L18.4783691,14.437793 L18.4599121,14.7577148 C18.4552246,14.868457 18.451416,15.0029297 18.4484863,15.1611328 L17.8186035,15.1538086 L17.4304199,15.1538086 C17.3278809,15.1538086 17.2497559,15.1513672 17.1960449,15.1464844 L17.0715332,15.1318359 C17.0373535,15.1318359 16.9836426,15.1416016 16.9104004,15.1611328 L16.9250488,13.7402344 L16.895752,12.824707 L16.9104004,12.6855469 L15.8630371,12.7001953 L15.3796387,12.7001953 C15.0683594,12.7001953 14.7309875,12.6960754 14.3675232,12.6878357 L13.6804199,12.6708984 L13.3435059,12.6855469 L13.3288574,12.590332 L13.3508301,12.0849609 L13.3361816,11.9238281 L13.3581543,11.6235352 L13.3435059,11.5649414 L13.6254883,11.0412598 C13.6987305,10.9094238 13.7512207,10.8203125 13.782959,10.7739258 L15.4602051,8.19580078 L15.8507347,7.62571335 C15.9700966,7.45439529 16.0786438,7.30178833 16.1763763,7.16789246 L16.5572103,6.65934245 C16.6754829,6.49875217 16.763916,6.37125651 16.8225098,6.27685547 C16.9250488,6.11206055 17.0179749,5.97335815 17.1012878,5.86074829 L17.3372559,5.55527344 C17.4022949,5.46796875 17.447998,5.40087891 17.4743652,5.35400391 L17.9707845,5.3326416 L18.0163574,5.33203125 C18.1091309,5.33203125 18.2824707,5.33935547 18.536377,5.35400391 L18.5510254,5.44189453 L18.5217285,5.98388672 L18.536377,6.17431641 L18.5144043,6.47460938 L18.5290527,6.77490234 L18.5070801,7.81494141 L18.5144043,8.22509766 L18.5070801,8.60595703 L18.5144043,9.12597656 L18.5070801,9.62402344 L18.5144043,10.2026367 L18.4924316,11.4550781 C18.6633301,11.4550781 18.8757324,11.4599609 19.1296387,11.4697266 L19.4519043,11.4660645 C19.510498,11.463623 19.5788574,11.4599609 19.6569824,11.4550781 Z M16.4929199,11.4404297 L16.9104004,11.4404297 L16.9385254,11.1767578 C16.9490723,11.0595703 16.9543457,10.9643555 16.9543457,10.8911133 L16.932373,10.3564453 L16.9543457,9.78515625 L16.9396973,9.29443359 L16.9616699,8.02734375 L16.9543457,7.44873047 C16.9543457,7.39990234 16.9592285,7.28515625 16.9689941,7.10449219 L16.8884277,7.21435547 C16.854248,7.25830078 16.8127441,7.30957031 16.763916,7.36816406 L16.6705322,7.51464844 C16.6424561,7.55615234 16.6174316,7.59033203 16.595459,7.6171875 C16.4050293,7.8515625 16.192627,8.14208984 15.958252,8.48876953 L15.1623535,9.76155599 L14.9829865,10.0547791 L14.6142578,10.6274414 C14.4311523,10.9057617 14.2785645,11.1767578 14.1564941,11.4404297 L14.3414307,11.4239502 C14.3914795,11.4202881 14.4299316,11.418457 14.4567871,11.418457 L14.8083496,11.4257812 L15.5114746,11.4257812 L16.4929199,11.4404297 Z"/>
</svg>
