<svg xmlns="http://www.w3.org/2000/svg" viewBox="0 0 20 20">
  <path d="M1.01318359,14.9267578 C1.01318359,14.7802734 1.02783203,14.6069336 1.05712891,14.4067383 L1.97265625,14.2456055 C2.08496094,14.2211914 2.21923828,14.1821289 2.37548828,14.128418 L2.47070312,12.2973633 L2.44552612,11.2559509 C2.44277954,11.0865784 2.44140625,10.9405518 2.44140625,10.8178711 L2.45908122,10.4107414 C2.46682916,10.1450518 2.47070312,9.71923828 2.47070312,9.13330078 L2.45605469,8.92089844 L2.47070312,8.30566406 L2.46337891,7.66845703 L2.46337891,7.35351562 C2.46337891,7.0703125 2.44140625,6.73828125 2.39746094,6.35742188 C2.39257812,6.32324219 2.37304688,6.26464844 2.33886719,6.18164062 L2.27752686,6.16333008 L2.14019775,6.14318848 L2.06787109,6.13037109 C1.87744141,6.09619141 1.67480469,6.07177734 1.45996094,6.05712891 L1.35009766,6.02783203 L1.17614746,6.00219727 C1.12609863,5.99243164 1.08398438,5.98144531 1.04980469,5.96923828 L1.02783203,5.69824219 C1.02783203,5.63964844 1.04248047,5.55908203 1.07177734,5.45654297 C1.14501953,5.44189453 1.24023438,5.43273926 1.35742188,5.42907715 L1.80068359,5.42255859 C1.81865234,5.42177734 1.83447266,5.42089844 1.84814453,5.41992188 L2.26608276,5.46203613 C2.65518188,5.49865723 2.95776367,5.51879883 3.17382812,5.52246094 L3.37249756,5.52520752 L3.82039388,5.54321289 L3.92822266,5.54443359 C4.08935547,5.54443359 4.48242188,5.52001953 5.10742188,5.47119141 C5.20996094,5.44677734 5.32226562,5.43457031 5.44433594,5.43457031 C5.625,5.43457031 5.77636719,5.44433594 5.8984375,5.46386719 L5.90576172,5.68359375 C5.90576172,5.76171875 5.89599609,5.85693359 5.87646484,5.96923828 L4.58740234,6.17431641 C4.47998047,6.22314453 4.42626953,6.29394531 4.42626953,6.38671875 L4.44824219,6.65771484 L4.45556641,6.77490234 L4.44824219,7.09716797 L4.43359375,7.34619141 L4.43359375,7.40478516 L4.43908691,7.4798584 L4.43359375,8.47412109 L4.44010417,8.62060547 L4.43857422,8.72695312 L4.42077637,9.02526855 L4.41894531,9.14794922 C4.41894531,9.22119141 4.42626953,9.39453125 4.44091797,9.66796875 C4.57763672,9.69238281 4.69238281,9.70703125 4.78515625,9.71191406 L5.86914062,9.73388672 L6.39648438,9.73388672 L7.71484375,9.74121094 L8.99658203,9.70458984 C9.16259766,9.70458984 9.33837891,9.6875 9.52392578,9.65332031 L9.53007451,9.50683594 C9.53682605,9.29416233 9.54210069,8.93527561 9.54589844,8.43017578 L9.56054688,8.10058594 L9.51660156,6.85546875 L9.46533203,6.34277344 C9.45068359,6.30859375 9.41650391,6.27685547 9.36279297,6.24755859 C9.19189453,6.14990234 8.85009766,6.04003906 8.33740234,5.91796875 C8.24462891,5.8984375 8.15673828,5.87402344 8.07373047,5.84472656 C8.08349609,5.67382812 8.10302734,5.53466797 8.13232422,5.42724609 L8.33007812,5.41992188 L9.04052734,5.42724609 C9.49462891,5.48583984 9.95605469,5.51513672 10.4248047,5.51513672 L10.6103516,5.51188151 C10.6363932,5.51079644 10.6599935,5.5094401 10.6811523,5.5078125 L11.6333008,5.47851562 L11.8896484,5.46386719 C12.0654297,5.42480469 12.2460938,5.40527344 12.4316406,5.40527344 C12.5732422,5.40527344 12.7441406,5.41259766 12.9443359,5.42724609 C12.9394531,5.61767578 12.9272461,5.79101562 12.9077148,5.94726562 L12.4677467,6.04082108 C12.259655,6.08678818 12.1121216,6.1227417 12.0251465,6.14868164 C11.8859863,6.19018555 11.7456055,6.24755859 11.6040039,6.32080078 L11.5600586,6.46728516 L11.5600586,6.59179688 L11.5673828,6.78222656 L11.5600586,6.87744141 C11.550293,6.97998047 11.5454102,7.05810547 11.5454102,7.11181641 L11.5527344,7.66113281 L11.5527344,8.59130859 L11.5600586,9.29443359 L11.5439634,10.401114 C11.5443854,10.6458574 11.5521918,11.0264757 11.5673828,11.5429688 L11.5673828,12.5830078 L11.5820312,13.4472656 L11.5783691,13.7145996 C11.5759277,13.8122559 11.5722656,13.918457 11.5673828,14.0332031 L11.7156982,14.0734863 L11.8530273,14.1064453 C12.3120117,14.2041016 12.6586914,14.3041992 12.8930664,14.4067383 L12.9150391,14.9194336 L12.5708008,14.9267578 C12.3950195,14.9267578 12.2000122,14.9185181 11.9857788,14.9020386 L11.7651367,14.8828125 C11.3647461,14.8388672 10.7202148,14.8168945 9.83154297,14.8168945 C9.43115234,14.8168945 8.91357422,14.8486328 8.27880859,14.9121094 C8.21044922,14.9121094 8.12744141,14.8974609 8.02978516,14.8681641 L8.03916016,14.6302734 C8.04560547,14.5271484 8.0546875,14.4477539 8.06640625,14.3920898 L8.63037109,14.2602539 L9.22363281,14.1650391 L9.45068359,14.0991211 C9.49365234,13.7827148 9.52099609,13.2991211 9.53271484,12.6483398 L9.54589844,11.5063477 C9.51660156,11.2475586 9.50195312,10.9375 9.50195312,10.5761719 C9.32128906,10.5615234 9.12597656,10.5517578 8.91601562,10.546875 L5.51757812,10.5102539 L5.40039062,10.4956055 L5.28320312,10.5029297 L4.9609375,10.5102539 L4.75585938,10.5102539 C4.66308594,10.5102539 4.55810547,10.5273438 4.44091797,10.5615234 L4.41162109,11.1108398 L4.41162109,11.2060547 L4.42626953,11.4624023 L4.42626953,13.7329102 C4.42626953,13.8598633 4.43359375,13.9892578 4.44824219,14.1210938 L4.52148438,14.1650391 L5.59814453,14.3334961 L5.68929036,14.362793 L5.72265625,14.3701172 C5.78613281,14.3847656 5.83984375,14.4067383 5.88378906,14.4360352 L5.90438843,14.6269226 C5.90530396,14.6412659 5.90576172,14.6533203 5.90576172,14.6630859 C5.90576172,14.7265625 5.89599609,14.8144531 5.87646484,14.9267578 L5.4296875,14.934082 L5.27404785,14.932251 L5.12939453,14.9267578 C5.08544922,14.9267578 5.04394531,14.9243164 5.00488281,14.9194336 L3.97216797,14.8754883 C3.72802734,14.8510742 3.38623047,14.8388672 2.94677734,14.8388672 L2.46484375,14.8649414 L2.43408203,14.8681641 C2.13134766,14.9072266 1.65771484,14.9267578 1.01318359,14.9267578 Z M16.5258789,5.34667969 L17.0239258,5.33203125 L17.2583008,5.33935547 L17.7197266,5.34667969 L17.7416992,5.54992676 C17.7441406,5.57861328 17.7459717,5.60470581 17.7471924,5.62820435 L17.7471924,5.76599121 L17.7307129,6.39724731 L17.7124023,7.80761719 L17.7197266,8.50341797 L17.668457,13.4472656 L17.668457,13.8647461 C17.668457,14.0112305 17.7026367,14.1162109 17.7709961,14.1796875 C17.8295898,14.234096 17.9724868,14.2813297 18.1996871,14.3213887 L18.6360013,14.3898477 C18.7436224,14.4080835 18.8727679,14.4308036 19.0234375,14.4580078 C19.0332031,14.5068359 19.0380859,14.5532227 19.0380859,14.597168 L19.0234375,14.9487305 L18.4611003,14.9454753 C18.3211263,14.9422201 18.1567383,14.9365234 17.9679362,14.9283854 L17.4071289,14.9009766 L17.2185321,14.8977636 L15.7568359,14.9414062 L15.625,14.9414062 L15.4125977,14.9267578 L15.2148438,14.9414062 L14.8486328,14.9267578 L14.7369385,14.932251 C14.6868896,14.9359131 14.6240234,14.9414062 14.5483398,14.9487305 L14.535319,14.7664388 C14.5342339,14.7414822 14.5336914,14.7192383 14.5336914,14.699707 L14.5402018,14.5564779 C14.542372,14.5266385 14.5450846,14.4938151 14.5483398,14.4580078 C14.6948242,14.4177246 14.8591614,14.3774414 15.0413513,14.3371582 L15.2294922,14.296875 C15.5859375,14.2236328 15.8044434,14.1516113 15.8850098,14.0808105 C15.9655762,14.0100098 16.0058594,13.9160156 16.0058594,13.7988281 L15.9985352,13.3007812 L16.027832,12.7587891 L16.0205078,11.6455078 L16.0131836,11.3598633 C16.0131836,11.3208008 16.0180664,11.1743164 16.027832,10.9204102 L16.0408529,10.6762695 L16.0424805,10.5688477 C16.0424805,10.5053711 16.0351562,10.3076172 16.0205078,9.97558594 L16.0498047,9.55810547 L16.0228994,9.0760523 C16.021305,9.03818559 16.0205078,9.0108817 16.0205078,8.99414062 C16.0205078,8.92089844 16.0229492,8.84765625 16.027832,8.77441406 L16.0424805,8.59130859 L16.0205078,8.09326172 L16.0424805,7.86621094 L16.0493469,7.57781982 L16.0424805,6.84814453 C15.7824707,7.04223633 15.4949951,7.23632812 15.1800537,7.43041992 L14.855957,7.62451172 C14.8071289,7.65380859 14.5874023,7.75390625 14.1967773,7.92480469 C14.0405273,7.69042969 13.9404297,7.51464844 13.8964844,7.39746094 L14.25354,7.20932007 C14.5794678,7.03445435 14.8120117,6.89941406 14.9511719,6.80419922 C15.2587891,6.58935547 15.5908203,6.32080078 15.9472656,5.99853516 C16.0986328,5.85693359 16.2915039,5.63964844 16.5258789,5.34667969 Z"/>
</svg>
