<svg xmlns="http://www.w3.org/2000/svg" viewBox="0 0 20 20">
  <path d="M10.45 16h.21c0-.14 0-.24.02-.3v-.08a.5.5 0 0 0-.06-.22l-.38-.08c-.29-.05-.47-.1-.54-.13a.23.23 0 0 1-.08-.1l.05-1.85-.01-1.28v-.58c0-.67-.03-1.13-.09-1.36a2.26 2.26 0 0 0-.4-.9 2.17 2.17 0 0 0-.79-.61 2.74 2.74 0 0 0-1.2-.25c-.5 0-.97.1-1.42.27-.45.18-.96.5-1.5.93l.01-5.42L3.78 4l-.25.14a6.77 6.77 0 0 1-1.71.56l-.77.16a3.8 3.8 0 0 0-.01.34v.19c.5.08.82.16.95.25.14.1.22.22.26.37.06.27.1.96.1 2.09v.25l-.04 3.3-.02.14v1.38l-.03.68v.65c0 .33-.03.55-.1.64-.04.06-.16.1-.35.13a9 9 0 0 0-.81.1v.12c.07.22.13.37.19.46h.89l1.27-.06c.3 0 .64.02 1.02.05l1 .04a1.61 1.61 0 0 0 .03-.62c-.1-.03-.21-.04-.36-.04s-.34-.02-.56-.04c-.1-.06-.17-.12-.2-.2a3.03 3.03 0 0 1-.08-.86l.02-.49c.02-.43.02-1.08.02-1.95v-1.59c.26-.24.57-.45.92-.63.36-.18.73-.27 1.12-.27.32 0 .6.08.83.23.23.14.38.33.45.57.07.23.11.67.11 1.33v2.22l-.04 1.33-.05.21-.52.07c-.19.02-.35.07-.49.13a.64.64 0 0 0-.04.2l.02.12v.22c.05.02.11.03.18.03a23.15 23.15 0 0 0 1.91-.06c.35 0 .77.03 1.28.07.26.03.44.04.53.04Zm7.24.2a14.49 14.49 0 0 1 .05-1.28l-.02-.4.01-.58-.02-.54.03-.26a10.46 10.46 0 0 0 1.44 0V11.6c-.2.02-.34.02-.43.02h-.22l-.79-.02.03-1.55-.01-.71V6.7l.03-.89-.02-.37.03-.37-.02-.24.03-.67-.01-.1a13.5 13.5 0 0 0-1.32 0c-.05.09-.17.26-.36.5-.13.15-.28.36-.45.64-.1.17-.3.44-.57.8-.28.36-.65.88-1.11 1.57l-2.08 3.2c-.08.1-.26.43-.54.97l.02.07-.03.37.02.2-.03.63.02.12a7.15 7.15 0 0 1 .8-.01c.63.02 1.2.02 1.72.02h.6l1.3-.01a1.5 1.5 0 0 0-.02.17l.03 1.13-.02 1.76.2-.04.16.02.29.01h.48l.78.01Zm-1.9-4.6h-.52l-1.22-.02h-.87l-.43-.01c-.07 0-.2 0-.37.03.15-.33.34-.67.56-1.01a34.97 34.97 0 0 0 .85-1.34l.81-1.3c.3-.44.56-.8.8-1.09l.2-.3.26-.33-.02.43v.71l-.02 1.57.02.6-.03.71a7.83 7.83 0 0 0 .03.67c0 .15-.02.37-.06.68Z"/>
</svg>
