<svg xmlns="http://www.w3.org/2000/svg" viewBox="0 0 20 20">
  <path d="M0.467529297,14.9267578 C0.467529297,14.7802734 0.482177734,14.6069336 0.511474609,14.4067383 L1.42700195,14.2456055 C1.53930664,14.2211914 1.67358398,14.1821289 1.82983398,14.128418 L1.92504883,12.2973633 L1.89987183,11.2559509 C1.89712524,11.0865784 1.89575195,10.9405518 1.89575195,10.8178711 L1.91615081,10.303602 C1.92208282,10.0360965 1.92504883,9.64599609 1.92504883,9.13330078 L1.91040039,8.92089844 L1.92504883,8.30566406 L1.91772461,7.66845703 L1.91772461,7.35351562 C1.91772461,7.0703125 1.89575195,6.73828125 1.85180664,6.35742188 C1.84692383,6.32324219 1.82739258,6.26464844 1.79321289,6.18164062 L1.73187256,6.16333008 L1.59454346,6.14318848 L1.5222168,6.13037109 C1.33178711,6.09619141 1.12915039,6.07177734 0.914306641,6.05712891 L0.804443359,6.02783203 L0.630493164,6.00219727 C0.580444336,5.99243164 0.538330078,5.98144531 0.504150391,5.96923828 L0.483551025,5.7371521 C0.482635498,5.72097778 0.482177734,5.70800781 0.482177734,5.69824219 C0.482177734,5.63964844 0.496826172,5.55908203 0.526123047,5.45654297 C0.599365234,5.44189453 0.694580078,5.43273926 0.811767578,5.42907715 L1.2550293,5.42255859 C1.27299805,5.42177734 1.28881836,5.42089844 1.30249023,5.41992188 L1.72042847,5.46203613 C2.10952759,5.49865723 2.41210938,5.51879883 2.62817383,5.52246094 L2.82684326,5.52520752 L3.27473958,5.54321289 L3.38256836,5.54443359 C3.54370117,5.54443359 3.93676758,5.52001953 4.56176758,5.47119141 C4.66430664,5.44677734 4.77661133,5.43457031 4.89868164,5.43457031 C5.0793457,5.43457031 5.23071289,5.44433594 5.3527832,5.46386719 L5.36010742,5.68359375 C5.36010742,5.76171875 5.3503418,5.85693359 5.33081055,5.96923828 L4.04174805,6.17431641 C3.93432617,6.22314453 3.88061523,6.29394531 3.88061523,6.38671875 L3.90258789,6.65771484 L3.90991211,6.77490234 L3.90258789,7.09716797 L3.88793945,7.34619141 L3.88793945,7.40478516 C3.89282227,7.45849609 3.89526367,7.50488281 3.89526367,7.54394531 L3.88793945,8.47412109 L3.89526367,8.671875 L3.88061523,8.90625 L3.87512207,9.02526855 L3.87329102,9.14794922 C3.87329102,9.22119141 3.88061523,9.39453125 3.89526367,9.66796875 C4.03198242,9.69238281 4.14672852,9.70703125 4.23950195,9.71191406 L5.32348633,9.73388672 L5.85083008,9.73388672 L7.16918945,9.74121094 L8.45092773,9.70458984 C8.61694336,9.70458984 8.79272461,9.6875 8.97827148,9.65332031 L8.98722331,9.40673828 C8.99264865,9.18863932 8.99698893,8.86311849 9.00024414,8.43017578 L9.01489258,8.10058594 L8.97094727,6.85546875 L8.91967773,6.34277344 C8.9050293,6.30859375 8.87084961,6.27685547 8.81713867,6.24755859 C8.64624023,6.14990234 8.30444336,6.04003906 7.79174805,5.91796875 C7.69897461,5.8984375 7.61108398,5.87402344 7.52807617,5.84472656 C7.5378418,5.67382812 7.55737305,5.53466797 7.58666992,5.42724609 L7.78442383,5.41992188 L8.49487305,5.42724609 C8.94897461,5.48583984 9.41040039,5.51513672 9.87915039,5.51513672 L10.0646973,5.51188151 C10.0907389,5.51079644 10.1143392,5.5094401 10.135498,5.5078125 L11.0876465,5.47851562 L11.3439941,5.46386719 C11.5197754,5.42480469 11.7004395,5.40527344 11.8859863,5.40527344 C12.0275879,5.40527344 12.1984863,5.41259766 12.3986816,5.42724609 C12.3937988,5.61767578 12.3815918,5.79101562 12.3620605,5.94726562 L11.9220924,6.04082108 C11.7140007,6.08678818 11.5664673,6.1227417 11.4794922,6.14868164 C11.340332,6.19018555 11.1999512,6.24755859 11.0583496,6.32080078 L11.0144043,6.46728516 L11.0144043,6.59179688 L11.0217285,6.78222656 L11.0013835,7.04996745 C11.0002984,7.07329644 10.9997559,7.09391276 10.9997559,7.11181641 L11.0070801,7.66113281 L11.0070801,8.59130859 L11.0144043,9.29443359 L10.9983091,10.401114 C10.9987311,10.6458574 11.0065375,11.0264757 11.0217285,11.5429688 L11.0217285,12.5830078 L11.036377,13.4472656 L11.0281372,13.8674927 C11.0263062,13.9205933 11.0241699,13.9758301 11.0217285,14.0332031 C11.1242676,14.0625 11.2194824,14.0869141 11.307373,14.1064453 C11.7663574,14.2041016 12.1130371,14.3041992 12.3474121,14.4067383 L12.3693848,14.9194336 L12.0251465,14.9267578 C11.8493652,14.9267578 11.6543579,14.9185181 11.4401245,14.9020386 L11.2194824,14.8828125 C10.8190918,14.8388672 10.1745605,14.8168945 9.28588867,14.8168945 C8.88549805,14.8168945 8.36791992,14.8486328 7.7331543,14.9121094 C7.66479492,14.9121094 7.58178711,14.8974609 7.48413086,14.8681641 C7.48901367,14.6435547 7.5012207,14.4848633 7.52075195,14.3920898 L8.0847168,14.2602539 L8.67797852,14.1650391 L8.9050293,14.0991211 L8.93432617,13.8304687 C8.96069336,13.5304688 8.97827148,13.1364258 8.98706055,12.6483398 L9.00024414,11.5063477 C8.97094727,11.2475586 8.95629883,10.9375 8.95629883,10.5761719 C8.77563477,10.5615234 8.58032227,10.5517578 8.37036133,10.546875 L4.97192383,10.5102539 L4.85473633,10.4956055 L4.73754883,10.5029297 L4.4152832,10.5102539 L4.21020508,10.5102539 C4.11743164,10.5102539 4.01245117,10.5273438 3.89526367,10.5615234 L3.8659668,11.1108398 L3.8659668,11.2060547 L3.88061523,11.4624023 L3.88061523,13.7329102 C3.88061523,13.8598633 3.88793945,13.9892578 3.90258789,14.1210938 L3.97583008,14.1650391 L5.05249023,14.3334961 L5.14363607,14.362793 L5.17700195,14.3701172 C5.24047852,14.3847656 5.29418945,14.4067383 5.33813477,14.4360352 L5.35873413,14.6269226 C5.35964966,14.6412659 5.36010742,14.6533203 5.36010742,14.6630859 C5.36010742,14.7265625 5.3503418,14.8144531 5.33081055,14.9267578 L4.8840332,14.934082 L4.72839355,14.932251 L4.58374023,14.9267578 C4.53979492,14.9267578 4.49829102,14.9243164 4.45922852,14.9194336 L3.42651367,14.8754883 C3.18237305,14.8510742 2.84057617,14.8388672 2.40112305,14.8388672 L1.91918945,14.8649414 L1.88842773,14.8681641 C1.58569336,14.9072266 1.11206055,14.9267578 0.467529297,14.9267578 Z M19.3566895,14.9707031 L18.4667969,14.9702454 L17.8771973,14.9560547 L17.3791504,14.9780273 L17.2473145,14.9633789 C17.1691895,14.9536133 17.0791287,14.9471029 16.9771322,14.9438477 L16.7391034,14.9418547 L15.6506348,14.9707031 L14.9108887,14.9560547 L13.7243652,14.9707031 L13.2556152,14.9707031 L13.2556152,14.4726562 L13.6167416,14.0195232 C14.0754838,13.4503729 14.4431879,13.021331 14.7198537,12.7323977 L14.8193359,12.6306152 C15.168457,12.2814941 15.6652832,11.7016602 16.3098145,10.8911133 C16.7590332,10.3344727 17.0678711,9.83642578 17.2363281,9.39697266 C17.4047852,8.95751953 17.4890137,8.57666016 17.4890137,8.25439453 C17.4890137,7.89306641 17.4365234,7.56835938 17.331543,7.28027344 C17.2265625,6.9921875 17.0410156,6.76513672 16.7749023,6.59912109 C16.5087891,6.43310547 16.2194824,6.35009766 15.9069824,6.35009766 C15.5895996,6.35009766 15.3039551,6.42822266 15.0500488,6.58447266 C14.7961426,6.74072266 14.6105957,6.93847656 14.4934082,7.17773438 C14.3127441,7.52441406 14.2028809,7.88574219 14.1638184,8.26171875 L13.6291504,8.26171875 L13.6126709,7.97241211 C13.6090088,7.88452148 13.6071777,7.80517578 13.6071777,7.734375 C13.6071777,7.26074219 13.7902832,6.80664062 14.1564941,6.37207031 C14.7229004,5.69824219 15.5212402,5.36132812 16.5515137,5.36132812 C17.4108887,5.36132812 18.0871582,5.60424805 18.5803223,6.09008789 C19.0734863,6.57592773 19.3200684,7.1875 19.3200684,7.92480469 C19.3200684,8.21777344 19.2736816,8.49365234 19.1809082,8.75244141 C19.0490723,9.10400391 18.8891602,9.40917969 18.7011719,9.66796875 L18.6005012,9.79681521 C18.3992098,10.0414541 18.0303831,10.4355668 17.494021,10.9791534 L17.1520996,11.3232422 C16.541748,11.9335938 15.7775879,12.65625 14.8596191,13.4912109 L15.6726074,13.5058594 L17.0056152,13.4765625 L17.7819824,13.4912109 C18.1921387,13.4912109 18.4643555,13.4472656 18.5986328,13.359375 C18.7137277,13.2840402 18.820751,13.1208147 18.9197026,12.8696987 L19.0197754,12.590332 C19.041748,12.5317383 19.0686035,12.4633789 19.1003418,12.3852539 L19.5837402,12.355957 L19.6789551,12.3852539 C19.7033691,12.4243164 19.7155762,12.4609375 19.7155762,12.4951172 C19.7155762,12.5472005 19.7101508,12.6079644 19.6993001,12.6774089 L19.6789551,12.7880859 C19.6594238,12.8818359 19.6375488,13.0240234 19.6133301,13.2146484 L19.5533081,13.680249 C19.5110962,13.9800049 19.4455566,14.4101562 19.3566895,14.9707031 Z"/>
</svg>
