<svg xmlns="http://www.w3.org/2000/svg" viewBox="0 0 20 20">
  <path d="m10.41 15.95.2-.01c0-.13.02-.23.03-.3v-.07a.5.5 0 0 0-.07-.22 5.31 5.31 0 0 0-.37-.08c-.29-.05-.47-.1-.54-.13a.23.23 0 0 1-.08-.1l.05-1.84-.01-1.28v-.57c0-.67-.03-1.12-.08-1.36a2.25 2.25 0 0 0-.4-.89 2.16 2.16 0 0 0-.79-.61 2.73 2.73 0 0 0-1.2-.25c-.5 0-.96.1-1.41.27-.45.18-.95.49-1.5.92l.02-5.4L3.77 4l-.25.14a6.74 6.74 0 0 1-1.7.55l-.77.17a3.8 3.8 0 0 0-.01.33v.2c.5.07.81.15.95.24.13.1.22.22.26.37.06.27.09.96.09 2.08v.25l-.04 3.28-.02.15.01.45V13.13l-.04.68v.64c0 .34-.03.55-.09.64-.04.06-.16.1-.36.13-.44.04-.7.08-.8.1v.12c.07.22.13.37.19.45l.88.01 1.27-.06c.3 0 .64.01 1.02.04l1 .05a1.6 1.6 0 0 0 .02-.62c-.1-.03-.21-.04-.36-.04s-.33-.02-.55-.04c-.11-.06-.18-.12-.2-.2a3.02 3.02 0 0 1-.08-.85l.01-.49c.02-.43.03-1.08.03-1.95v-1.58c.25-.24.56-.45.92-.62.35-.18.72-.27 1.1-.27.33 0 .6.07.83.22.23.15.38.34.45.57.08.23.11.67.11 1.33v2.21l-.04 1.32-.05.22-.52.06c-.18.02-.34.07-.48.13a.64.64 0 0 0-.05.2l.02.12v.22l.18.02a23.05 23.05 0 0 0 1.9-.05c.35 0 .77.02 1.28.07.26.03.44.04.53.04Zm3.72.25c1.11 0 2.05-.23 2.81-.69a3.7 3.7 0 0 0 1.58-1.7c.29-.68.43-1.32.43-1.94 0-.74-.26-1.41-.76-2.03a2.43 2.43 0 0 0-1.98-.93h-.19A5.99 5.99 0 0 0 17.6 7.5c.3-.43.45-.88.45-1.35 0-.6-.22-1.1-.64-1.49-.43-.4-1.04-.59-1.83-.59a3.7 3.7 0 0 0-1.46.25c-.52.23-.91.5-1.2.81-.27.32-.56.8-.85 1.42l.57.31c.6-.9 1.27-1.34 2-1.34.36 0 .68.14.95.42.28.28.42.62.42 1 0 .37-.12.72-.36 1.04-.37.5-1.1 1.15-2.2 1.94l.45.54c.41-.28.77-.41 1.09-.41.42 0 .82.2 1.18.61.35.42.53.98.53 1.7 0 .66-.1 1.25-.3 1.75-.2.5-.48.86-.83 1.08-.35.22-.68.32-1 .32-.12 0-.33-.05-.6-.17-.16-.06-.32-.2-.49-.41-.33-.42-.6-.7-.78-.81-.2-.12-.4-.18-.64-.18-.27 0-.49.08-.66.25a.8.8 0 0 0-.27.6c0 .32.19.6.55.84.56.38 1.38.57 2.46.57Z"/>
</svg>
