<svg xmlns="http://www.w3.org/2000/svg" viewBox="0 0 20 20">
  <path d="M10.45 16h.21c0-.14 0-.24.02-.3v-.08a.5.5 0 0 0-.06-.22l-.38-.08c-.29-.05-.47-.1-.54-.13a.23.23 0 0 1-.08-.1l.05-1.85-.01-1.28v-.58c0-.67-.03-1.13-.09-1.36a2.26 2.26 0 0 0-.4-.9 2.17 2.17 0 0 0-.79-.61 2.74 2.74 0 0 0-1.2-.25c-.5 0-.97.1-1.42.27-.45.18-.96.5-1.5.93l.01-5.42L3.78 4l-.25.14a6.77 6.77 0 0 1-1.71.56l-.77.16a3.8 3.8 0 0 0-.01.34v.19c.5.08.82.16.95.25.14.1.22.22.26.37.06.27.1.96.1 2.09v.25l-.04 3.3-.02.14v1.38l-.03.68v.65c0 .33-.03.55-.1.64-.04.06-.16.1-.35.13a9 9 0 0 0-.81.1v.12c.07.22.13.37.19.46h.89l1.27-.06c.3 0 .64.02 1.02.05l1 .04a1.61 1.61 0 0 0 .03-.62c-.1-.03-.21-.04-.36-.04s-.34-.02-.56-.04c-.1-.06-.17-.12-.2-.2a3.03 3.03 0 0 1-.08-.86l.02-.49c.02-.43.02-1.08.02-1.95v-1.59c.26-.24.57-.45.92-.63.36-.18.73-.27 1.12-.27.32 0 .6.08.83.23.23.14.38.33.45.57.07.23.11.67.11 1.33v2.22l-.04 1.33-.05.21-.52.07c-.19.02-.35.07-.49.13a.64.64 0 0 0-.04.2l.02.12v.22c.05.02.11.03.18.03a23.15 23.15 0 0 0 1.91-.06c.35 0 .77.03 1.28.07.26.03.44.04.53.04Zm3.58.2c.7 0 1.29-.06 1.77-.17.48-.1.92-.3 1.33-.58.28-.18.58-.51.92-.98a4 4 0 0 0 .66-1.28c.1-.39.15-.81.15-1.28l-.11-.84a4.53 4.53 0 0 0-.98-1.62 3.47 3.47 0 0 0-2.47-1 4.12 4.12 0 0 0-1.71.37l.04-.85.04-1.18c0-.07.01-.2.04-.36l.3-.01a34.84 34.84 0 0 1 1.54.05l.58-.01h.24l1.15-.05c.08-.01.15-.08.22-.2.12-.2.3-.9.55-2.11h-.66c-.07.16-.15.26-.25.3-.1.05-.3.07-.64.07l-2.08-.03a11 11 0 0 0-1.45.05c-.2.06-.3.16-.3.3l.02.33-.01.18-.02.35c0 .17-.02.38-.04.64l-.03.88a10.8 10.8 0 0 1-.05 1.09l-.1 2.87c0 .08.02.13.06.18.06.04.13.07.22.07.07 0 .14-.02.21-.05l.4-.25c.3-.21.52-.34.64-.37.23-.08.5-.11.8-.11.6 0 1.12.23 1.55.68.43.46.65 1 .65 1.64 0 .37-.1.76-.32 1.2-.2.42-.47.73-.8.94-.33.21-.67.32-1.01.32-.26 0-.5-.06-.7-.18a2.52 2.52 0 0 1-.6-.6c-.43-.55-.87-.83-1.3-.83-.27 0-.5.1-.7.28a.9.9 0 0 0-.28.67c0 .36.16.66.49.9.55.38 1.23.58 2.04.58Z"/>
</svg>
