<svg xmlns="http://www.w3.org/2000/svg" viewBox="0 0 20 20">
  <path d="M9.30813953,17 L9.16569767,13.8641618 C7.375,13.4393064 6.39825581,11.3554913 6.39825581,9.08959538 C6.39825581,6.58092486 7.65988372,3.66763006 10,3.66763006 C12.4011628,3.66763006 13.6017442,6.58092486 13.6017442,9.1300578 C13.6017442,11.3757225 12.625,13.4393064 10.8343023,13.8641618 L10.6918605,17 L16.8372093,17 L16.8372093,13.5404624 L16.3284884,13.5404624 C16.3284884,14.6531792 16.1046512,15.0982659 15.1889535,15.0982659 L12.380814,15.0982659 L12.4215116,14.5115607 C14.8837209,13.8641618 17,11.8815029 17,9.25144509 C17,5.9132948 14.0087209,3 10,3 C5.97093023,3 3,5.9132948 3,9.19075145 C3,11.8410405 4.97383721,14.066474 7.57848837,14.5115607 L7.61918605,15.0982659 L4.70930233,15.0982659 C3.83430233,15.0982659 3.67151163,14.6734104 3.67151163,13.5404624 L3.1627907,13.5404624 L3.1627907,17 L9.30813953,17 Z"/>
</svg>
