<svg xmlns="http://www.w3.org/2000/svg" viewBox="0 0 20 20">
  <path d="M11.11 16.2h.21c0-.14 0-.25.02-.31l.01-.08a.51.51 0 0 0-.07-.22l-.39-.08c-.29-.06-.47-.1-.54-.13a.24.24 0 0 1-.09-.11l.05-1.88-.01-1.3v-.59a7.4 7.4 0 0 0-.08-1.38 2.3 2.3 0 0 0-.4-.9A2.2 2.2 0 0 0 9 8.57a2.78 2.78 0 0 0-1.23-.25c-.5 0-.98.1-1.44.28-.46.18-.97.5-1.53.94l.02-5.51-.5-.04c-.08.04-.17.08-.26.14a6.88 6.88 0 0 1-1.74.57l-.77.17c-.02.13-.02.24-.02.34v.19c.5.08.83.17.97.26s.22.22.26.38c.06.27.1.97.1 2.11v.26l-.04 3.35-.02.15v1.41l-.03.69v.65c0 .34-.03.56-.1.65-.04.07-.16.1-.36.13-.45.05-.72.09-.82.11v.12c.07.23.13.38.2.46l.9.01 1.29-.06c.3 0 .65.01 1.04.05l1.02.04a1.64 1.64 0 0 0 .02-.63c-.1-.03-.21-.04-.36-.05l-.57-.03c-.11-.06-.18-.13-.2-.2a3.08 3.08 0 0 1-.09-.88l.02-.5c.02-.44.03-1.1.03-1.98v-1.62c.26-.24.57-.46.93-.64.37-.18.75-.27 1.13-.27.33 0 .62.08.85.23.23.15.39.34.46.58.08.23.11.69.11 1.36v2.25l-.04 1.35-.05.22-.53.07c-.19.02-.35.07-.5.13a.65.65 0 0 0-.04.2l.02.13v.22c.05.02.12.02.18.02a23.54 23.54 0 0 0 1.95-.05c.35 0 .78.02 1.3.07l.54.04Zm7.4-.06a10.76 10.76 0 0 0 0-.62l-.9-.15c-.37-.05-.6-.12-.68-.2-.1-.08-.13-.21-.13-.4v-.52l.06-6.22v-.88l.01-1.39a30.88 30.88 0 0 1 .03-1.27c0-.1-.01-.24-.04-.43l-.58-.01-.3-.01c-.38 0-.6.02-.62.02a8.13 8.13 0 0 1-1.98 1.83c-.24.16-.68.4-1.33.75.06.14.18.36.38.66.49-.22.77-.34.83-.38.56-.32 1.05-.65 1.49-.98a38.43 38.43 0 0 1 0 1.29l-.03.28.03.63-.02.23v.27c0 .08 0 .31.03.71l-.04.53.03.75c0 .12 0 .27-.02.44l-.02.55.01.36.01 1.4-.03.68v.63c0 .15-.05.26-.15.35-.1.1-.37.18-.82.28a14 14 0 0 0-.86.2 3.68 3.68 0 0 0 0 .62l.2-.02.13-.01h.05l.46.02.25-.02.27.02h.16l.26-.01 1.63-.05.65.03 1.17.04h.4Z"/>
</svg>
