<svg xmlns="http://www.w3.org/2000/svg" viewBox="0 0 20 20">
  <defs/>
  <path d="M16.5 9.9c.3 0 .4.3.4.6s-.2.5-.5.5h-2.9c.1.2.2.3.3.5.1.3.2.8.2 1.3 0 .6-.1 1.1-.3 1.7-.2.3-.3.5-.6.8-.2.1-.5.4-.9.6-.4.2-.8.4-1.2.5-.4.1-.9.2-1.6.2-.4 0-.9-.1-1.5-.2L6.7 16c-.3-.1-.5-.1-.6-.2 0 0-.1-.1-.1-.2v-2.5h.9c.3.6.5 1.1.6 1.2.2.4.4.6.6.8.2.2.5.4.8.5.3.1.6.2 1 .2.3 0 .7-.1 1.1-.2.4-.1.8-.4 1-.7.3-.3.4-.6.4-1 0-.5-.2-.9-.6-1.3-.3-.3-1-.6-2.1-1-.6-.3-1.2-.5-1.6-.7H3.5c-.3 0-.5-.2-.5-.5s.2-.5.5-.5zM10 4c.3 0 .7.1 1.3.2.4.1.8.2 1.4.4.1.2.2.5.2.9.1.7.1 1.2.1 1.5v.4h-.9c-.3-.8-.5-1.3-.8-1.6-.4-.5-1-.7-1.6-.7-.6 0-1 .2-1.4.5-.3.3-.5.7-.5 1.2 0 .4.1.7.4 1.2.4.3 1 .6 1.9.9H6.2c-.1-.4-.2-.8-.2-1.2 0-1 .3-1.8.9-2.7.7-.7 1.7-1 3.1-1z"/>
</svg>
