<svg xmlns="http://www.w3.org/2000/svg" viewBox="0 0 20 20">
  <path d="M0.467529297,14.9267578 C0.467529297,14.7802734 0.482177734,14.6069336 0.511474609,14.4067383 L1.42700195,14.2456055 C1.53930664,14.2211914 1.67358398,14.1821289 1.82983398,14.128418 L1.92504883,12.2973633 L1.89987183,11.2559509 C1.89712524,11.0865784 1.89575195,10.9405518 1.89575195,10.8178711 L1.91615081,10.303602 C1.92208282,10.0360965 1.92504883,9.64599609 1.92504883,9.13330078 L1.91040039,8.92089844 L1.92504883,8.30566406 L1.91772461,7.66845703 L1.91772461,7.35351562 C1.91772461,7.0703125 1.89575195,6.73828125 1.85180664,6.35742188 C1.84692383,6.32324219 1.82739258,6.26464844 1.79321289,6.18164062 L1.73187256,6.16333008 L1.59454346,6.14318848 L1.5222168,6.13037109 C1.33178711,6.09619141 1.12915039,6.07177734 0.914306641,6.05712891 L0.804443359,6.02783203 L0.630493164,6.00219727 C0.580444336,5.99243164 0.538330078,5.98144531 0.504150391,5.96923828 L0.483551025,5.7371521 C0.482635498,5.72097778 0.482177734,5.70800781 0.482177734,5.69824219 C0.482177734,5.63964844 0.496826172,5.55908203 0.526123047,5.45654297 C0.599365234,5.44189453 0.694580078,5.43273926 0.811767578,5.42907715 L1.2550293,5.42255859 C1.27299805,5.42177734 1.28881836,5.42089844 1.30249023,5.41992188 L1.72042847,5.46203613 C2.10952759,5.49865723 2.41210938,5.51879883 2.62817383,5.52246094 L2.82684326,5.52520752 L3.27473958,5.54321289 L3.38256836,5.54443359 C3.54370117,5.54443359 3.93676758,5.52001953 4.56176758,5.47119141 C4.66430664,5.44677734 4.77661133,5.43457031 4.89868164,5.43457031 C5.0793457,5.43457031 5.23071289,5.44433594 5.3527832,5.46386719 L5.36010742,5.68359375 C5.36010742,5.76171875 5.3503418,5.85693359 5.33081055,5.96923828 L4.04174805,6.17431641 C3.93432617,6.22314453 3.88061523,6.29394531 3.88061523,6.38671875 L3.90258789,6.65771484 L3.90991211,6.77490234 L3.90258789,7.09716797 L3.88793945,7.34619141 L3.88793945,7.40478516 C3.89282227,7.45849609 3.89526367,7.50488281 3.89526367,7.54394531 L3.88793945,8.47412109 L3.89526367,8.671875 L3.88061523,8.90625 L3.87512207,9.02526855 L3.87329102,9.14794922 C3.87329102,9.22119141 3.88061523,9.39453125 3.89526367,9.66796875 C4.03198242,9.69238281 4.14672852,9.70703125 4.23950195,9.71191406 L5.32348633,9.73388672 L5.85083008,9.73388672 L7.16918945,9.74121094 L8.45092773,9.70458984 C8.61694336,9.70458984 8.79272461,9.6875 8.97827148,9.65332031 L8.98722331,9.40673828 C8.99264865,9.18863932 8.99698893,8.86311849 9.00024414,8.43017578 L9.01489258,8.10058594 L8.97094727,6.85546875 L8.91967773,6.34277344 C8.9050293,6.30859375 8.87084961,6.27685547 8.81713867,6.24755859 C8.64624023,6.14990234 8.30444336,6.04003906 7.79174805,5.91796875 C7.69897461,5.8984375 7.61108398,5.87402344 7.52807617,5.84472656 C7.5378418,5.67382812 7.55737305,5.53466797 7.58666992,5.42724609 L7.78442383,5.41992188 L8.49487305,5.42724609 C8.94897461,5.48583984 9.41040039,5.51513672 9.87915039,5.51513672 L10.0646973,5.51188151 C10.0907389,5.51079644 10.1143392,5.5094401 10.135498,5.5078125 L11.0876465,5.47851562 L11.3439941,5.46386719 C11.5197754,5.42480469 11.7004395,5.40527344 11.8859863,5.40527344 C12.0275879,5.40527344 12.1984863,5.41259766 12.3986816,5.42724609 C12.3937988,5.61767578 12.3815918,5.79101562 12.3620605,5.94726562 L11.9220924,6.04082108 C11.7140007,6.08678818 11.5664673,6.1227417 11.4794922,6.14868164 C11.340332,6.19018555 11.1999512,6.24755859 11.0583496,6.32080078 L11.0144043,6.46728516 L11.0144043,6.59179688 L11.0217285,6.78222656 L11.0013835,7.04996745 C11.0002984,7.07329644 10.9997559,7.09391276 10.9997559,7.11181641 L11.0070801,7.66113281 L11.0070801,8.59130859 L11.0144043,9.29443359 L10.9983091,10.401114 C10.9987311,10.6458574 11.0065375,11.0264757 11.0217285,11.5429688 L11.0217285,12.5830078 L11.036377,13.4472656 L11.0281372,13.8674927 C11.0263062,13.9205933 11.0241699,13.9758301 11.0217285,14.0332031 C11.1242676,14.0625 11.2194824,14.0869141 11.307373,14.1064453 C11.7663574,14.2041016 12.1130371,14.3041992 12.3474121,14.4067383 L12.3693848,14.9194336 L12.0251465,14.9267578 C11.8493652,14.9267578 11.6543579,14.9185181 11.4401245,14.9020386 L11.2194824,14.8828125 C10.8190918,14.8388672 10.1745605,14.8168945 9.28588867,14.8168945 C8.88549805,14.8168945 8.36791992,14.8486328 7.7331543,14.9121094 C7.66479492,14.9121094 7.58178711,14.8974609 7.48413086,14.8681641 C7.48901367,14.6435547 7.5012207,14.4848633 7.52075195,14.3920898 L8.0847168,14.2602539 L8.67797852,14.1650391 L8.9050293,14.0991211 L8.93432617,13.8304687 C8.96069336,13.5304688 8.97827148,13.1364258 8.98706055,12.6483398 L9.00024414,11.5063477 C8.97094727,11.2475586 8.95629883,10.9375 8.95629883,10.5761719 C8.77563477,10.5615234 8.58032227,10.5517578 8.37036133,10.546875 L4.97192383,10.5102539 L4.85473633,10.4956055 L4.73754883,10.5029297 L4.4152832,10.5102539 L4.21020508,10.5102539 C4.11743164,10.5102539 4.01245117,10.5273438 3.89526367,10.5615234 L3.8659668,11.1108398 L3.8659668,11.2060547 L3.88061523,11.4624023 L3.88061523,13.7329102 C3.88061523,13.8598633 3.88793945,13.9892578 3.90258789,14.1210938 L3.97583008,14.1650391 L5.05249023,14.3334961 L5.14363607,14.362793 L5.17700195,14.3701172 C5.24047852,14.3847656 5.29418945,14.4067383 5.33813477,14.4360352 L5.35873413,14.6269226 C5.35964966,14.6412659 5.36010742,14.6533203 5.36010742,14.6630859 C5.36010742,14.7265625 5.3503418,14.8144531 5.33081055,14.9267578 L4.8840332,14.934082 L4.72839355,14.932251 L4.58374023,14.9267578 C4.53979492,14.9267578 4.49829102,14.9243164 4.45922852,14.9194336 L3.42651367,14.8754883 C3.18237305,14.8510742 2.84057617,14.8388672 2.40112305,14.8388672 L1.91918945,14.8649414 L1.88842773,14.8681641 C1.58569336,14.9072266 1.11206055,14.9267578 0.467529297,14.9267578 Z M15.9143066,10.1513672 L15.9069824,9.90966797 L15.9143066,9.66064453 L15.985791,9.63603516 C16.0338379,9.61728516 16.1003418,9.58886719 16.1853027,9.55078125 C16.5222168,9.39941406 16.8591309,9.32373047 17.1960449,9.32373047 C17.8649902,9.32373047 18.4277344,9.57275391 18.8842773,10.0708008 C19.3408203,10.5688477 19.5690918,11.2475586 19.5690918,12.1069336 C19.5690918,13.0395508 19.2919922,13.7817383 18.737793,14.3334961 C18.1835938,14.8852539 17.4182129,15.1611328 16.4416504,15.1611328 C16.0021973,15.1611328 15.6115723,15.0708008 15.2697754,14.8901367 C14.9279785,14.7094727 14.6252441,14.4543457 14.3615723,14.1247559 C14.0979004,13.795166 13.8952637,13.4521484 13.7536621,13.0957031 C13.5290527,12.5097656 13.416748,11.8774414 13.416748,11.1987305 C13.416748,10.6176758 13.5168457,10 13.717041,9.34570312 C13.9172363,8.69140625 14.2211914,8.11645508 14.6289062,7.62084961 C15.0366211,7.12524414 15.4992676,6.71508789 16.0168457,6.39038086 C16.5344238,6.06567383 16.9909668,5.83007812 17.3864746,5.68359375 C18.1481934,5.40527344 18.7243652,5.26611328 19.1149902,5.26611328 C19.1882324,5.26611328 19.2456055,5.29052734 19.2871094,5.33935547 C19.3286133,5.38818359 19.3493652,5.46386719 19.3493652,5.56640625 C19.3493652,5.67382812 19.3371582,5.75927734 19.3127441,5.82275391 C19.2102051,5.86669922 19.0222168,5.92041016 18.7487793,5.98388672 C18.1286621,6.14013672 17.5866699,6.39892578 17.1228027,6.76025391 C16.6589355,7.12158203 16.3146973,7.49511719 16.0900879,7.88085938 C15.7824707,8.41308594 15.5700684,9.01000977 15.4528809,9.67163086 C15.3356934,10.333252 15.2770996,10.9887695 15.2770996,11.6381836 C15.2770996,12.3706055 15.324707,12.9699707 15.4199219,13.4362793 C15.5151367,13.9025879 15.6774902,14.2358398 15.9069824,14.4360352 C16.0632324,14.5629883 16.2854004,14.6264648 16.5734863,14.6264648 C16.739502,14.6264648 16.8688965,14.6020508 16.9616699,14.5532227 C17.1716309,14.4458008 17.322998,14.3286133 17.4157715,14.2016602 C17.5866699,13.9624023 17.7001953,13.6816406 17.7563477,13.359375 C17.8125,13.0371094 17.8405762,12.7001953 17.8405762,12.3486328 C17.8405762,11.4648438 17.7172852,10.8569336 17.4707031,10.5249023 C17.2241211,10.1928711 16.9177246,10.0268555 16.5515137,10.0268555 C16.3903809,10.0268555 16.1779785,10.0683594 15.9143066,10.1513672 Z"/>
</svg>
