<svg xmlns="http://www.w3.org/2000/svg" viewBox="0 0 20 20">
    <path d="M4 16v-.6c.1 0 .3-.1.6-.1.5-.1.8-.2.9-.2.1-.1.2-.3.4-.5l1.9-4.9L10 4h1l.1.2L12.7 8c.4.8.7 1.6 1 2.3.3.8.5 1.4.7 1.9.1.3.3.7.5 1.3.1.3.3.7.5 1.2.1 0 .1.2.2.2.1.1.3.2.5.2s.5.1.8.2v.7c-.5 0-1 0-1.5-.1-.5 0-1-.1-1.5-.1h-1.1l-1.4.1h-.5v-.6l1-.2c.3-.1.5-.1.5-.2.1-.1.1-.1.1-.2v-.2l-.4-.9-.6-1.8H8c-.1.3-.4 1-.8 2.2-.1.3-.2.5-.2.7 0 .2 0 .3.1.3.1.1.4.2.8.2.1 0 .3 0 .7.1v.7c-.4 0-1.3-.1-2.7-.2l-.4.1c-.5.1-.9.1-1.3.1H4zm4.3-5.2H11c-.2-.5-.4-1.2-.7-1.9-.2-.7-.4-1.3-.6-1.7l-1.4 3.6z"
          id="b"/>
</svg>
