<svg xmlns="http://www.w3.org/2000/svg" viewBox="0 0 20 20">
  <path d="M10.42 16h.2l.02-.3.01-.08a.5.5 0 0 0-.07-.21 5.32 5.32 0 0 0-.38-.09c-.28-.05-.46-.1-.53-.12a.23.23 0 0 1-.08-.11l.04-1.84V11.4c0-.67-.03-1.12-.09-1.36a2.25 2.25 0 0 0-.4-.89 2.16 2.16 0 0 0-.78-.61 2.73 2.73 0 0 0-1.21-.25c-.49 0-.96.09-1.4.27-.46.18-.96.49-1.5.92l.01-5.4-.49-.03c-.08.03-.16.08-.25.13a6.74 6.74 0 0 1-1.7.56l-.77.16a3.8 3.8 0 0 0-.01.34v.19c.5.08.81.16.95.25.13.09.22.21.26.37.06.26.09.96.09 2.08v.25l-.04 3.28-.02.15.01.45V13.18l-.03.68v.64c0 .34-.03.55-.1.64-.04.06-.16.1-.36.13l-.8.1v.13c.07.21.13.36.19.45h.88l1.27-.06c.3 0 .64.02 1.02.05l1 .04a1.6 1.6 0 0 0 .02-.62c-.1-.02-.2-.04-.36-.04a9.5 9.5 0 0 1-.55-.03c-.11-.06-.18-.13-.2-.2a3.02 3.02 0 0 1-.08-.86l.02-.49.02-1.95v-1.58c.26-.24.56-.45.92-.62.36-.18.73-.27 1.1-.27.33 0 .6.07.84.22.23.15.38.34.45.57.07.23.1.67.1 1.33v2.21l-.04 1.32-.04.22a16 16 0 0 1-.52.07c-.19.02-.35.06-.49.13a.64.64 0 0 0-.04.2l.02.11v.22c.05.02.11.03.18.03a23.07 23.07 0 0 0 1.9-.06c.35 0 .77.03 1.28.08l.53.03Zm4.73.2c1.2 0 2.15-.34 2.83-1.02a3.7 3.7 0 0 0 1.03-2.75c0-1.06-.28-1.9-.85-2.5A2.71 2.71 0 0 0 16.08 9c-.41 0-.83.1-1.25.28-.17.08-.28.13-.33.14a7.83 7.83 0 0 0 0 .6c.33-.1.59-.15.79-.15.45 0 .83.2 1.13.61.3.41.46 1.16.46 2.25 0 .44-.04.85-.1 1.25-.08.4-.22.74-.43 1.04-.11.15-.3.3-.56.43-.11.06-.27.1-.48.1-.35 0-.63-.09-.82-.24a2.17 2.17 0 0 1-.6-1.24 13.88 13.88 0 0 1 .04-4.64c.15-.81.4-1.55.79-2.2A5.34 5.34 0 0 1 18 4.88c.33-.08.56-.15.69-.2a.9.9 0 0 0 .05-.32c0-.13-.03-.22-.08-.28a.26.26 0 0 0-.21-.09c-.48 0-1.2.17-2.13.51-.5.19-1.06.48-1.7.88-.63.4-1.2.9-1.7 1.51s-.88 1.32-1.13 2.13c-.25.8-.37 1.57-.37 2.28 0 .84.14 1.62.42 2.34.17.44.42.87.75 1.27.32.4.7.72 1.12.95.42.22.9.33 1.44.33Z"/>
</svg>
