<svg xmlns="http://www.w3.org/2000/svg" viewBox="0 0 20 20">
  <defs/>
  <path d="M1.55 4h.36l.5.05.23-.01h.03l.3.04a16.6 16.6 0 003.75-.06l.32.03-.01.6-.2.09-.9.15-.07.02a3.6 3.6 0 00-.24.09c0 .1.01.19.03.23.45.77.87 1.41 1.27 1.92l.89 1.28.1.15.53-.65 1.14-1.66.11-.17c.21-.33.35-.58.41-.75a.47.47 0 00.04-.18l-.03-.15-.08-.04a1.07 1.07 0 00-.21-.09l-.35-.01c-.32-.01-.6-.04-.86-.08a2.05 2.05 0 01-.03-.27l.02-.23.01-.2.19-.05a65.46 65.46 0 004.01.02l.32-.02c.06 0 .15 0 .27.02.03.13.05.24.05.34l-.01.29-1.42.3-.09.04c-.1.05-.19.12-.3.22-.14.12-.52.59-1.14 1.38L9.15 8.38l-.1.15a12.66 12.66 0 01-.55.69l.14.19.51.73.52.73 1.83 2.71.13.2c.42.6.74.98.95 1.13.17.12.59.24 1.27.37l.02.24-.04.34.02.08-.65.02h-.07l-.76-.05-1.13-.07-.12-.02h-.27c-.39 0-.84.01-1.37.06a15.98 15.98 0 01-1.95.04v-.4l.02-.18c.47-.12.97-.22 1.49-.3l.23-.13v-.18l-.02-.09a2.6 2.6 0 00-.26-.5c-.27-.43-.64-.95-1.1-1.56L6.8 11.1l-.02.04c-.18.22-.66.89-1.46 2a4.93 4.93 0 00-.86 1.44v.07l.13.17.14.06c.2.08.43.17.7.25l.66.22.05.43v.04l-.02.1-.1.02-.26.02c-.1 0-.39-.02-.88-.07-.17-.02-.46-.03-.9-.04l-.43-.01-2.03.1h-.03l-.4-.02-.04-.41v-.07l.02-.17.4-.05c.48-.04.85-.13 1.1-.26.11-.05.3-.24.59-.56.43-.48.83-.95 1.18-1.4a76.79 76.79 0 011.94-2.53v-.01l-.54-.82-.17-.2c-.31-.4-.56-.73-.75-1l-.54-.8-.08-.14a6.81 6.81 0 00-.33-.5c-.3-.39-.65-.9-1.05-1.54a1.4 1.4 0 00-.6-.51 3.48 3.48 0 00-1.16-.21V4.6l-.01-.15L1 4.23l.02-.22h.16L1.55 4zM17.7 2h.18c.47.03.81.15 1.03.38.25.25.38.65.38 1.2v.31c-.04.39-.23.73-.57 1.02l-.38.3-1.7 1.23h2.65v1.1H15v-1.5l2.85-2.06v-.5c-.03-.25-.19-.37-.47-.37h-2.22V2h2.53z"/>
</svg>
