<svg xmlns="http://www.w3.org/2000/svg" viewBox="0 0 20 20">
  <defs/>
  <path d="M12.86 12.25a.73.73 0 011.03 0l1.26 1.26 1.27-1.27a.73.73 0 011.02.02c.29.3.28.76 0 1.05l-1.27 1.27 1.26 1.26c.3.29.3.76.01 1.05v.01a.73.73 0 01-1.03 0l-1.26-1.26-1.26 1.26a.73.73 0 01-1.04 0 .75.75 0 010-1.06l1.27-1.26-1.26-1.27a.76.76 0 010-1.06zM16.22 4h.05l.05.02.09.05.05.1c.02.05 0 .1-.02.17l-.87 2.76-.03.07-.02.06a.36.36 0 01-.07.1l-.01.02-.01.01-.03.04-.13.06a.35.35 0 01-.12.02l-.74-.02h-.04a.1.1 0 01-.06 0 .3.3 0 01-.07-.06.13.13 0 01-.06-.11c0-.05 0-.1.02-.15a.7.7 0 00.03-.12c0-.04.01-.1.03-.14v-.26l-.02-.15a2.1 2.1 0 00-.07-.3c-.04-.14-.1-.27-.2-.4a.8.8 0 00-.31-.3 1 1 0 00-.45-.09l-1.12-.03-.09.01-.2.03c-.05 0-.1.02-.12.05-.04.01-.07.05-.1.12-.04.07-.06.15-.09.25l-2.5 9.39-.04.13c-.02.13-.03.23-.02.32.01.1.06.19.15.24a1.13 1.13 0 00.6.15l.07-.02h.17l.11.02h.1l.18.04c.06 0 .1.03.13.05.03.03.03.07.02.13a.66.66 0 01-.1.19c-.03.05-.07.08-.12.08a.67.67 0 01-.2.05 1.8 1.8 0 01-.27.02h-.92l-.03-.01H8.48l-.04-.02H8.27l-.12-.02-.13-.02h-.79l-.06.01a.8.8 0 00-.13.01l-.11.01H6.76l-.06.02h-.36l-.05.02H5.24l-.19-.02a.98.98 0 01-.21-.05c-.08 0-.13-.03-.15-.08a.28.28 0 01.01-.19c.02-.06.04-.1.07-.13a.31.31 0 01.12-.05 2.38 2.38 0 01.4-.04v-.02h.03l.04.01H5.73l.15-.03.13-.05.15-.08.07-.04a.68.68 0 00.18-.2c.07-.1.13-.23.18-.4l2.58-9.6v-.05-.08a.14.14 0 00-.1-.08H9l-.1-.02h-.17l-.2-.02c-.38.02-.72.07-1.01.15a2.92 2.92 0 00-1.4.86 6.37 6.37 0 00-.76.86 1.14 1.14 0 01-.26.2.64.64 0 01-.17.08c-.05.02-.09.02-.11 0l-.75-.02h-.03c-.02 0-.03 0-.04-.03l.01-.17.04-.19L5.69 4.3l.04-.03.06-.08.04-.02a.7.7 0 01.15-.11l.74-.02.05-.01a.4.4 0 01.07-.01c.04 0 .06.01.09.04.02 0 .03.04.03.09 0 .05-.04.11-.09.19v.02l-.02.03v.06c-.02.06 0 .11.02.15.04.05.1.09.2.11l.24.05.25.04.03-.01h.33l5.16-.04.23.01a5.89 5.89 0 001.17-.03c.14-.03.26-.07.37-.13.1-.06.19-.15.25-.26a1.31 1.31 0 01.17-.2.43.43 0 01.08-.07.45.45 0 01.12-.05l.75-.02z"/>
</svg>
