<svg xmlns="http://www.w3.org/2000/svg" viewBox="0 0 20 20">
  <path d="M5.74829102,5.96191406 L5.7409668,5.40527344 L7.49145508,5.51513672 L8.27514648,5.5078125 L8.56079102,5.5078125 C8.85864258,5.5078125 9.32495117,5.49072266 9.9597168,5.45654297 C10.3210449,5.43212891 10.5480957,5.41992188 10.6408691,5.41992188 C11.2561035,5.41992188 11.7199707,5.45410156 12.0324707,5.52246094 C12.5109863,5.62011719 12.890625,5.77636719 13.1713867,5.99121094 C13.4521484,6.20605469 13.6938477,6.51245117 13.8964844,6.91040039 C14.0991211,7.30834961 14.2004395,7.67822266 14.2004395,8.02001953 C14.2004395,8.86962891 13.9331055,9.55932617 13.3984375,10.0891113 C12.8637695,10.6188965 12.1887207,10.8837891 11.373291,10.8837891 C11.0900879,10.8837891 10.8203125,10.8496094 10.5639648,10.78125 C10.3076172,10.7128906 10.0671387,10.6103516 9.8425293,10.4736328 C9.81811523,10.3320312 9.8059082,10.1367188 9.8059082,9.88769531 C9.9230957,9.89746094 10.0292969,9.90478516 10.1245117,9.90966797 C10.2197266,9.91455078 10.3039551,9.91699219 10.3771973,9.91699219 C10.7922363,9.91699219 11.1413574,9.80224609 11.4245605,9.57275391 C11.8005371,9.27490234 11.9885254,8.79150391 11.9885254,8.12255859 C11.9885254,7.64404297 11.9067383,7.25219727 11.7431641,6.94702148 C11.5795898,6.6418457 11.385498,6.43554688 11.1608887,6.328125 C10.8483887,6.18164062 10.4968262,6.10839844 10.1062012,6.10839844 C9.73999023,6.10839844 9.47875977,6.16210938 9.32250977,6.26953125 C9.28344727,6.33300781 9.25415039,6.39404297 9.23461914,6.45263672 L9.28588867,9.90234375 L9.27124023,10.1953125 L9.29321289,10.5029297 C9.2980957,10.5712891 9.30053711,10.6713867 9.30053711,10.8032227 L9.30053711,11.4038086 L9.30786133,12.3632812 L9.29321289,13.5058594 C9.29321289,13.6669922 9.30786133,13.8842773 9.3371582,14.1577148 L10.7946777,14.3408203 C10.814209,14.4580078 10.8239746,14.5507812 10.8239746,14.6191406 C10.8239746,14.6923828 10.8117676,14.7949219 10.7873535,14.9267578 C10.6652832,14.9462891 10.5725098,14.9560547 10.5090332,14.9560547 C10.357666,14.9560547 10.0720215,14.9377441 9.65209961,14.901123 C9.23217773,14.864502 8.75366211,14.8461914 8.21655273,14.8461914 C7.61108398,14.8461914 7.03491211,14.8852539 6.48803711,14.9633789 C6.39526367,14.9780273 6.2487793,14.9902344 6.04858398,15 C6.02905273,14.8583984 6.01928711,14.753418 6.01928711,14.6850586 C6.01928711,14.6411133 6.02416992,14.5727539 6.03393555,14.4799805 L6.48071289,14.3334961 C6.78833008,14.2407227 7.05444336,14.128418 7.27905273,13.996582 C7.32299805,13.8549805 7.3449707,13.7255859 7.3449707,13.6083984 C7.3449707,13.5595703 7.3425293,13.503418 7.33764648,13.4399414 C7.33276367,13.2885742 7.33032227,13.0761719 7.33032227,12.8027344 L7.30834961,10.7446289 L7.2277832,8.42285156 C7.19360352,7.31933594 7.16674805,6.72363281 7.1472168,6.63574219 C7.11303711,6.49414062 7.05444336,6.38305664 6.97143555,6.30249023 C6.88842773,6.22192383 6.74926758,6.16455078 6.55395508,6.13037109 C6.14868164,6.06201172 5.88012695,6.00585938 5.74829102,5.96191406 Z"/>
</svg>
