<svg xmlns="http://www.w3.org/2000/svg" viewBox="0 0 20 20">
  <defs/>
  <path d="M5.1 15.9v-.7h.1c.2-.1.4-.1.6-.1l.4-.1c.1 0 .3 0 .4-.1v-.1-.1c0-.1 0-.2.1-.3 0-.1 0-.2.1-.3V13c0-2.4 0-4.3-.1-5.8 0-1.3-.1-2.1-.1-2.2-.1 0-.1-.1-.2-.1-.2 0-.3 0-.4-.1H5v-.6c.9 0 1.8 0 2.7-.1.5 0 1.1 0 1.9-.1h2.6c.2 0 .4 0 .5.1.3.1.6.2 1 .3.1.1.2.1.3.2.2.1.4.2.5.3.1.1.3.4.6.8.1.1.2.3.2.5v1c0 .1 0 .3-.1.4l-.3.6c0 .1-.1.2-.2.2s-.1.1-.3.2l-.6.3c-.3.1-.5.2-.7.3.4.1.8.2 1.1.4.3.2.6.4.9.7.5.6.8 1.3.8 1.9 0 .5-.1 1-.3 1.4-.1.3-.2.5-.3.6-.1.2-.2.3-.4.4l-.2.2c-.4.3-.7.4-.9.5-.3.2-.7.3-1.3.4-.3.1-.7.1-1.4.1H6.8l-1.7.1zm4.1-6.8h.3c.2 0 .4.1.6.1.5 0 .9 0 1.1-.1.4-.1.7-.3.9-.4l.3-.3c.1-.1.1-.2.2-.3l.1-.1v-.5c0-.3.1-.5.1-.6 0-.2 0-.4-.1-.5 0-.1-.1-.3-.1-.5-.1-.2-.3-.4-.6-.6-.3-.2-.6-.3-.8-.3l-.2-.1c-.4-.1-.7-.1-.9-.1-.4 0-.7 0-1 .1v3.6c0 .1.1.2.1.3v.3zm.1 5.7c.3.2.5.2.6.3.2 0 .3.1.5.1 1 0 1.7-.2 2.2-.6.5-.4.7-1.1.7-1.9 0-.6-.1-1.1-.3-1.4-.1-.1-.2-.3-.5-.6l-.3-.3c-.1-.1-.1-.1-.2-.1s-.2-.1-.3-.1c-.1 0-.2-.1-.3-.1-.1 0-.2 0-.4-.1H9.6c-.1 0-.2 0-.3.1v4.7c0-.1 0 0 0 0z"/>
</svg>
