<svg xmlns="http://www.w3.org/2000/svg" viewBox="0 0 20 20">
  <defs/>
  <path d="M16 16.1l-.1.1H4.3s-.1 0-.1-.1h-.1L4 16v-.6s0-.1.1-.1v-.1l.1-.1h11.6l.1.1.1.1v.8zM5.6 5.1c0 .1.1.3.1.5v4.9c0 .3 0 .6.1.8.2.7.5 1.2.7 1.5.2.3.7.7 1.4 1 .5.3 1.3.4 2.2.4.7 0 1.4-.1 2-.3.3-.1.6-.2.7-.3.3-.1.5-.2.7-.4.3-.2.6-.6.9-1 .1-.4.2-.7.3-1 .1-.3.1-.6.1-1.1V8.8c-.1-1-.1-1.9-.2-2.8v-.7c0-.1 0-.2.1-.3l.6-.3c.3 0 .6 0 .7-.1V4h-.1c-.4.1-.9.1-1.5.1L12.8 4h-.7v.7h.9c.2 0 .4.1.6.3.1.1.1.1.1.3 0 .1.1.3.1.4v.5c0 .1 0 .3.1.6v.6c.1.3.1.6.1 1v1c0 .7-.1 1.3-.2 1.8-.1.4-.3.7-.4.9l-.1.1c-.1.2-.3.3-.4.4a3 3 0 01-.8.4h-.2c-.5.1-1 .2-1.3.2-.2 0-.4 0-.6-.1-.1 0-.3-.1-.6-.2l-.2-.1c-.2 0-.3-.1-.5-.3-.1-.1-.2-.2-.3-.4-.3-.5-.4-1.1-.4-1.6l-.1-2.2V6.1c0-.3 0-.6.1-.9v-.1c.2-.2.4-.2.7 0 .1 0 .3 0 .6-.1h.4v-.7H6.6h-.3c-.4-.1-.7-.1-1-.1H4.1v.7h.3c.5 0 .9.1 1.2.2z"/>
</svg>
