<svg xmlns="http://www.w3.org/2000/svg" viewBox="0 0 20 20">
  <path d="M10 0a10 10 0 1 1 0 20 10 10 0 0 1 0-20Zm0 2c-.18 0-.35 0-.52.02v.68L7.62 4.23l-.84.63-.33.32-.14.14c-.46.48-.5.78-.55.97-.06.23-.03.33.34.58h.35l1.26.24.27.08.51.17.25.09c1.53.56 2.3 1.15 2.3 1.76 0 1.1-.5 1.7-1.9 2.62-.67.43-.89 1.47-.96 2.48l-.02.2-.01.39-.01.37-.01.66-.01.26v.1c-.02.17-.05.29-.1.3-.05.03-.17-.05-.32-.2l-.08-.09-.17-.2-.1-.14c-.57-.76-1.26-2.03-1.25-2.91l.01-.18.05-.26c.07-.46-.13-.7-.4-.87l-.09-.05-.2-.1-.2-.1-.1-.05c-.26-.14-.49-.3-.56-.59-.15-.6.16-1.46.93-2.6a2.9 2.9 0 0 0-1.79-.47H2.9c-.31.02-.44-.28-.34-.7l.09-.21a8 8 0 0 0 6.4 11.08l.36-.32.52-.46.48-.25.35-.17.39-.19.4-.18.31-.14.32-.13.49-.19.89-.37.24-.09.11-.04.11-.04.21-.06.12-.02c.45-.09.65.36.8.83a8 8 0 0 0 1.65-1.9l.03-.13c.3-1.1.14-2 0-2.86-.21-1.4-.8-1.88-1.68-1.74-.88.14-2.1-1.9-1.59-2.63l.33-.48.07-.1.17-.2.44-.48.08-.1c.36-.41.59-.82.23-1.17-.23-.22-.41-.2-.58-.11l-.06.03-.25.16-.07.04c-.2.08-.4.1-.7-.12-.48-.35-.55-.78-.2-1.28l.09-.1.1-.12.05-.15h.03A7.97 7.97 0 0 1 10 2Z"/>
</svg>
