<svg xmlns="http://www.w3.org/2000/svg" viewBox="0 0 20 20">
  <defs/>
  <path d="M8.72 7.88a2 2 0 012.58.02l.12.12 2.25 2.28.08.1a1 1 0 01-1.41 1.39l-.1-.08L11 10.44V18.2a1 1 0 01-2 0v-7.78l-1.28 1.29-.1.08a1 1 0 01-1.4-1.4l.08-.1 2.28-2.28.14-.13zm.78-5.97a6.5 6.5 0 015.91 3.8l.1.23.13.01A5 5 0 0120 10.7v.21a5 5 0 01-4.55 4.98l-.23.02H14a1 1 0 01-.12-2h1.27a3 3 0 00.05-6h-.38a1 1 0 01-.99-.72 4.5 4.5 0 00-8.81 1.63 1 1 0 01-.86 1.08l-.11.01h-.17a2 2 0 00-.03 4H6a1 1 0 01.12 2H4A4 4 0 012.8 8.1l.21-.06v-.1a6.5 6.5 0 016.26-6.02h.23z"/>
</svg>
