<svg xmlns="http://www.w3.org/2000/svg" viewBox="0 0 20 20">
  <path d="M10 10c4.62 0 9 2.94 9 6 0 1.47-.97 2.33-2.6 2.7l-.28.06-.33.06-.27.04-.43.05-.3.03-.33.02-.36.01-.61.02-.7.01H6.73l-.63-.02-.56-.02-.33-.02-.45-.04-.42-.06-.26-.04-.27-.05C2.05 18.4 1 17.53 1 16c0-3.06 4.38-6 9-6Zm0 2c-3.65 0-7 2.26-7 4 0 .35.24.57 1.03.75l.17.04.23.04.24.04.39.04.43.04.33.02.35.01.4.01.67.01h5.98l.6-.02.36-.01.48-.03.41-.04.38-.05.23-.04.3-.06c.78-.18 1.02-.4 1.02-.75 0-1.74-3.35-4-7-4Zm0-11a4 4 0 1 1 0 8 4 4 0 0 1 0-8Zm0 2a2 2 0 1 0 0 4 2 2 0 0 0 0-4Z"/>
</svg>
