<svg width="20" height="20" viewBox="0 0 20 20" xmlns="http://www.w3.org/2000/svg" xmlns:xlink="http://www.w3.org/1999/xlink">
    <defs>
        <filter x="-2.8%" y="-3.6%" width="105.6%" height="114.3%" filterUnits="objectBoundingBox" id="rkypbxz18a">
            <feOffset dy="1" in="SourceAlpha" result="shadowOffsetOuter1"/>
            <feColorMatrix values="0 0 0 0 1 0 0 0 0 1 0 0 0 0 1 0 0 0 1 0" in="shadowOffsetOuter1"/>
        </filter>
        <path d="M18 15a1 1 0 0 1 0 2H2a1 1 0 0 1 0-2h16zM8 11a1 1 0 0 1 0 2H2a1 1 0 0 1 0-2h6zm9-4a2 2 0 0 1 2 2v2a2 2 0 0 1-2 2h-4a2 2 0 0 1-2-2V9a2 2 0 0 1 2-2h4zm0 2h-4v2h4V9zM8 7a1 1 0 1 1 0 2H2a1 1 0 1 1 0-2h6zm10-4a1 1 0 0 1 0 2H2a1 1 0 1 1 0-2h16z" id="k8qk1tb9hb"/>
    </defs>
    <g fill="none">
        <use fill="#000" filter="url(#rkypbxz18a)" xlink:href="#k8qk1tb9hb"/>
        <use fill="#6D6D6D" xlink:href="#k8qk1tb9hb"/>
    </g>
</svg>
