<svg width="18" height="18" viewBox="0 0 18 18" xmlns="http://www.w3.org/2000/svg" xmlns:xlink="http://www.w3.org/1999/xlink">
    <defs>
        <filter x="-3.1%" y="-4%" width="106.2%" height="115.9%" filterUnits="objectBoundingBox" id="xufbtsu1ca">
            <feOffset dy="1" in="SourceAlpha" result="shadowOffsetOuter1"/>
            <feColorMatrix values="0 0 0 0 1 0 0 0 0 1 0 0 0 0 1 0 0 0 1 0" in="shadowOffsetOuter1"/>
        </filter>
        <path d="M16.2 13.5a.9.9 0 1 1 0 1.8H1.8a.9.9 0 1 1 0-1.8h14.4zm0-3.6a.9.9 0 1 1 0 1.8h-5.4a.9.9 0 1 1 0-1.8h5.4zM6.3 6.3a1.8 1.8 0 0 1 1.8 1.8v1.8a1.8 1.8 0 0 1-1.8 1.8H2.7A1.8 1.8 0 0 1 .9 9.9V8.1a1.8 1.8 0 0 1 1.8-1.8h3.6zm0 1.8H2.7v1.8h3.6V8.1zm9.9-1.8a.9.9 0 1 1 0 1.8h-5.4a.9.9 0 1 1 0-1.8h5.4zm0-3.6a.9.9 0 1 1 0 1.8H1.8a.9.9 0 0 1 0-1.8h14.4z" id="4vmsc43z7b"/>
    </defs>
    <g fill="none">
        <use fill="#000" filter="url(#xufbtsu1ca)" xlink:href="#4vmsc43z7b"/>
        <use fill="#6D6D6D" xlink:href="#4vmsc43z7b"/>
    </g>
</svg>
